<svg width="236" height="214" viewBox="0 0 236 214" fill="none" xmlns="http://www.w3.org/2000/svg">
<path d="M193.685 150.203L195.5 139.915C195.761 138.434 195.664 136.912 195.217 135.476C192.832 127.814 182.575 126.446 178.265 133.215L167.499 150.121C166.322 151.97 165.52 154.033 165.139 156.191L164.684 158.771C164.422 160.257 164.595 161.787 165.182 163.177C165.89 164.853 167.16 166.231 168.774 167.072L169.599 167.503C170.544 167.996 171.559 168.341 172.608 168.526L178.925 169.64C180.053 169.839 181.201 169.892 182.341 169.8L184.26 169.645C186.033 169.502 187.706 168.764 189.008 167.552C190.264 166.382 191.106 164.833 191.404 163.142L193.685 150.203Z" fill="#807B7C" stroke="#B6998C"/>
<path d="M31.6881 125.637L33.5023 115.349C33.7634 113.868 34.375 112.471 35.2861 111.274C40.1477 104.89 50.2542 107.112 51.9895 114.947L56.3236 134.516C56.7977 136.656 56.8457 138.869 56.4651 141.027L56.0103 143.607C55.7483 145.093 55.0625 146.471 54.0355 147.577C52.7967 148.91 51.1322 149.77 49.328 150.009L48.4051 150.131C47.3486 150.271 46.277 150.248 45.2275 150.063L38.9103 148.949C37.7831 148.751 36.686 148.409 35.6454 147.932L33.8958 147.13C32.2787 146.389 30.959 145.124 30.1503 143.539C29.3695 142.01 29.1085 140.267 29.4067 138.576L31.6881 125.637Z" fill="#807B7C" stroke="#B6998C"/>
<path d="M94.0849 162.739L92.9655 153.348C107.551 145.509 125.41 147.155 138.317 157.527L141.46 160.053L131.545 183.781L127.611 191.644C125.717 196.033 121.055 198.546 116.347 197.716L116.041 197.662L105.54 195.811L103.576 195.464C99.3057 194.711 95.851 191.566 94.7017 187.385C94.406 186.31 94.2722 185.196 94.3049 184.081L94.5956 174.167C94.7075 170.35 94.5368 166.531 94.0849 162.739Z" fill="#807B7C" stroke="#B6998C"/>
<path d="M24.2176 64.0097L23.9606 46.687C23.9119 43.4069 24.4204 40.1423 25.4644 37.0323L26.0194 35.3794C26.9374 32.6446 28.4163 30.1317 30.3613 28.0013C32.4828 25.6776 35.1055 23.8675 38.0306 22.7081L44.8126 20.0201C47.2582 19.0508 49.7733 18.2672 52.3367 17.6761L61.0677 15.6625L75.8696 13.9445C81.5538 13.2847 87.288 13.1686 92.9943 13.5977L116.851 15.3915L151.686 21.5338L161.891 24.0052C167.553 25.3763 173.068 27.294 178.359 29.7312L191.488 35.7784L205.377 44.3819C208.662 46.4169 211.771 48.7229 214.672 51.2759L222.564 58.2217C224.401 59.8386 225.891 61.8116 226.943 64.0212C228.561 67.4176 229.079 71.2339 228.426 74.9387L227.621 79.5051L223.36 92.5643C221.084 99.5399 217.964 106.211 214.069 112.429L208.549 121.239C203.337 129.56 196.797 136.972 189.191 143.181L184.033 147.391C175.934 154.002 166.745 159.152 156.878 162.608L154.466 163.453C139.904 168.555 124.276 169.827 109.081 167.147L94.0624 164.499C88.3348 163.489 82.7681 161.718 77.5105 159.232C66.1312 153.851 56.5526 145.291 49.9309 134.586L40.4313 119.228C36.2847 112.525 33.0367 105.306 30.7707 97.7562L28.0068 88.5475C25.6161 80.5826 24.3409 72.3248 24.2176 64.0097Z" fill="#807B7C" stroke="#B6998C"/>
<path d="M29.3207 49.5167L28.0175 46.7629C26.4382 43.4258 25.941 39.6421 26.5821 36.0062C27.1609 32.7236 28.6677 29.6389 30.9151 27.1772C32.7134 25.2076 34.9365 23.6732 37.416 22.6905L44.8752 19.734C47.3208 18.7647 49.836 17.9811 52.3994 17.39L61.1304 15.3764L75.9323 13.6584C81.6165 12.9987 87.3507 12.8825 93.0569 13.3116L116.914 15.1054L151.749 21.2478L161.953 23.7191C167.615 25.0902 173.131 27.0079 178.422 29.4451L191.551 35.4923L205.439 44.0958C208.724 46.1308 211.833 48.4368 214.734 50.9898L223.124 58.3732C224.633 59.7014 225.857 61.3221 226.721 63.1371C228.489 66.8497 228.627 71.1609 227.124 74.9884C225.806 78.3428 223.315 81.1384 220.124 82.8139L212.002 87.0783C208.493 88.921 204.727 90.2268 200.83 90.9522L184.38 94.0145C177 95.3881 169.478 95.8332 161.988 95.3394L138.952 93.8205L113.368 89.3093L98.8859 86.7557C90.8342 85.336 83.0136 82.8258 75.6398 79.2943L67.0013 75.1572L53.447 69.4629C49.8331 67.9446 46.4026 66.0223 43.2211 63.7324L38.0782 60.031C34.3165 57.3236 31.3033 53.7059 29.3207 49.5167Z" fill="#807B7C" stroke="#B6998C"/>
<path d="M44.7824 47.8099L43.1912 45.0831C41.8765 42.8302 41.4036 40.184 41.8565 37.6152C42.2741 35.2472 43.4546 33.0807 45.2182 31.4461L45.5331 31.1543C46.8803 29.9056 48.4902 28.9746 50.2445 28.4297L60.0879 25.3721L70.6989 23.5885L83.191 22.7098C88.0247 22.3698 92.878 22.4208 97.7036 22.8621L118.045 24.7227L147.762 29.9626L156.563 31.9986C161.352 33.1063 166.042 34.6045 170.586 36.4781L181.888 41.1379L194.231 47.8351C196.837 49.2491 199.334 50.855 201.702 52.6396L209.595 58.59C210.671 59.4005 211.575 60.4156 212.257 61.5768L212.421 61.8568C213.974 64.5027 214.166 67.7323 212.938 70.5438C211.955 72.7933 210.147 74.5797 207.885 75.5347L199.953 78.8844C197.363 79.9781 194.637 80.7162 191.849 81.0788L177.344 82.9654C171.007 83.7897 164.6 83.9366 158.231 83.4037L138.628 81.7634L137.264 81.5228C132.926 80.758 129.011 84.2414 129.267 88.6381C129.378 90.5458 128.683 92.4125 127.353 93.7842L124.836 96.3794C123.058 98.2128 121.776 100.469 121.11 102.935L119.042 110.595C118.358 113.128 114.691 112.898 114.33 110.299L113.753 106.148C113.539 104.606 112.266 103.431 110.712 103.34L109.191 103.251C106.435 103.091 104.303 100.774 104.371 98.0151L104.531 91.5281C104.599 88.7685 103.7 86.0721 101.989 83.9057L98.4554 79.4302C95.5959 75.8088 91.8747 72.9614 87.6318 71.148L77.1065 66.6497L65.0475 62.0802C62.2188 61.0083 59.5019 59.6618 56.9357 58.0601L51.3434 54.5693C48.6402 52.882 46.3884 50.5621 44.7824 47.8099Z" fill="#EFE7B2"/>
<path d="M110.339 71.9756L109.436 71.1604C109.236 70.9795 109.049 70.7846 108.877 70.5771C107.61 69.053 105.639 68.3017 103.679 68.596L99.6587 69.1999C96.4673 69.6792 93.2122 68.9428 90.538 67.1364L85.5475 63.7655C84.3133 62.9318 83.6849 61.45 83.9434 59.9832C84.4548 57.0821 87.9447 55.8594 90.1549 57.807L91.0694 58.6129L92.9043 60.7568C95.9493 64.3146 100.708 65.9026 105.28 64.8862L106.043 64.7165C108.83 64.097 111.748 64.6081 114.158 66.1378C115.348 66.893 116.675 67.4076 118.063 67.6523L122.779 68.4839C123.626 68.6333 124.458 68.8617 125.262 69.1662C127.182 69.8926 129.24 70.1808 131.286 70.01L136.012 69.6151L156.916 70.4629C157.996 70.5067 158.958 71.1598 159.396 72.1477C160.224 74.0105 158.877 76.1125 156.839 76.1398L146.291 76.2809C144.852 76.3001 143.461 76.7998 142.339 77.7004C140.498 79.178 137.998 79.5321 135.819 78.6236L126.451 74.717C124.362 73.8462 122.045 73.6903 119.858 74.2737C116.501 75.1698 112.918 74.3048 110.339 71.9756Z" fill="#F59240"/>
<path d="M133.786 43.662L111.442 38.8954C109.749 38.5342 108.094 39.6497 107.793 41.3548C107.519 42.9117 108.476 44.4212 110.002 44.8361L123.424 48.4872C124.72 48.8397 126.051 49.0484 127.392 49.1096L135.972 49.5015C137.719 49.5813 139.469 49.4315 141.177 49.0559C143.729 48.4946 146.366 48.4393 148.94 48.8931L151.86 49.408C152.708 49.5574 153.567 49.6271 154.427 49.6162C156.48 49.5903 158.512 50.0232 160.376 50.8834L164.682 52.871L184.616 59.224C185.646 59.5522 186.773 59.2673 187.523 58.4891C188.937 57.0216 188.391 54.5858 186.485 53.8631L176.621 50.1228C175.276 49.6126 174.14 48.6674 173.393 47.4374C172.169 45.4193 169.94 44.2312 167.582 44.3397L157.443 44.8066C155.182 44.9107 152.951 44.2644 151.096 42.9685C148.248 40.9781 144.585 40.5655 141.365 41.8722L140.383 42.2709C140.036 42.4114 139.701 42.5765 139.378 42.7649C137.69 43.7497 135.696 44.0696 133.786 43.662Z" fill="#F59240"/>
<path d="M167.053 63.3568L166.953 63.5383C166.625 64.1328 166.397 64.7774 166.279 65.4461L166.23 65.7233C166.155 66.1483 166.144 66.582 166.197 67.0103C166.263 67.5404 166.425 68.0539 166.677 68.5249L166.952 69.0388C167.119 69.3513 167.223 69.6936 167.257 70.0463C167.375 71.2493 168.28 72.2265 169.471 72.4364L169.516 72.4445L172.47 73.1876L174.385 73.5252C176.087 73.6907 177.721 72.815 178.525 71.3062L178.648 71.0741C178.995 70.4231 179.182 69.6985 179.191 68.9609L179.263 63.4579C179.276 62.499 178.927 61.5705 178.287 60.8566L176.714 59.1033C175.861 58.1528 174.343 58.252 173.622 59.3055C173.389 59.6448 173.056 59.9029 172.67 60.0436L171.268 60.5536L170.286 60.8196C169.7 60.9784 169.146 61.2374 168.648 61.5852C167.988 62.0461 167.442 62.6522 167.053 63.3568Z" fill="#BC946B"/>
<path d="M61.3908 37.6684L61.427 37.9132C61.5295 38.6072 61.7316 39.2696 62.0254 39.875L62.1551 40.1421C62.3423 40.5277 62.5801 40.8763 62.861 41.1768C63.212 41.5523 63.6252 41.8472 64.0802 42.047L64.5671 42.2607C64.8625 42.3904 65.1303 42.5878 65.3524 42.8384C66.121 43.7058 67.3517 43.8452 68.3472 43.1683L70.8929 41.6996L72.4613 40.633C73.7767 39.5801 74.4561 37.7728 74.18 36.0608L74.1215 35.6982C74.0021 34.9582 73.7296 34.2727 73.3257 33.6964L70.5994 29.8067C69.9044 28.8151 68.6314 28.6132 67.6189 29.3341C67.3989 29.4908 67.1604 29.6074 66.9128 29.6795L65.7602 30.0152C64.5397 30.3706 63.4722 31.2877 62.8233 32.5382L62.2795 33.4165C61.9424 33.961 61.6875 34.5612 61.5264 35.1903C61.317 36.0078 61.2707 36.855 61.3908 37.6684Z" fill="#BC946B"/>
<path d="M149.123 52.0067L149.181 52.0444C149.582 52.3037 150.031 52.4801 150.501 52.563L150.66 52.5909C150.98 52.6474 151.308 52.6454 151.628 52.5849C151.988 52.5166 152.331 52.3754 152.635 52.1698L153.039 51.8966C153.279 51.7345 153.551 51.6271 153.837 51.5818C154.67 51.45 155.327 50.8041 155.474 49.9737L155.544 49.5766L156.152 47.0101L156.445 45.35L156.488 44.9649C156.628 43.7153 156.038 42.4964 154.97 41.8319C154.43 41.4959 153.804 41.3249 153.169 41.34L150.964 41.3922C149.629 41.4238 148.649 42.6568 148.92 43.9641L149.031 44.5027C149.185 45.246 148.764 45.9882 148.047 46.2374C147.298 46.4979 146.877 47.2933 147.083 48.0593L147.175 48.3995L147.357 49.3495C147.439 49.7774 147.588 50.1896 147.8 50.5707L147.825 50.6163C148.137 51.1795 148.583 51.6571 149.123 52.0067Z" fill="#BC946B"/>
<path d="M109.694 52.2849L109.64 52.2754C109.176 52.1935 108.694 52.2072 108.218 52.3159L108.052 52.3539C107.733 52.4269 107.423 52.5564 107.138 52.7363C106.811 52.9429 106.521 53.2121 106.286 53.5278L105.986 53.9321C105.806 54.174 105.581 54.3775 105.327 54.5285C104.566 54.9797 104.127 55.8602 104.238 56.7137L104.283 57.0544L104.465 59.6611L104.68 61.3074L104.736 61.5899C104.984 62.8502 105.933 63.7811 107.169 63.9764C107.767 64.0711 108.395 63.9858 108.979 63.7303L111.182 62.7672C112.402 62.2341 112.941 60.7195 112.299 59.6315L112.042 59.195C111.668 58.5609 111.845 57.693 112.452 57.1848C113.087 56.6535 113.248 55.7348 112.816 55.1012L112.643 54.8471L112.194 54.057C111.982 53.6851 111.706 53.3525 111.386 53.0796C110.907 52.6725 110.322 52.3959 109.694 52.2849Z" fill="#BC946B"/>
<path d="M124.58 58.1382L124.466 58.3577C124.219 58.8335 124.045 59.3443 123.952 59.8723L123.906 60.1373C123.846 60.4756 123.833 60.8206 123.867 61.1624C123.911 61.599 124.031 62.0246 124.221 62.4197L124.417 62.8251C124.535 63.0688 124.605 63.3324 124.626 63.6022L124.635 63.7212C124.705 64.6384 125.388 65.3916 126.293 65.5513L128.499 66.1215L129.931 66.3738C131.2 66.4884 132.411 65.8148 132.982 64.6755L133.185 64.2711C133.434 63.7766 133.57 63.2335 133.584 62.6804L133.676 59.19C133.705 58.0836 132.629 57.2823 131.577 57.6268L131.274 57.7263C130.538 57.9674 129.754 57.5212 129.586 56.7652C129.41 55.9729 128.563 55.5296 127.811 55.8361L127.744 55.8635L127.05 56.0771C126.579 56.2221 126.138 56.4497 125.746 56.7492C125.26 57.1209 124.862 57.5952 124.58 58.1382Z" fill="#BC946B"/>
<path d="M84.1421 53.0839L84.0281 53.3033C83.781 53.7792 83.6079 54.2899 83.5148 54.8179L83.4681 55.0829C83.4084 55.4212 83.3955 55.7662 83.4297 56.1081C83.4734 56.5446 83.5932 56.9702 83.7839 57.3654L83.9795 57.7707C84.097 58.0144 84.1679 58.278 84.1885 58.5478L84.1976 58.6669C84.2675 59.584 84.95 60.3372 85.8559 60.4969L88.0615 61.0671L89.4933 61.3194C90.7628 61.434 91.9732 60.7604 92.545 59.6211L92.7479 59.2168C92.9961 58.7222 93.1322 58.1791 93.1468 57.626L93.2383 54.1356C93.2673 53.0292 92.1916 52.2279 91.1398 52.5724L90.8361 52.6719C90.1001 52.913 89.3167 52.4669 89.1484 51.7109C88.9721 50.9185 88.1254 50.4752 87.3737 50.7818L87.3067 50.8091L86.6129 51.0227C86.1417 51.1678 85.7 51.3953 85.3084 51.6948C84.8223 52.0665 84.4241 52.5408 84.1421 53.0839Z" fill="#BC946B"/>
<path d="M167.706 49.2763L167.604 49.5126C167.494 49.7706 167.413 50.0405 167.364 50.317L167.328 50.5226C167.296 50.7041 167.283 50.8884 167.289 51.0725C167.297 51.3272 167.342 51.5794 167.422 51.8214L167.495 52.0404C167.533 52.1562 167.554 52.2772 167.555 52.3992L167.56 52.7241C167.566 53.1104 167.845 53.4382 168.226 53.5053L169.161 53.7734L169.77 53.8808C170.309 53.9141 170.81 53.6021 171.018 53.1036L171.274 52.4883C171.359 52.284 171.41 52.0669 171.424 51.846L171.574 49.4726C171.603 49.0128 171.127 48.6914 170.711 48.8901L170.671 48.9094C170.32 49.0773 169.907 48.8524 169.858 48.4662L169.846 48.3724C169.8 48.0118 169.402 47.8145 169.087 47.9967L168.858 48.1008C168.603 48.2164 168.371 48.3782 168.175 48.5779C167.976 48.7796 167.817 49.0164 167.706 49.2763Z" fill="#BC946B"/>
<path d="M88.1033 32.9583L87.9886 33.1583C87.5071 33.998 87.1749 34.9148 87.0068 35.868L86.9411 36.2406C86.833 36.8535 86.8215 37.4795 86.907 38.096C87.0107 38.8435 87.2552 39.5646 87.6277 40.2209L88.0516 40.968C88.3096 41.4225 88.4725 41.9247 88.5306 42.4441C88.7208 44.1459 90.0096 45.5188 91.6959 45.8162L91.9302 45.8575L96.3494 46.9525L98.6426 47.3567C99.0213 47.4234 99.3897 47.5388 99.7389 47.7C102.397 48.9272 105.496 47.3063 106.005 44.4234L106.032 44.2675C106.219 43.2054 106.026 42.1113 105.487 41.1775L105.202 40.6844C104.544 39.5459 103.416 38.7566 102.121 38.5282C100.26 38.2002 98.8096 36.733 98.5025 34.8688L97.8739 31.0539C97.6068 29.4331 95.9494 28.439 94.3937 28.9667L92.8803 29.3451C92.0404 29.5551 91.2423 29.9062 90.5201 30.3835C89.5246 31.0413 88.6969 31.9231 88.1033 32.9583Z" fill="#BC946B"/>
<path d="M153.878 60.9012L153.863 60.9281C153.798 61.0407 153.754 61.1638 153.731 61.2917L153.722 61.3417C153.708 61.4239 153.706 61.508 153.718 61.5907C153.732 61.691 153.764 61.7878 153.814 61.8758L153.871 61.9761C153.906 62.0371 153.928 62.1045 153.936 62.1742C153.961 62.4026 154.134 62.5868 154.36 62.6267L154.392 62.6322L154.756 62.7226C154.898 62.7576 155.009 62.8656 155.049 63.0056C155.141 63.3315 155.569 63.4072 155.767 63.1328L155.933 62.904L156.031 62.7269C156.223 62.38 156.324 61.9905 156.326 61.5941L156.329 60.9586C156.33 60.7599 156.254 60.5685 156.118 60.4239L155.8 60.0863C155.63 59.9064 155.338 59.9262 155.194 60.1274C155.147 60.1944 155.079 60.2446 155.001 60.271L154.722 60.3656L154.519 60.4163C154.407 60.4445 154.299 60.4916 154.203 60.5557C154.069 60.644 153.958 60.7623 153.878 60.9012Z" fill="#FBF9E9"/>
<path d="M147.14 58.3736L147.125 58.4005C147.06 58.5131 147.015 58.6362 146.993 58.7641L146.984 58.8141C146.969 58.8963 146.968 58.9804 146.979 59.0631C146.993 59.1634 147.026 59.2602 147.076 59.3482L147.133 59.4485C147.168 59.5095 147.189 59.5769 147.197 59.6466C147.223 59.8749 147.396 60.0592 147.622 60.0991L147.653 60.1046L148.018 60.195C148.159 60.23 148.271 60.338 148.311 60.478C148.403 60.8039 148.83 60.8796 149.029 60.6052L149.194 60.3764L149.292 60.1993C149.484 59.8524 149.586 59.4629 149.588 59.0665L149.591 58.431C149.592 58.2323 149.516 58.0409 149.38 57.8963L149.061 57.5587C148.892 57.3788 148.6 57.3986 148.456 57.5998C148.408 57.6667 148.341 57.717 148.263 57.7434L147.984 57.838L147.781 57.8887C147.668 57.9169 147.561 57.964 147.464 58.0281C147.331 58.1164 147.22 58.2347 147.14 58.3736Z" fill="#FBF9E9"/>
<path d="M153.036 55.004L153.021 55.0309C152.956 55.1436 152.912 55.2666 152.889 55.3945L152.88 55.4445C152.866 55.5268 152.864 55.6108 152.876 55.6935C152.89 55.7938 152.923 55.8906 152.973 55.9787L153.029 56.0789C153.064 56.1399 153.086 56.2073 153.094 56.277C153.119 56.5054 153.292 56.6896 153.519 56.7295L153.55 56.7351L153.915 56.8254C154.056 56.8604 154.167 56.9684 154.207 57.1084C154.299 57.4343 154.727 57.51 154.925 57.2356L155.091 57.0068L155.189 56.8297C155.381 56.4828 155.482 56.0933 155.484 55.6969L155.487 55.0614C155.488 54.8627 155.413 54.6713 155.276 54.5267L154.958 54.1891C154.788 54.0092 154.496 54.029 154.353 54.2302C154.305 54.2972 154.237 54.3474 154.159 54.3738L153.881 54.4684L153.677 54.5192C153.565 54.5473 153.458 54.5945 153.361 54.6585C153.227 54.7468 153.116 54.8651 153.036 55.004Z" fill="#FBF9E9"/>
<path d="M149.667 64.2716L149.652 64.2985C149.587 64.4112 149.543 64.5342 149.52 64.6621L149.511 64.7121C149.497 64.7944 149.495 64.8784 149.507 64.9611C149.521 65.0614 149.553 65.1582 149.603 65.2463L149.66 65.3465C149.695 65.4075 149.717 65.4749 149.725 65.5446C149.75 65.773 149.923 65.9572 150.149 65.9971L150.181 66.0027L150.545 66.093C150.687 66.128 150.798 66.236 150.838 66.376C150.93 66.7019 151.358 66.7776 151.556 66.5032L151.722 66.2744L151.82 66.0973C152.012 65.7504 152.113 65.3609 152.115 64.9645L152.118 64.3291C152.119 64.1303 152.043 63.9389 151.907 63.7943L151.589 63.4567C151.419 63.2768 151.127 63.2966 150.984 63.4978C150.936 63.5648 150.868 63.615 150.79 63.6414L150.511 63.736L150.308 63.7868C150.196 63.8149 150.089 63.8621 149.992 63.9261C149.858 64.0144 149.747 64.1327 149.667 64.2716Z" fill="#FBF9E9"/>
<path d="M139.558 53.3201L139.543 53.3469C139.478 53.4596 139.433 53.5826 139.411 53.7106L139.402 53.7605C139.387 53.8428 139.386 53.9268 139.397 54.0095C139.411 54.1099 139.444 54.2066 139.494 54.2947L139.551 54.395C139.586 54.4559 139.607 54.5233 139.615 54.593C139.641 54.8214 139.814 55.0057 140.04 55.0456L140.071 55.0511L140.436 55.1415C140.577 55.1764 140.689 55.2845 140.729 55.4244C140.821 55.7503 141.248 55.826 141.447 55.5516L141.612 55.3228L141.71 55.1457C141.902 54.7989 142.004 54.4093 142.006 54.0129L142.009 53.3775C142.01 53.1788 141.934 52.9873 141.798 52.8427L141.479 52.5051C141.31 52.3252 141.018 52.345 140.874 52.5463C140.826 52.6132 140.759 52.6634 140.681 52.6899L140.402 52.7844L140.199 52.8352C140.086 52.8634 139.979 52.9105 139.882 52.9745C139.749 53.0628 139.638 53.1812 139.558 53.3201Z" fill="#FBF9E9"/>
<path d="M159.777 64.2708L159.761 64.2976C159.697 64.4103 159.652 64.5334 159.63 64.6613L159.621 64.7113C159.606 64.7935 159.605 64.8775 159.616 64.9603C159.63 65.0606 159.663 65.1573 159.713 65.2454L159.77 65.3457C159.804 65.4067 159.826 65.4741 159.834 65.5438C159.86 65.7721 160.032 65.9564 160.259 65.9963L160.29 66.0018L160.655 66.0922C160.796 66.1272 160.908 66.2352 160.947 66.3752C161.04 66.701 161.467 66.7767 161.666 66.5023L161.831 66.2735L161.929 66.0965C162.121 65.7496 162.222 65.36 162.224 64.9637L162.227 64.3282C162.228 64.1295 162.153 63.938 162.016 63.7935L161.698 63.4558C161.528 63.2759 161.237 63.2958 161.093 63.497C161.045 63.5639 160.977 63.6142 160.9 63.6406L160.621 63.7351L160.418 63.7859C160.305 63.8141 160.198 63.8612 160.101 63.9253C159.967 64.0136 159.856 64.1319 159.777 64.2708Z" fill="#FBF9E9"/>
<path d="M129.237 47.8288L129.262 47.8468C129.352 47.912 129.456 47.9559 129.565 47.9752L129.596 47.9805C129.675 47.9945 129.756 47.992 129.834 47.9733C129.916 47.9537 129.993 47.9167 130.06 47.8648L130.163 47.7836C130.222 47.7379 130.29 47.7064 130.363 47.6915C130.556 47.652 130.705 47.4985 130.74 47.3044L130.767 47.147L130.87 46.6985C130.905 46.547 131.01 46.4212 131.153 46.3604C131.476 46.2232 131.551 45.7994 131.295 45.5596L131.117 45.3924C131.094 45.371 131.069 45.3513 131.044 45.3335L130.969 45.2817C130.657 45.0648 130.281 44.9578 129.901 44.9776L129.566 44.9951C129.293 45.0093 129.04 45.1385 128.868 45.3505L128.564 45.7264C128.416 45.9091 128.435 46.1751 128.608 46.3344C128.675 46.3967 128.722 46.4782 128.741 46.5678L128.809 46.8818L128.848 47.1512C128.864 47.2542 128.894 47.3545 128.938 47.4488L128.959 47.4938C129.022 47.6272 129.117 47.7424 129.237 47.8288Z" fill="#FBF9E9"/>
<path d="M126.71 56.2535L126.735 56.2716C126.825 56.3368 126.928 56.3807 127.038 56.4L127.068 56.4053C127.147 56.4193 127.229 56.4168 127.307 56.3981C127.389 56.3785 127.466 56.3414 127.532 56.2896L127.636 56.2084C127.695 56.1627 127.763 56.1311 127.836 56.1163C128.029 56.0768 128.178 55.9233 128.212 55.7292L128.24 55.5718L128.343 55.1233C128.378 54.9717 128.483 54.846 128.626 54.7852C128.949 54.648 129.024 54.2241 128.768 53.9844L128.589 53.8172C128.566 53.7958 128.542 53.7761 128.516 53.7583L128.442 53.7065C128.129 53.4896 127.754 53.3826 127.374 53.4024L127.038 53.4199C126.766 53.4341 126.512 53.5632 126.341 53.7753L126.036 54.1512C125.888 54.3338 125.908 54.5998 126.08 54.7592C126.148 54.8214 126.194 54.903 126.214 54.9926L126.282 55.3066L126.321 55.5759C126.336 55.679 126.366 55.7793 126.411 55.8736L126.432 55.9186C126.495 56.0519 126.59 56.1672 126.71 56.2535Z" fill="#FBF9E9"/>
<path d="M124.182 50.3564L124.207 50.3744C124.297 50.4396 124.401 50.4835 124.511 50.5028L124.541 50.5081C124.62 50.5221 124.701 50.5196 124.78 50.5009C124.862 50.4813 124.938 50.4443 125.005 50.3924L125.109 50.3112C125.167 50.2655 125.235 50.234 125.308 50.2191C125.501 50.1796 125.651 50.0261 125.685 49.832L125.713 49.6746L125.815 49.2261C125.85 49.0746 125.956 48.9488 126.099 48.888C126.421 48.7508 126.497 48.327 126.241 48.0872L126.062 47.92C126.039 47.8986 126.015 47.8789 125.989 47.8611L125.915 47.8093C125.602 47.5924 125.226 47.4854 124.846 47.5052L124.511 47.5227C124.238 47.5369 123.985 47.6661 123.813 47.8781L123.509 48.254C123.361 48.4367 123.38 48.7027 123.553 48.862C123.62 48.9243 123.667 49.0058 123.686 49.0954L123.754 49.4094L123.794 49.6788C123.809 49.7818 123.839 49.8821 123.883 49.9764L123.905 50.0214C123.967 50.1548 124.063 50.27 124.182 50.3564Z" fill="#FBF9E9"/>
<path d="M132.608 52.8831L132.633 52.9012C132.723 52.9663 132.827 53.0102 132.936 53.0295L132.967 53.0349C133.046 53.0489 133.127 53.0464 133.206 53.0277C133.288 53.008 133.364 52.971 133.431 52.9191L133.534 52.838C133.593 52.7923 133.661 52.7607 133.734 52.7459C133.927 52.7064 134.076 52.5529 134.111 52.3588L134.138 52.2014L134.241 51.7529C134.276 51.6013 134.381 51.4756 134.524 51.4148C134.847 51.2776 134.922 50.8537 134.666 50.614L134.488 50.4468C134.465 50.4254 134.441 50.4057 134.415 50.3878L134.34 50.3361C134.028 50.1191 133.652 50.0122 133.272 50.032L132.937 50.0494C132.664 50.0636 132.411 50.1928 132.239 50.4049L131.935 50.7808C131.787 50.9634 131.806 51.2294 131.979 51.3888C132.046 51.451 132.093 51.5325 132.112 51.6222L132.18 51.9361L132.22 52.2055C132.235 52.3086 132.265 52.4089 132.309 52.5032L132.33 52.5482C132.393 52.6815 132.489 52.7968 132.608 52.8831Z" fill="#FBF9E9"/>
<path d="M121.655 65.5203L121.68 65.5384C121.77 65.6036 121.874 65.6474 121.983 65.6667L122.014 65.6721C122.093 65.6861 122.174 65.6836 122.252 65.6649C122.334 65.6452 122.411 65.6082 122.478 65.5563L122.581 65.4752C122.64 65.4295 122.708 65.3979 122.781 65.3831C122.974 65.3436 123.123 65.1901 123.158 64.996L123.185 64.8386L123.288 64.3901C123.323 64.2385 123.428 64.1128 123.571 64.052C123.894 63.9148 123.969 63.4909 123.713 63.2512L123.535 63.084C123.512 63.0626 123.487 63.0429 123.462 63.025L123.387 62.9733C123.075 62.7563 122.699 62.6494 122.319 62.6692L121.984 62.6866C121.711 62.7008 121.458 62.83 121.286 63.0421L120.982 63.418C120.834 63.6006 120.853 63.8666 121.026 64.026C121.093 64.0882 121.14 64.1697 121.159 64.2594L121.227 64.5733L121.266 64.8427C121.282 64.9458 121.312 65.0461 121.356 65.1404L121.377 65.1854C121.44 65.3187 121.535 65.434 121.655 65.5203Z" fill="#FBF9E9"/>
<path d="M132.608 41.9316L132.633 41.9496C132.723 42.0148 132.827 42.0587 132.936 42.078L132.967 42.0833C133.046 42.0973 133.127 42.0948 133.206 42.0761C133.288 42.0565 133.364 42.0195 133.431 41.9676L133.534 41.8864C133.593 41.8407 133.661 41.8092 133.734 41.7943C133.927 41.7548 134.076 41.6013 134.111 41.4072L134.138 41.2498L134.241 40.8013C134.276 40.6498 134.381 40.524 134.524 40.4632C134.847 40.326 134.922 39.9022 134.666 39.6624L134.488 39.4952C134.465 39.4738 134.441 39.4541 134.415 39.4363L134.34 39.3845C134.028 39.1676 133.652 39.0606 133.272 39.0804L132.937 39.0979C132.664 39.1121 132.411 39.2413 132.239 39.4533L131.935 39.8292C131.787 40.0119 131.806 40.2779 131.979 40.4372C132.046 40.4995 132.093 40.581 132.112 40.6706L132.18 40.9846L132.22 41.254C132.235 41.357 132.265 41.4573 132.309 41.5516L132.33 41.5966C132.393 41.73 132.489 41.8452 132.608 41.9316Z" fill="#FBF9E9"/>
<path d="M137.867 58.2326L137.865 58.265C137.849 58.4991 137.874 58.73 137.938 58.9459L137.961 59.0247C138.003 59.1674 138.068 59.2991 138.153 59.4139C138.252 59.5484 138.377 59.6575 138.521 59.735L138.696 59.8301C138.802 59.8875 138.894 59.97 138.964 60.0721C139.182 60.3866 139.577 60.4912 139.941 60.3308L140.053 60.2814L140.722 60.0354C140.971 59.9437 141.234 59.996 141.416 60.1733C141.833 60.5823 142.55 60.2668 142.659 59.6261L142.749 59.0925L142.767 58.7469C142.805 58.012 142.658 57.2992 142.343 56.6848L141.896 55.8145C141.72 55.473 141.42 55.2347 141.061 55.1521L140.284 54.9737C139.881 54.8811 139.46 55.2025 139.385 55.6592C139.359 55.8186 139.288 55.97 139.182 56.0919L138.809 56.5217L138.507 56.8234C138.357 56.9733 138.229 57.1467 138.126 57.3366C137.977 57.6152 137.888 57.9226 137.867 58.2326Z" fill="#FBF9E9"/>
<path d="M124.388 61.6022L124.386 61.6346C124.371 61.8687 124.395 62.0996 124.459 62.3155L124.483 62.3942C124.525 62.537 124.59 62.6686 124.675 62.7835C124.774 62.918 124.899 63.0271 125.042 63.1046L125.218 63.1997C125.324 63.2571 125.415 63.3395 125.486 63.4416C125.704 63.7562 126.099 63.8608 126.463 63.7004L126.575 63.651L127.244 63.405C127.493 63.3133 127.756 63.3655 127.937 63.5429C128.355 63.9519 129.072 63.6363 129.18 62.9957L129.27 62.4621L129.288 62.1165C129.326 61.3815 129.179 60.6688 128.864 60.0544L128.417 59.1841C128.242 58.8425 127.942 58.6043 127.582 58.5217L126.806 58.3432C126.403 58.2507 125.981 58.5721 125.907 59.0288C125.881 59.1882 125.81 59.3396 125.704 59.4615L125.331 59.8913L125.029 60.193C124.879 60.3429 124.75 60.5162 124.648 60.7061C124.498 60.9848 124.409 61.2921 124.388 61.6022Z" fill="#FBF9E9"/>
<path d="M131.127 51.4926L131.125 51.525C131.109 51.7591 131.134 51.99 131.198 52.2059L131.221 52.2847C131.263 52.4274 131.328 52.559 131.413 52.6739C131.512 52.8084 131.637 52.9175 131.78 52.995L131.956 53.0901C132.062 53.1475 132.154 53.23 132.224 53.3321C132.442 53.6466 132.837 53.7512 133.201 53.5908L133.313 53.5414L133.982 53.2954C134.231 53.2037 134.494 53.256 134.675 53.4333C135.093 53.8423 135.81 53.5268 135.918 52.8861L136.009 52.3525L136.026 52.0069C136.064 51.272 135.918 50.5592 135.602 49.9448L135.156 49.0745C134.98 48.733 134.68 48.4947 134.32 48.4121L133.544 48.2337C133.141 48.1411 132.72 48.4625 132.645 48.9192C132.619 49.0786 132.548 49.23 132.442 49.3519L132.069 49.7817L131.767 50.0834C131.617 50.2333 131.488 50.4066 131.386 50.5966C131.236 50.8752 131.147 51.1826 131.127 51.4926Z" fill="#FBF9E9"/>
<path d="M133.654 68.3413L133.652 68.3737C133.636 68.6079 133.661 68.8388 133.725 69.0546L133.748 69.1334C133.79 69.2762 133.855 69.4078 133.94 69.5227C134.04 69.6572 134.164 69.7663 134.308 69.8438L134.483 69.9389C134.589 69.9962 134.681 70.0787 134.752 70.1808C134.969 70.4953 135.364 70.6 135.728 70.4395L135.84 70.3901L136.509 70.1442C136.759 70.0525 137.021 70.1047 137.203 70.282C137.62 70.6911 138.337 70.3755 138.446 69.7349L138.536 69.2012L138.554 68.8557C138.592 68.1207 138.445 67.4079 138.13 66.7935L137.683 65.9232C137.508 65.5817 137.207 65.3435 136.848 65.2608L136.071 65.0824C135.668 64.9899 135.247 65.3113 135.172 65.7679C135.146 65.9274 135.075 66.0788 134.97 66.2007L134.596 66.6305L134.294 66.9321C134.144 67.082 134.016 67.2554 133.914 67.4453C133.764 67.724 133.675 68.0313 133.654 68.3413Z" fill="#FBF9E9"/>
<path d="M107.539 61.6022L107.537 61.6346C107.521 61.8687 107.546 62.0996 107.61 62.3155L107.633 62.3942C107.675 62.537 107.74 62.6686 107.825 62.7835C107.924 62.918 108.049 63.0271 108.192 63.1046L108.368 63.1997C108.474 63.2571 108.566 63.3395 108.636 63.4416C108.854 63.7562 109.249 63.8608 109.613 63.7004L109.725 63.651L110.394 63.405C110.643 63.3133 110.906 63.3655 111.087 63.5429C111.505 63.9519 112.222 63.6363 112.33 62.9957L112.421 62.4621L112.439 62.1165C112.476 61.3815 112.33 60.6688 112.014 60.0544L111.568 59.1841C111.392 58.8425 111.092 58.6043 110.732 58.5217L109.956 58.3432C109.553 58.2507 109.132 58.5721 109.057 59.0288C109.031 59.1882 108.96 59.3396 108.854 59.4615L108.481 59.8913L108.179 60.193C108.029 60.3429 107.9 60.5162 107.798 60.7061C107.649 60.9848 107.56 61.2921 107.539 61.6022Z" fill="#FBF9E9"/>
<path d="M148.818 57.3898L148.816 57.4222C148.8 57.6563 148.825 57.8872 148.889 58.1031L148.912 58.1818C148.954 58.3246 149.019 58.4562 149.104 58.5711C149.204 58.7056 149.328 58.8147 149.472 58.8922L149.647 58.9873C149.754 59.0447 149.845 59.1271 149.916 59.2292C150.134 59.5438 150.528 59.6484 150.892 59.488L151.004 59.4386L151.673 59.1926C151.923 59.1009 152.186 59.1531 152.367 59.3305C152.785 59.7395 153.501 59.4239 153.61 58.7833L153.7 58.2496L153.718 57.9041C153.756 57.1691 153.609 56.4564 153.294 55.842L152.847 54.9717C152.672 54.6301 152.371 54.3919 152.012 54.3093L151.235 54.1308C150.832 54.0383 150.411 54.3597 150.336 54.8164C150.31 54.9758 150.239 55.1272 150.134 55.2491L149.76 55.6789L149.458 55.9806C149.308 56.1305 149.18 56.3038 149.078 56.4937C148.928 56.7724 148.839 57.0797 148.818 57.3898Z" fill="#FBF9E9"/>
<path d="M97.9424 49.2253L97.9412 49.2445C97.9328 49.375 97.9467 49.5037 97.9823 49.624L97.9953 49.6682C98.0188 49.7476 98.0548 49.8208 98.1019 49.8848C98.1571 49.96 98.2266 50.0211 98.3063 50.0646L98.4035 50.1177C98.4622 50.1497 98.5127 50.1956 98.5519 50.2524C98.673 50.428 98.8931 50.4866 99.0959 50.3971L99.1553 50.3709L99.5251 50.2352C99.6635 50.1844 99.8092 50.2136 99.9094 50.3123C100.141 50.5401 100.539 50.3648 100.598 50.0092L100.647 49.7129L100.657 49.5194C100.677 49.1108 100.595 48.7146 100.421 48.3727L100.17 47.8829C100.073 47.6944 99.9082 47.5627 99.7102 47.5165L99.2798 47.4159C99.0561 47.3636 98.8215 47.5425 98.7807 47.7965C98.7665 47.8848 98.7274 47.9688 98.6689 48.0365L98.4624 48.2753L98.2962 48.4422C98.2128 48.5259 98.1414 48.6227 98.0849 48.7286C98.0023 48.8832 97.9535 49.0536 97.9424 49.2253Z" fill="#FBF9E9"/>
<path d="M90.3604 50.9101L90.3591 50.9293C90.3507 51.0598 90.3647 51.1885 90.4002 51.3088L90.4133 51.353C90.4368 51.4324 90.4728 51.5056 90.5198 51.5696C90.5751 51.6448 90.6446 51.7059 90.7243 51.7494L90.8214 51.8025C90.8801 51.8345 90.9307 51.8804 90.9698 51.9371C91.0909 52.1128 91.3111 52.1714 91.5139 52.0819L91.5733 52.0557L91.9431 51.9199C92.0814 51.8691 92.2272 51.8984 92.3274 51.9971C92.5586 52.2249 92.9568 52.0496 93.016 51.6939L93.0654 51.3977L93.0749 51.2042C93.0951 50.7956 93.0135 50.3994 92.8385 50.0575L92.5878 49.5676C92.4914 49.3792 92.3262 49.2475 92.1282 49.2012L91.6978 49.1007C91.474 49.0484 91.2394 49.2273 91.1986 49.4813C91.1844 49.5696 91.1453 49.6536 91.0868 49.7212L90.8804 49.9601L90.7141 50.127C90.6308 50.2107 90.5594 50.3074 90.5028 50.4134C90.4203 50.568 90.3715 50.7384 90.3604 50.9101Z" fill="#FBF9E9"/>
<path d="M93.7315 45.0129L93.7302 45.0321C93.7218 45.1626 93.7358 45.2913 93.7713 45.4116L93.7844 45.4558C93.8079 45.5352 93.8439 45.6084 93.8909 45.6724C93.9462 45.7476 94.0156 45.8087 94.0954 45.8522L94.1925 45.9053C94.2512 45.9373 94.3018 45.9832 94.3409 46.04C94.462 46.2156 94.6822 46.2742 94.885 46.1847L94.9444 46.1585L95.3142 46.0228C95.4525 45.972 95.5983 46.0012 95.6985 46.0999C95.9297 46.3277 96.3279 46.1524 96.3871 45.7968L96.4364 45.5005L96.446 45.307C96.4662 44.8984 96.3846 44.5022 96.2096 44.1603L95.9589 43.6705C95.8625 43.482 95.6973 43.3503 95.4993 43.3041L95.0689 43.2035C94.8451 43.1512 94.6105 43.3301 94.5697 43.5841C94.5555 43.6724 94.5164 43.7564 94.4579 43.8241L94.2515 44.0629L94.0852 44.2298C94.0019 44.3135 93.9305 44.4103 93.8739 44.5162C93.7914 44.6708 93.7425 44.8412 93.7315 45.0129Z" fill="#FBF9E9"/>
<path d="M95.4151 54.2797L95.4138 54.2989C95.4054 54.4294 95.4193 54.5581 95.4549 54.6784L95.468 54.7226C95.4915 54.802 95.5275 54.8752 95.5745 54.9392C95.6298 55.0144 95.6992 55.0755 95.779 55.119L95.8761 55.1721C95.9348 55.2041 95.9854 55.25 96.0245 55.3067C96.1456 55.4824 96.3658 55.541 96.5686 55.4515L96.628 55.4253L96.9978 55.2895C97.1361 55.2387 97.2819 55.268 97.382 55.3667C97.6133 55.5944 98.0115 55.4191 98.0707 55.0635L98.12 54.7673L98.1296 54.5737C98.1498 54.1651 98.0681 53.769 97.8932 53.4271L97.6425 52.9372C97.5461 52.7488 97.3809 52.6171 97.1829 52.5708L96.7525 52.4703C96.5287 52.418 96.2941 52.5969 96.2533 52.8509C96.2391 52.9392 96.2 53.0232 96.1415 53.0908L95.9351 53.3297L95.7688 53.4966C95.6855 53.5803 95.6141 53.677 95.5575 53.783C95.475 53.9376 95.4261 54.108 95.4151 54.2797Z" fill="#FBF9E9"/>
<path d="M81.0948 50.0673L81.0935 50.0865C81.0851 50.217 81.099 50.3457 81.1346 50.466L81.1477 50.5102C81.1711 50.5896 81.2072 50.6628 81.2542 50.7268C81.3095 50.802 81.3789 50.8631 81.4587 50.9066L81.5558 50.9597C81.6145 50.9917 81.6651 51.0376 81.7042 51.0943C81.8253 51.27 82.0455 51.3286 82.2483 51.2391L82.3077 51.2129L82.6775 51.0771C82.8158 51.0263 82.9616 51.0556 83.0617 51.1543C83.293 51.382 83.6912 51.2067 83.7504 50.8511L83.7997 50.5549L83.8093 50.3613C83.8295 49.9527 83.7478 49.5566 83.5729 49.2147L83.3222 48.7248C83.2258 48.5364 83.0605 48.4047 82.8626 48.3584L82.4322 48.2579C82.2084 48.2056 81.9738 48.3845 81.933 48.6385C81.9188 48.7268 81.8797 48.8108 81.8212 48.8784L81.6148 49.1173L81.4485 49.2842C81.3651 49.3679 81.2937 49.4646 81.2372 49.5706C81.1547 49.7252 81.1058 49.8956 81.0948 50.0673Z" fill="#FBF9E9"/>
<path d="M103.841 48.3825L103.84 48.4017C103.831 48.5322 103.845 48.6609 103.881 48.7812L103.894 48.8254C103.917 48.9048 103.953 48.978 104 49.042C104.056 49.1172 104.125 49.1783 104.205 49.2218L104.302 49.2749C104.361 49.3069 104.411 49.3528 104.45 49.4095C104.571 49.5852 104.792 49.6438 104.994 49.5543L105.054 49.5281L105.424 49.3923C105.562 49.3415 105.708 49.3708 105.808 49.4695C106.039 49.6973 106.437 49.522 106.497 49.1663L106.546 48.8701L106.555 48.6766C106.576 48.268 106.494 47.8718 106.319 47.5299L106.068 47.04C105.972 46.8516 105.807 46.7199 105.609 46.6736L105.178 46.5731C104.954 46.5208 104.72 46.6997 104.679 46.9537C104.665 47.042 104.626 47.126 104.567 47.1936L104.361 47.4325L104.195 47.5994C104.111 47.6831 104.04 47.7798 103.983 47.8858C103.901 48.0404 103.852 48.2108 103.841 48.3825Z" fill="#FBF9E9"/>
<path d="M105.792 61.0116L105.786 60.9811C105.764 60.8531 105.764 60.7223 105.787 60.5943L105.796 60.5444C105.81 60.4621 105.838 60.3826 105.877 60.3088C105.924 60.2193 105.988 60.1396 106.065 60.0739L106.153 59.9992C106.206 59.9537 106.25 59.8979 106.281 59.835C106.383 59.6292 106.609 59.5152 106.835 59.5551L106.866 59.5606L107.24 59.6004C107.385 59.6159 107.526 59.5525 107.612 59.4345C107.81 59.1599 108.237 59.235 108.33 59.5607L108.407 59.8323L108.439 60.0322C108.5 60.4238 108.463 60.8246 108.329 61.1977L108.114 61.7958C108.047 61.9829 107.911 62.137 107.733 62.2262L107.318 62.4346C107.098 62.5456 106.83 62.4272 106.764 62.1889C106.742 62.1097 106.696 62.0394 106.631 61.9879L106.402 61.8037L106.228 61.6865C106.132 61.6215 106.047 61.5406 105.978 61.4472C105.883 61.3186 105.819 61.1694 105.792 61.0116Z" fill="#FBF9E9"/>
<path d="M116.875 55.4229L116.133 54.8167C116.05 54.7483 115.984 54.6608 115.941 54.5615L115.11 52.617C114.781 51.8493 114.787 50.9797 115.124 50.2159L115.329 49.7508C115.404 49.581 115.522 49.4334 115.671 49.3224C115.991 49.0838 116.152 48.6878 116.091 48.2933L116.071 48.1647C115.877 46.9135 117.41 46.1568 118.285 47.0722L119.34 48.1764C119.551 48.3972 119.834 48.5353 120.138 48.5657L120.413 48.5932C120.713 48.6234 121.006 48.4854 121.175 48.2344C121.571 47.644 122.48 47.8036 122.651 48.4937L122.794 49.0699C122.945 50.2265 122.827 51.4024 122.449 52.5058L121.912 54.071L121.377 55.3309C121.135 55.8991 120.625 56.3082 120.017 56.4201L119.811 56.4582C119.616 56.494 119.435 56.5823 119.287 56.7135L118.647 57.2816C118.356 57.5399 117.895 57.4103 117.781 57.0381L117.262 55.3445C117.229 55.235 117.071 55.2447 117.051 55.3575C117.036 55.4395 116.939 55.4756 116.875 55.4229Z" fill="#FBF9E9"/>
<path d="M140.193 69.5234L139.721 69.1379C139.638 69.0695 139.572 68.982 139.529 68.8827L138.698 66.9382C138.369 66.1705 138.374 65.3009 138.712 64.5371L138.917 64.072C138.992 63.9022 139.11 63.7546 139.259 63.6436C139.578 63.4049 139.74 63.0089 139.679 62.6145L139.659 62.4858C139.465 61.2346 140.998 60.478 141.873 61.3934L142.928 62.4976C143.139 62.7184 143.422 62.8564 143.726 62.8869L144.001 62.9144C144.301 62.9445 144.594 62.8066 144.763 62.5556C145.159 61.9652 146.068 62.1247 146.239 62.8148L146.382 63.3911L146.443 63.8603C146.554 64.7083 146.467 65.5704 146.19 66.3793L145.692 67.832C145.569 68.1927 145.316 68.4948 144.983 68.6805L144.134 69.154C143.668 69.4138 143.083 69.1579 142.957 68.6394L142.951 68.6115C142.916 68.4667 142.836 68.3364 142.724 68.2388C142.447 67.9988 142.034 68.0061 141.766 68.2557L140.794 69.1604C140.745 69.2068 140.711 69.2682 140.699 69.3353C140.658 69.571 140.378 69.6749 140.193 69.5234Z" fill="#FBF9E9"/>
<path d="M105.884 38.6892L105.447 39.3716C105.379 39.4778 105.287 39.567 105.18 39.6325L103.436 40.6922C102.792 41.0835 101.989 41.1044 101.326 40.7472L100.995 40.5688C100.845 40.4882 100.722 40.3654 100.642 40.2156C100.451 39.8625 100.044 39.6853 99.6564 39.7866L99.4372 39.8438C98.3591 40.1252 97.5446 38.8706 98.2405 38.0004L99.8188 36.0267C100.023 35.771 100.152 35.4632 100.191 35.138L100.241 34.7229C100.279 34.4018 100.155 34.0826 99.9101 33.8716C99.3525 33.3912 99.5108 32.4893 100.199 32.2276L100.771 32.0098L101.094 31.9358C101.889 31.7539 102.72 31.8195 103.477 32.1237L104.317 32.4617C104.806 32.6586 105.192 33.0495 105.383 33.5415L105.75 34.4868C105.933 34.958 105.695 35.4877 105.221 35.6642C105.044 35.7302 104.892 35.8499 104.787 36.0065L104.779 36.0175C104.561 36.3409 104.563 36.765 104.784 37.0862L105.505 38.1311C105.549 38.1944 105.616 38.2376 105.692 38.251C105.894 38.2866 105.994 38.5164 105.884 38.6892Z" fill="#FBF9E9"/>
<path d="M103.264 66.0668L103.259 66.0363C103.237 65.9083 103.237 65.7775 103.26 65.6496L103.268 65.5996C103.283 65.5173 103.31 65.4378 103.349 65.364C103.397 65.2745 103.461 65.1948 103.538 65.1291L103.625 65.0544C103.679 65.0089 103.722 64.9531 103.754 64.8902C103.856 64.6844 104.081 64.5704 104.308 64.6103L104.339 64.6158L104.713 64.6556C104.857 64.6711 104.999 64.6077 105.084 64.4897C105.282 64.2151 105.71 64.2902 105.803 64.6159L105.88 64.8875L105.911 65.0874C105.973 65.479 105.935 65.8798 105.801 66.2529L105.587 66.851C105.52 67.0381 105.383 67.1922 105.206 67.2814L104.791 67.4898C104.57 67.6008 104.303 67.4824 104.237 67.2442C104.215 67.1649 104.168 67.0946 104.104 67.0431L103.874 66.8589L103.701 66.7417C103.605 66.6767 103.52 66.5958 103.451 66.5024C103.356 66.3738 103.292 66.2246 103.264 66.0668Z" fill="#FBF9E9"/>
<path d="M103.264 55.9572L103.259 55.9267C103.237 55.7987 103.237 55.6679 103.26 55.54L103.268 55.49C103.283 55.4077 103.31 55.3282 103.349 55.2544C103.397 55.1649 103.461 55.0852 103.538 55.0195L103.625 54.9448C103.679 54.8993 103.722 54.8435 103.754 54.7806C103.856 54.5748 104.081 54.4608 104.308 54.5007L104.339 54.5062L104.713 54.5461C104.857 54.5615 104.999 54.4982 105.084 54.3802C105.282 54.1055 105.71 54.1806 105.803 54.5063L105.88 54.778L105.911 54.9778C105.973 55.3694 105.935 55.7702 105.801 56.1433L105.587 56.7415C105.52 56.9285 105.383 57.0826 105.206 57.1718L104.791 57.3802C104.57 57.4912 104.303 57.3728 104.237 57.1346C104.215 57.0553 104.168 56.985 104.104 56.9335L103.874 56.7493L103.701 56.6321C103.605 56.5671 103.52 56.4862 103.451 56.3928C103.356 56.2642 103.292 56.115 103.264 55.9572Z" fill="#FBF9E9"/>
<path d="M126.01 59.3268L126.005 59.2963C125.983 59.1683 125.983 59.0375 126.006 58.9095L126.015 58.8596C126.029 58.7773 126.056 58.6978 126.095 58.624C126.143 58.5345 126.207 58.4548 126.284 58.3891L126.372 58.3144C126.425 58.2689 126.469 58.2131 126.5 58.1502C126.602 57.9444 126.827 57.8304 127.054 57.8703L127.085 57.8758L127.459 57.9156C127.603 57.9311 127.745 57.8677 127.83 57.7497C128.028 57.4751 128.456 57.5502 128.549 57.8759L128.626 58.1475L128.658 58.3474C128.719 58.739 128.681 59.1398 128.547 59.5129L128.333 60.111C128.266 60.2981 128.129 60.4522 127.952 60.5414L127.537 60.7498C127.316 60.8608 127.049 60.7424 126.983 60.5041C126.961 60.4249 126.914 60.3546 126.85 60.3031L126.62 60.1189L126.447 60.0017C126.351 59.9367 126.266 59.8558 126.197 59.7624C126.102 59.6338 126.038 59.4846 126.01 59.3268Z" fill="#FBF9E9"/>
<path d="M111.688 59.3268L111.683 59.2963C111.661 59.1683 111.661 59.0375 111.683 58.9095L111.692 58.8596C111.707 58.7773 111.734 58.6978 111.773 58.624C111.821 58.5345 111.884 58.4548 111.962 58.3891L112.049 58.3144C112.103 58.2689 112.146 58.2131 112.177 58.1502C112.28 57.9444 112.505 57.8304 112.731 57.8703L112.763 57.8758L113.136 57.9156C113.281 57.9311 113.423 57.8677 113.508 57.7497C113.706 57.4751 114.134 57.5502 114.226 57.8759L114.304 58.1475L114.335 58.3474C114.397 58.739 114.359 59.1398 114.225 59.5129L114.011 60.111C113.944 60.2981 113.807 60.4522 113.63 60.5414L113.215 60.7498C112.994 60.8608 112.727 60.7424 112.66 60.5041C112.638 60.4249 112.592 60.3546 112.528 60.3031L112.298 60.1189L112.125 60.0017C112.028 59.9367 111.944 59.8558 111.875 59.7624C111.779 59.6338 111.716 59.4846 111.688 59.3268Z" fill="#FBF9E9"/>
</svg>
