<svg width="32" height="32" viewBox="0 0 32 32" fill="none" xmlns="http://www.w3.org/2000/svg">
<path d="M18 9.33333C18.3682 9.33333 18.6666 9.03486 18.6666 8.66667C18.6666 8.29848 18.3682 8 18 8C17.6318 8 17.3333 8.29848 17.3333 8.66667C17.3333 9.03486 17.6318 9.33333 18 9.33333Z" fill="#F6FBDE" stroke="#F6FBDE" stroke-width="2" stroke-linecap="round" stroke-linejoin="round"/>
<path d="M23.3334 14.6673C23.7015 14.6673 24 14.3688 24 14.0007C24 13.6325 23.7015 13.334 23.3334 13.334C22.9652 13.334 22.6667 13.6325 22.6667 14.0007C22.6667 14.3688 22.9652 14.6673 23.3334 14.6673Z" fill="#F6FBDE" stroke="#F6FBDE" stroke-width="2" stroke-linecap="round" stroke-linejoin="round"/>
<path d="M11.3334 10.6673C11.7015 10.6673 12 10.3688 12 10.0007C12 9.63246 11.7015 9.33398 11.3334 9.33398C10.9652 9.33398 10.6667 9.63246 10.6667 10.0007C10.6667 10.3688 10.9652 10.6673 11.3334 10.6673Z" fill="#F6FBDE" stroke="#F6FBDE" stroke-width="2" stroke-linecap="round" stroke-linejoin="round"/>
<path d="M8.66667 17.3333C9.03486 17.3333 9.33333 17.0349 9.33333 16.6667C9.33333 16.2985 9.03486 16 8.66667 16C8.29848 16 8 16.2985 8 16.6667C8 17.0349 8.29848 17.3333 8.66667 17.3333Z" fill="#F6FBDE" stroke="#F6FBDE" stroke-width="2" stroke-linecap="round" stroke-linejoin="round"/>
<path d="M16 2.66602C8.66669 2.66602 2.66669 8.66602 2.66669 15.9993C2.66669 23.3327 8.66669 29.3327 16 29.3327C17.2347 29.3327 18.1974 28.338 18.1974 27.082C18.1974 26.4994 17.9574 25.9687 17.6147 25.582C17.228 25.1967 17.0307 24.7127 17.0307 24.082C17.0256 23.7886 17.0797 23.4971 17.1897 23.225C17.2997 22.9529 17.4633 22.7057 17.6708 22.4982C17.8784 22.2906 18.1255 22.127 18.3977 22.017C18.6698 21.907 18.9612 21.853 19.2547 21.858H21.916C25.984 21.858 29.3227 18.5207 29.3227 14.4527C29.2867 8.01535 23.2814 2.66602 16 2.66602Z" stroke="#F6FBDE" stroke-width="2" stroke-linecap="round" stroke-linejoin="round"/>
</svg>
