<svg width="272" height="122" viewBox="0 0 272 122" fill="none" xmlns="http://www.w3.org/2000/svg">
<g clip-path="url(#clip0_1_350)">
<path d="M73.5794 58.2893L68.1652 76.7528C67.9966 77.3276 67.958 77.9326 68.0522 78.5241C68.1463 79.1156 68.3708 79.6789 68.7095 80.1734C69.0482 80.6679 69.4927 81.0813 70.0109 81.3837C70.5291 81.6862 71.1081 81.8701 71.7061 81.9224L77.6141 82.4383L73.5794 58.2893Z" fill="#6A81B2"/>
<path opacity="0.1" d="M73.5794 58.2893L68.1652 76.7528C67.9966 77.3276 67.958 77.9326 68.0522 78.5241C68.1463 79.1156 68.3708 79.6789 68.7095 80.1734C69.0482 80.6679 69.4927 81.0813 70.0109 81.3837C70.5291 81.6862 71.1081 81.8701 71.7061 81.9224L77.6141 82.4383L73.5794 58.2893Z" fill="#3E352F"/>
<path d="M116.19 49.9873V48.0785C116.19 48.0785 129.095 47.2475 130.49 47.6976C130.49 47.6976 131.063 48.6643 128.162 48.819C128.161 48.819 119.132 50.1749 116.19 49.9873Z" fill="#B17C5D"/>
<path d="M122.721 54.8831L115.479 66.8317L112.069 62.5219L118.733 52.1131C118.496 50.9022 118.783 49.4966 119.63 48.2827C121.113 46.1589 123.743 45.4293 125.505 46.6531C127.266 47.8768 127.494 50.5909 126.011 52.7147C125.163 53.9285 123.941 54.6843 122.721 54.8831H122.721Z" fill="#9F616A"/>
<path d="M77.5703 83.8486L76.7006 86.7996L76.73 89.7915C76.73 89.7915 71.0098 96.655 73.1171 111.5L99.9188 111.164L96.7261 87.2763L77.5703 83.8486Z" fill="#B17C5D"/>
<path d="M80.5882 42.9588C80.5884 41.5573 80.978 40.1832 81.7138 38.9892C82.4495 37.7953 83.5026 36.8281 84.7561 36.1951C86.0095 35.5621 87.4143 35.2881 88.8145 35.4034C90.2146 35.5188 91.5553 36.019 92.6877 36.8486C93.8201 37.6782 94.6998 38.8046 95.2292 40.1029C95.7586 41.4011 95.917 42.8203 95.6868 44.2029C95.4565 45.5855 94.8467 46.8774 93.9249 47.9351C93.0032 48.9928 91.8056 49.775 90.4652 50.1947L89.3319 51.1056L91.3661 58.209L88.9955 59.8821L81.5062 53.6548C81.5062 53.6548 83.1244 51.5986 83.9921 49.2793C82.9452 48.5885 82.0864 47.6496 81.4923 46.5466C80.8983 45.4437 80.5877 44.2109 80.5882 42.9588Z" fill="#9F616A"/>
<path d="M117.226 54.504C114.543 54.4632 109.582 63.0543 109.582 63.0543L105.507 61.6166L97.1263 58.6567L90.7033 56.0195L90.7315 56.2132C90.7062 56.1525 90.6789 56.0911 90.6486 56.0292C89.9734 54.6412 88.0119 53.008 82.4434 53.3318L79.8213 55.3964L79.4643 55.6793C78.3395 55.619 77.2144 55.7938 76.1612 56.1925C74.9685 56.6708 73.7759 57.5632 73.2117 59.2311C72.9195 60.0915 72.9195 61.8703 73.0947 64.1303C73.729 72.3131 76.6855 89.7085 76.6855 89.7085L95.3493 87.2438L96.7263 87.2758C96.7263 87.2758 96.89 85.4008 97.0362 82.9452C97.1268 81.5047 97.2087 79.8686 97.2555 78.294C97.2876 77.1392 97.2964 76.0194 97.2759 75.0337C97.273 74.9725 97.273 74.9111 97.2701 74.8498C97.2145 73.0506 97.0333 71.7463 96.6445 71.6042C96.6445 71.6042 97.8515 71.5721 99.594 71.5078C103.803 71.3504 111.14 70.9975 112.187 70.4289C113.666 69.6269 121.421 58.8626 121.421 58.8626C121.421 58.8626 119.913 54.5466 117.226 54.5028L117.226 54.504Z" fill="#6A81B2"/>
<path d="M96.0135 43.5185C95.4394 40.7163 95.1635 39.2808 93.0771 37.2986C92.5817 37.3685 93.2078 39.9309 90.4776 43.5001C86.5086 48.6887 86.9042 43.9314 85.7305 45.5297C85.4755 45.8767 85.4208 47.1286 85.5044 47.5592C85.8352 49.2611 87.7933 47.5992 85.7305 53.4224C85.4237 53.8752 85.0617 53.7651 84.6003 53.7607C84.5646 53.7607 84.7987 53.7158 83.9222 53.5352C83.5039 53.449 82.9184 53.3473 82.2163 53.2299C74.0615 51.8594 71.1821 41.5944 77.4852 36.2536C78.9193 35.0384 80.3267 34.1175 81.5482 33.6908C85.2285 32.4057 93.6141 33.2411 95.224 37.4117C95.9822 39.3528 96.2531 41.4494 96.013 43.5188L96.0135 43.5185Z" fill="#3E352F"/>
<path d="M79.2183 59.9959C76.0062 59.9959 73.4022 57.3982 73.4022 54.1937C73.4022 50.9893 76.0062 48.3916 79.2183 48.3916C82.4304 48.3916 85.0343 50.9893 85.0343 54.1937C85.0343 57.3982 82.4304 59.9959 79.2183 59.9959Z" fill="#3E352F"/>
<path d="M134.574 50.0052H166.224C166.729 50.0046 167.213 49.8042 167.57 49.4479C167.927 49.0917 168.128 48.6086 168.129 48.1048V34.2647C168.128 33.7609 167.927 33.2778 167.57 32.9215C167.213 32.5653 166.729 32.3648 166.224 32.3643H134.574C134.069 32.3648 133.584 32.5653 133.227 32.9215C132.87 33.2778 132.669 33.7609 132.669 34.2647V48.1048C132.669 48.6086 132.87 49.0917 133.227 49.4479C133.584 49.8042 134.069 50.0046 134.574 50.0052Z" fill="#DBDDDF"/>
<path d="M173.57 45.0585C172.294 45.0585 171.26 44.027 171.26 42.7546C171.26 41.4822 172.294 40.4507 173.57 40.4507C174.845 40.4507 175.879 41.4822 175.879 42.7546C175.879 44.027 174.845 45.0585 173.57 45.0585Z" fill="#DBDDDF"/>
<path d="M172.891 44.3808C173.374 44.3808 173.847 44.2378 174.249 43.9697C174.651 43.7017 174.965 43.3207 175.15 42.8749C175.335 42.4292 175.383 41.9387 175.289 41.4655C175.194 40.9923 174.962 40.5576 174.62 40.2165C174.278 39.8753 173.842 39.643 173.368 39.5488C172.893 39.4547 172.402 39.503 171.955 39.6876C171.508 39.8723 171.126 40.1849 170.857 40.5861C170.589 40.9873 170.445 41.4589 170.445 41.9414C170.445 42.5884 170.703 43.2089 171.161 43.6663C171.62 44.1238 172.242 44.3808 172.891 44.3808ZM172.891 39.773C173.32 39.773 173.741 39.9001 174.098 40.1384C174.456 40.3767 174.734 40.7153 174.899 41.1116C175.063 41.5078 175.106 41.9438 175.022 42.3644C174.939 42.7851 174.732 43.1714 174.428 43.4747C174.124 43.778 173.736 43.9845 173.315 44.0682C172.893 44.1518 172.456 44.1089 172.059 43.9448C171.662 43.7806 171.322 43.5027 171.083 43.1461C170.844 42.7895 170.717 42.3703 170.717 41.9414C170.717 41.3663 170.946 40.8147 171.354 40.4081C171.761 40.0014 172.314 39.773 172.891 39.773Z" fill="#3F3D56"/>
<path d="M155.638 27.5761C154.363 27.5761 153.329 26.5446 153.329 25.2722C153.329 23.9998 154.363 22.9683 155.638 22.9683C156.914 22.9683 157.948 23.9998 157.948 25.2722C157.948 26.5446 156.914 27.5761 155.638 27.5761Z" fill="#6A81B2"/>
<path d="M154.959 26.8984C155.442 26.8984 155.915 26.7553 156.317 26.4873C156.719 26.2192 157.033 25.8382 157.218 25.3925C157.403 24.9468 157.451 24.4563 157.357 23.9831C157.263 23.5099 157.03 23.0752 156.688 22.734C156.346 22.3929 155.91 22.1605 155.436 22.0664C154.961 21.9723 154.47 22.0206 154.023 22.2052C153.576 22.3899 153.194 22.7025 152.926 23.1037C152.657 23.5049 152.513 23.9765 152.513 24.459C152.513 25.1059 152.771 25.7264 153.23 26.1839C153.688 26.6414 154.31 26.8984 154.959 26.8984ZM154.959 22.2905C155.389 22.2905 155.809 22.4177 156.166 22.656C156.524 22.8943 156.802 23.2329 156.967 23.6291C157.131 24.0254 157.174 24.4614 157.091 24.882C157.007 25.3026 156.8 25.689 156.496 25.9923C156.192 26.2955 155.804 26.5021 155.383 26.5857C154.961 26.6694 154.524 26.6265 154.127 26.4623C153.73 26.2982 153.39 26.0203 153.151 25.6637C152.913 25.3071 152.785 24.8878 152.785 24.459C152.785 23.8839 153.014 23.3323 153.422 22.9257C153.829 22.519 154.382 22.2905 154.959 22.2905Z" fill="#3F3D56"/>
<path d="M165.253 36.6758H196.903C197.408 36.6752 197.892 36.4748 198.249 36.1185C198.607 35.7622 198.807 35.2792 198.808 34.7753V20.9353C198.807 20.4314 198.607 19.9483 198.249 19.592C197.892 19.2357 197.408 19.0353 196.903 19.0347H165.253C164.748 19.0353 164.264 19.2357 163.907 19.592C163.549 19.9483 163.349 20.4314 163.348 20.9353V34.7753C163.349 35.2792 163.55 35.7622 163.907 36.1185C164.264 36.4748 164.748 36.6752 165.253 36.6758Z" fill="#6A81B2"/>
<path d="M163.189 35.2562H194.839C195.362 35.2556 195.864 35.048 196.233 34.6789C196.603 34.3097 196.811 33.8093 196.812 33.2874V19.4485C196.811 18.9267 196.603 18.4264 196.233 18.0574C195.863 17.6884 195.362 17.4808 194.839 17.4802H163.189C162.666 17.4808 162.164 17.6884 161.794 18.0574C161.424 18.4264 161.216 18.9267 161.216 19.4485V33.2874C161.216 33.8092 161.424 34.3095 161.794 34.6785C162.164 35.0475 162.666 35.2551 163.189 35.2557V35.2562ZM194.839 17.7506C195.29 17.7511 195.723 17.9301 196.041 18.2485C196.36 18.5668 196.54 18.9984 196.54 19.4485V33.2874C196.54 33.7374 196.36 34.1688 196.041 34.487C195.722 34.8052 195.29 34.9842 194.839 34.9847H163.189C162.738 34.9842 162.305 34.8052 161.986 34.487C161.667 34.1688 161.488 33.7374 161.487 33.2874V19.4485C161.488 18.9985 161.667 18.5671 161.986 18.2489C162.305 17.9307 162.738 17.7517 163.189 17.7512L194.839 17.7506Z" fill="#3F3D56"/>
<path d="M132.509 48.5855H164.159C164.682 48.5849 165.184 48.3773 165.554 48.0083C165.924 47.6393 166.132 47.139 166.132 46.6172V32.7771C166.132 32.2553 165.924 31.755 165.554 31.386C165.184 31.017 164.682 30.8094 164.159 30.8088H132.509C131.986 30.8094 131.485 31.017 131.115 31.386C130.745 31.755 130.537 32.2553 130.536 32.7771V46.6172C130.537 47.139 130.745 47.6393 131.115 48.0083C131.485 48.3773 131.986 48.5849 132.509 48.5855ZM164.159 31.0798C164.61 31.0803 165.043 31.2593 165.362 31.5775C165.681 31.8957 165.86 32.3271 165.861 32.7771V46.6172C165.86 47.0672 165.681 47.4986 165.362 47.8168C165.043 48.135 164.61 48.314 164.159 48.3145H132.509C132.058 48.314 131.626 48.135 131.307 47.8168C130.988 47.4986 130.809 47.0672 130.808 46.6172V32.7771C130.809 32.3271 130.988 31.8957 131.307 31.5775C131.626 31.2593 132.058 31.0803 132.509 31.0798H164.159Z" fill="#3F3D56"/>
<path d="M201.691 16.0566C200.415 16.0566 199.381 15.0251 199.381 13.7527C199.381 12.4802 200.415 11.4487 201.691 11.4487C202.966 11.4487 204 12.4802 204 13.7527C204 15.0251 202.966 16.0566 201.691 16.0566Z" fill="#6A81B2"/>
<path d="M201.011 15.3789C201.495 15.3789 201.968 15.2358 202.37 14.9678C202.772 14.6997 203.085 14.3187 203.27 13.873C203.455 13.4272 203.504 12.9367 203.41 12.4635C203.315 11.9903 203.082 11.5557 202.74 11.2145C202.398 10.8733 201.963 10.641 201.488 10.5469C201.014 10.4527 200.522 10.5011 200.075 10.6857C199.629 10.8703 199.247 11.183 198.978 11.5842C198.709 11.9853 198.566 12.457 198.566 12.9394C198.566 13.5864 198.824 14.2069 199.282 14.6644C199.741 15.1219 200.363 15.3789 201.011 15.3789ZM201.011 10.771C201.441 10.771 201.861 10.8982 202.219 11.1365C202.576 11.3747 202.855 11.7134 203.019 12.1096C203.184 12.5058 203.227 12.9418 203.143 13.3625C203.059 13.7831 202.852 14.1695 202.548 14.4727C202.244 14.776 201.857 14.9825 201.435 15.0662C201.014 15.1499 200.577 15.1069 200.179 14.9428C199.782 14.7787 199.443 14.5007 199.204 14.1441C198.965 13.7876 198.838 13.3683 198.838 12.9394C198.838 12.3643 199.067 11.8128 199.474 11.4061C199.882 10.9995 200.435 10.771 201.011 10.771Z" fill="#3F3D56"/>
</g>
<defs>
<clipPath id="clip0_1_350">
<rect width="136" height="101" fill="white" transform="matrix(-1 0 0 1 204 10.5)"/>
</clipPath>
</defs>
</svg>
