<svg width="272" height="122" viewBox="0 0 272 122" fill="none" xmlns="http://www.w3.org/2000/svg">
<g clip-path="url(#clip0_1_272)">
<g clip-path="url(#clip1_1_272)">
<path d="M123.511 4.03735H58.5848C58.0015 4.03735 57.5286 4.50263 57.5286 5.07657V45.2432C57.5286 45.8171 58.0015 46.2824 58.5848 46.2824H123.511C124.095 46.2824 124.567 45.8171 124.567 45.2432V5.07657C124.567 4.50263 124.095 4.03735 123.511 4.03735Z" fill="#CAD5E2"/>
<path d="M122.122 9.33594H59.9736C59.682 9.33594 59.4456 9.56857 59.4456 9.85555V43.2635C59.4456 43.5505 59.682 43.7831 59.9736 43.7831H122.122C122.414 43.7831 122.65 43.5505 122.65 43.2635V9.85555C122.65 9.56857 122.414 9.33594 122.122 9.33594Z" fill="white"/>
<path d="M123.483 4H58.5562C57.9729 4 57.5 4.46527 57.5 5.03922V6.80231H124.539V5.03922C124.539 4.46527 124.066 4 123.483 4Z" fill="#6A81B2"/>
<path d="M59.6164 5.9521C59.908 5.9521 60.1443 5.71956 60.1443 5.43271C60.1443 5.14587 59.908 4.91333 59.6164 4.91333C59.3249 4.91333 59.0886 5.14587 59.0886 5.43271C59.0886 5.71956 59.3249 5.9521 59.6164 5.9521Z" fill="white"/>
<path d="M61.6201 5.9521C61.9116 5.9521 62.148 5.71956 62.148 5.43271C62.148 5.14587 61.9116 4.91333 61.6201 4.91333C61.3286 4.91333 61.0922 5.14587 61.0922 5.43271C61.0922 5.71956 61.3286 5.9521 61.6201 5.9521Z" fill="white"/>
<path d="M63.6237 5.9521C63.9152 5.9521 64.1516 5.71956 64.1516 5.43271C64.1516 5.14587 63.9152 4.91333 63.6237 4.91333C63.3321 4.91333 63.0958 5.14587 63.0958 5.43271C63.0958 5.71956 63.3321 5.9521 63.6237 5.9521Z" fill="white"/>
<path d="M85.3896 11.7942H62.7809C62.4892 11.7942 62.2528 12.0268 62.2528 12.3138V13.7861C62.2528 14.0731 62.4892 14.3057 62.7809 14.3057H85.3896C85.6813 14.3057 85.9177 14.0731 85.9177 13.7861V12.3138C85.9177 12.0268 85.6813 11.7942 85.3896 11.7942Z" fill="#6A81B2"/>
<path d="M117.024 23.855H63.6868C63.3951 23.855 63.1587 24.0877 63.1587 24.3746C63.1587 24.6616 63.3951 24.8942 63.6868 24.8942H117.024C117.316 24.8942 117.552 24.6616 117.552 24.3746C117.552 24.0877 117.316 23.855 117.024 23.855Z" fill="#CAD5E2"/>
<path d="M117.174 20.1079H63.837C63.5454 20.1079 63.309 20.3405 63.309 20.6275C63.309 20.9145 63.5454 21.1471 63.837 21.1471H117.174C117.466 21.1471 117.702 20.9145 117.702 20.6275C117.702 20.3405 117.466 20.1079 117.174 20.1079Z" fill="#CAD5E2"/>
<path d="M117.024 27.4922H63.6868C63.3951 27.4922 63.1587 27.7249 63.1587 28.0118V28.5314C63.1587 28.8184 63.3951 29.051 63.6868 29.051H117.024C117.316 29.051 117.552 28.8184 117.552 28.5314V28.0118C117.552 27.7249 117.316 27.4922 117.024 27.4922Z" fill="#CAD5E2"/>
<path d="M117.024 31.6492H63.6868C63.3951 31.6492 63.1587 31.8819 63.1587 32.1688C63.1587 32.4558 63.3951 32.6884 63.6868 32.6884H117.024C117.316 32.6884 117.552 32.4558 117.552 32.1688C117.552 31.8819 117.316 31.6492 117.024 31.6492Z" fill="#CAD5E2"/>
<path d="M150.444 31.5393H85.4887C84.9054 31.5393 84.4326 32.0046 84.4326 32.5785V55.9609C84.4326 56.535 84.9054 57.0001 85.4887 57.0001H150.444C151.027 57.0001 151.5 56.535 151.5 55.9609V32.5785C151.5 32.0046 151.027 31.5393 150.444 31.5393Z" fill="#CAD5E2"/>
<path d="M149.388 32.9536H87.073C86.7813 32.9536 86.5449 33.1862 86.5449 33.4732V54.3585C86.5449 54.6455 86.7813 54.8782 87.073 54.8782H149.388C149.679 54.8782 149.916 54.6455 149.916 54.3585V33.4732C149.916 33.1862 149.679 32.9536 149.388 32.9536Z" fill="white"/>
<path d="M101.383 35.1765H90.7182C90.455 35.1765 90.2416 35.3865 90.2416 35.6455C90.2416 35.9044 90.455 36.1144 90.7182 36.1144H101.383C101.646 36.1144 101.86 35.9044 101.86 35.6455C101.86 35.3865 101.646 35.1765 101.383 35.1765Z" fill="#CAD5E2"/>
<path d="M128.844 35.1765H104.449C104.185 35.1765 103.972 35.3865 103.972 35.6455C103.972 35.9044 104.185 36.1144 104.449 36.1144H128.844C129.107 36.1144 129.32 35.9044 129.32 35.6455C129.32 35.3865 129.107 35.1765 128.844 35.1765Z" fill="#CAD5E2"/>
<path d="M145.743 35.1765H131.909C131.646 35.1765 131.433 35.3865 131.433 35.6455C131.433 35.9044 131.646 36.1144 131.909 36.1144H145.743C146.006 36.1144 146.219 35.9044 146.219 35.6455C146.219 35.3865 146.006 35.1765 145.743 35.1765Z" fill="#CAD5E2"/>
<path d="M101.383 37.6731H90.7182C90.455 37.6731 90.2416 37.8831 90.2416 38.142C90.2416 38.401 90.455 38.611 90.7182 38.611H101.383C101.646 38.611 101.86 38.401 101.86 38.142C101.86 37.8831 101.646 37.6731 101.383 37.6731Z" fill="#CAD5E2"/>
<path d="M128.844 37.6731H104.449C104.185 37.6731 103.972 37.8831 103.972 38.142C103.972 38.401 104.185 38.611 104.449 38.611H128.844C129.107 38.611 129.32 38.401 129.32 38.142C129.32 37.8831 129.107 37.6731 128.844 37.6731Z" fill="#CAD5E2"/>
<path d="M145.743 37.6731H131.909C131.646 37.6731 131.433 37.8831 131.433 38.142C131.433 38.401 131.646 38.611 131.909 38.611H145.743C146.006 38.611 146.219 38.401 146.219 38.142C146.219 37.8831 146.006 37.6731 145.743 37.6731Z" fill="#CAD5E2"/>
<path d="M101.383 40.1699H90.7182C90.455 40.1699 90.2416 40.3798 90.2416 40.6389C90.2416 40.8978 90.455 41.1078 90.7182 41.1078H101.383C101.646 41.1078 101.86 40.8978 101.86 40.6389C101.86 40.3798 101.646 40.1699 101.383 40.1699Z" fill="#CAD5E2"/>
<path d="M128.844 40.1699H104.449C104.185 40.1699 103.972 40.3798 103.972 40.6389C103.972 40.8978 104.185 41.1078 104.449 41.1078H128.844C129.107 41.1078 129.32 40.8978 129.32 40.6389C129.32 40.3798 129.107 40.1699 128.844 40.1699Z" fill="#CAD5E2"/>
<path d="M145.743 40.1699H131.909C131.646 40.1699 131.433 40.3798 131.433 40.6389C131.433 40.8978 131.646 41.1078 131.909 41.1078H145.743C146.006 41.1078 146.219 40.8978 146.219 40.6389C146.219 40.3798 146.006 40.1699 145.743 40.1699Z" fill="#CAD5E2"/>
<path d="M101.383 42.6665H90.7182C90.455 42.6665 90.2416 42.8765 90.2416 43.1354C90.2416 43.3944 90.455 43.6044 90.7182 43.6044H101.383C101.646 43.6044 101.86 43.3944 101.86 43.1354C101.86 42.8765 101.646 42.6665 101.383 42.6665Z" fill="#CAD5E2"/>
<path d="M128.844 42.6665H104.449C104.185 42.6665 103.972 42.8765 103.972 43.1354C103.972 43.3944 104.185 43.6044 104.449 43.6044H128.844C129.107 43.6044 129.32 43.3944 129.32 43.1354C129.32 42.8765 129.107 42.6665 128.844 42.6665Z" fill="#CAD5E2"/>
<path d="M145.743 42.6665H131.909C131.646 42.6665 131.433 42.8765 131.433 43.1354C131.433 43.3944 131.646 43.6044 131.909 43.6044H145.743C146.006 43.6044 146.219 43.3944 146.219 43.1354C146.219 42.8765 146.006 42.6665 145.743 42.6665Z" fill="#CAD5E2"/>
<path d="M101.383 45.1633H90.7182C90.455 45.1633 90.2416 45.3733 90.2416 45.6323C90.2416 45.8913 90.455 46.1012 90.7182 46.1012H101.383C101.646 46.1012 101.86 45.8913 101.86 45.6323C101.86 45.3733 101.646 45.1633 101.383 45.1633Z" fill="#CAD5E2"/>
<path d="M128.844 45.1633H104.449C104.185 45.1633 103.972 45.3733 103.972 45.6323C103.972 45.8913 104.185 46.1012 104.449 46.1012H128.844C129.107 46.1012 129.32 45.8913 129.32 45.6323C129.32 45.3733 129.107 45.1633 128.844 45.1633Z" fill="#CAD5E2"/>
<path d="M145.743 45.1633H131.909C131.646 45.1633 131.433 45.3733 131.433 45.6323C131.433 45.8913 131.646 46.1012 131.909 46.1012H145.743C146.006 46.1012 146.219 45.8913 146.219 45.6323C146.219 45.3733 146.006 45.1633 145.743 45.1633Z" fill="#CAD5E2"/>
<path d="M101.383 47.6599H90.7182C90.455 47.6599 90.2416 47.8699 90.2416 48.1289C90.2416 48.3878 90.455 48.5978 90.7182 48.5978H101.383C101.646 48.5978 101.86 48.3878 101.86 48.1289C101.86 47.8699 101.646 47.6599 101.383 47.6599Z" fill="#CAD5E2"/>
<path d="M128.844 47.6599H104.449C104.185 47.6599 103.972 47.8699 103.972 48.1289C103.972 48.3878 104.185 48.5978 104.449 48.5978H128.844C129.107 48.5978 129.32 48.3878 129.32 48.1289C129.32 47.8699 129.107 47.6599 128.844 47.6599Z" fill="#CAD5E2"/>
<path d="M145.743 47.6599H131.909C131.646 47.6599 131.433 47.8699 131.433 48.1289C131.433 48.3878 131.646 48.5978 131.909 48.5978H145.743C146.006 48.5978 146.219 48.3878 146.219 48.1289C146.219 47.8699 146.006 47.6599 145.743 47.6599Z" fill="#CAD5E2"/>
<path d="M101.383 50.1567H90.7182C90.455 50.1567 90.2416 50.3667 90.2416 50.6257C90.2416 50.8847 90.455 51.0946 90.7182 51.0946H101.383C101.646 51.0946 101.86 50.8847 101.86 50.6257C101.86 50.3667 101.646 50.1567 101.383 50.1567Z" fill="#CAD5E2"/>
<path d="M128.844 50.1567H104.449C104.185 50.1567 103.972 50.3667 103.972 50.6257C103.972 50.8847 104.185 51.0946 104.449 51.0946H128.844C129.107 51.0946 129.32 50.8847 129.32 50.6257C129.32 50.3667 129.107 50.1567 128.844 50.1567Z" fill="#CAD5E2"/>
<path d="M145.743 50.1567H131.909C131.646 50.1567 131.433 50.3667 131.433 50.6257C131.433 50.8847 131.646 51.0946 131.909 51.0946H145.743C146.006 51.0946 146.219 50.8847 146.219 50.6257C146.219 50.3667 146.006 50.1567 145.743 50.1567Z" fill="#CAD5E2"/>
<path d="M101.383 52.6533H90.7182C90.455 52.6533 90.2416 52.8632 90.2416 53.1223C90.2416 53.3812 90.455 53.5912 90.7182 53.5912H101.383C101.646 53.5912 101.86 53.3812 101.86 53.1223C101.86 52.8632 101.646 52.6533 101.383 52.6533Z" fill="#CAD5E2"/>
<path d="M128.844 52.6533H104.449C104.185 52.6533 103.972 52.8632 103.972 53.1223C103.972 53.3812 104.185 53.5912 104.449 53.5912H128.844C129.107 53.5912 129.32 53.3812 129.32 53.1223C129.32 52.8632 129.107 52.6533 128.844 52.6533Z" fill="#CAD5E2"/>
<path d="M145.743 52.6533H131.909C131.646 52.6533 131.433 52.8632 131.433 53.1223C131.433 53.3812 131.646 53.5912 131.909 53.5912H145.743C146.006 53.5912 146.219 53.3812 146.219 53.1223C146.219 52.8632 146.006 52.6533 145.743 52.6533Z" fill="#CAD5E2"/>
</g>
<path d="M182.037 35.5186C182.27 36.2668 182.453 37.0293 182.586 37.8014C182.685 38.38 182.742 39.0227 182.409 39.5059C183.679 37.6049 185.006 35.6468 186.936 34.4198C186.543 33.9959 186.244 33.4944 186.058 32.9481C185.873 32.4017 185.805 31.8226 185.859 31.2484C185.87 31.1338 184.275 31.7329 184.153 31.801C183.593 32.1108 183.08 32.4957 182.534 32.8273C182.251 32.9979 181.074 33.4022 181.063 33.646C181.063 33.8029 181.531 34.2833 181.618 34.4484C181.791 34.7915 181.931 35.1498 182.037 35.5186Z" fill="#ED9DA0"/>
<path d="M187.94 107.213C187.627 106.993 187.259 106.862 186.877 106.833C186.494 106.804 186.111 106.879 185.767 107.049C185.146 107.368 184.727 107.973 184.162 108.382C183.191 109.084 181.908 109.14 180.771 109.519C180.469 109.62 180.148 109.77 180.02 110.065C179.978 110.189 179.96 110.32 179.97 110.451C179.98 110.582 180.016 110.709 180.077 110.826C180.267 111.247 180.6 111.589 181.018 111.791C181.528 112.034 182.115 112.044 182.681 112.051L187.592 112.109C189.104 112.098 190.616 112.172 192.12 112.331C192.469 112.375 192.848 112.422 193.157 112.252C193.659 111.979 193.716 111.288 193.678 110.719C193.577 109.277 193.253 107.86 192.718 106.516C192.659 106.367 192.58 106.198 192.414 106.171C192.297 106.166 192.181 106.202 192.088 106.275C190.702 107.093 188.947 107.556 187.474 106.9" fill="#B17C5D"/>
<path d="M190.4 76.0453C189.851 79.2153 190.209 82.4728 190.826 85.6291C190.94 86.2576 191.09 86.8791 191.275 87.4905C191.496 88.1865 191.794 88.8551 192.001 89.5551C192.528 91.3291 192.453 93.226 192.375 95.0778L192.015 103.504C191.984 104.211 191.957 104.934 192.171 105.609C192.257 105.881 192.363 106.223 192.145 106.407C192.06 106.468 191.96 106.506 191.856 106.517C190.874 106.698 189.86 106.547 188.975 106.088L188.877 97.5757C188.847 94.9515 188.816 92.3168 188.41 89.7249C188.087 87.6643 187.527 85.6309 187.49 83.5458C187.452 81.3625 187.99 79.2077 188.539 77.0911C188.657 76.6381 189.087 76.3065 189.441 75.9994C189.565 75.8783 189.715 75.7876 189.88 75.7346C190.045 75.6892 190.298 75.9075 190.4 76.0453Z" fill="#45556C"/>
<path opacity="0.1" d="M190.4 76.0453C189.851 79.2153 190.209 82.4728 190.827 85.6291C190.941 86.2576 191.09 86.8791 191.276 87.4905C191.497 88.1865 191.794 88.8551 192.001 89.5551C192.528 91.3291 192.454 93.226 192.375 95.0778L192.015 103.504C191.985 104.211 191.958 104.934 192.172 105.609C192.258 105.881 192.364 106.223 192.146 106.407C192.06 106.468 191.961 106.506 191.857 106.517C190.875 106.698 189.861 106.547 188.975 106.088L188.878 97.5757C188.848 94.9515 188.816 92.3168 188.41 89.7249C188.087 87.6643 187.528 85.6309 187.491 83.5458C187.453 81.3625 187.99 79.2077 188.539 77.0911C188.657 76.6381 189.088 76.3065 189.442 75.9994C189.565 75.8783 189.716 75.7876 189.881 75.7346C190.046 75.6892 190.298 75.9075 190.4 76.0453Z" fill="#62748E"/>
<path d="M180.097 66.1388C179.894 66.9699 180.325 67.831 180.277 68.6852C180.249 69.2025 180.045 69.7182 180.14 70.2259C180.234 70.7335 180.599 71.1156 180.794 71.581C180.936 71.9696 181.011 72.3792 181.016 72.7927C181.072 73.8135 181.027 74.8396 180.989 75.8564C180.924 77.5622 180.876 79.2775 181.103 80.9683C181.3 82.4331 181.701 83.8636 182.293 85.219C182.472 85.5878 182.62 85.9707 182.736 86.364C182.812 86.7304 182.862 87.1015 182.887 87.4748C183.017 88.6887 183.345 89.8736 183.857 90.9831C184.207 91.7441 184.817 92.3477 185.011 93.1543C185.194 93.9268 185.071 94.7415 185.204 95.5234C185.302 96.1034 185.539 96.6519 185.671 97.225C185.842 97.9659 185.838 98.7343 185.924 99.4908C186.171 101.674 187.169 103.858 186.573 105.975C186.454 106.401 186.269 106.834 186.352 107.268C186.393 107.481 186.498 107.69 186.451 107.902C186.413 108.082 186.273 108.222 186.201 108.393C186.064 108.712 186.21 109.091 186.454 109.338C186.714 109.569 187.017 109.747 187.346 109.863C188.357 110.292 189.404 110.729 190.501 110.72C190.634 110.727 190.767 110.702 190.889 110.649C191.074 110.521 191.208 110.334 191.268 110.119L191.83 108.735C191.898 108.568 191.968 108.371 191.873 108.215C191.807 108.13 191.727 108.056 191.637 107.997C191.183 107.617 191.286 106.905 191.406 106.334C191.715 104.865 191.885 103.371 191.916 101.871C191.977 98.8801 191.482 95.9065 190.988 92.955C190.845 91.9247 190.615 90.9081 190.302 89.916C189.96 88.9335 189.457 87.9883 189.539 86.967C189.627 85.8643 189.339 84.7085 189.539 83.6209C189.739 82.5333 190.056 81.4688 190.26 80.3826C190.525 78.973 190.591 77.536 190.672 76.1058C190.706 75.5217 190.75 74.9186 191.025 74.4C191.185 74.0969 191.418 73.8377 191.598 73.5443C192.062 72.7816 192.136 71.8365 192.579 71.0607C192.789 70.6936 193.078 70.3701 193.232 69.9771C193.34 69.667 193.396 69.3414 193.399 69.0133C193.443 68.1897 193.397 67.3638 193.262 66.5501C190.927 65.3678 188.337 64.77 185.716 64.8084C184.711 64.7963 183.711 64.9527 182.758 65.271C181.861 65.6018 181.044 66.0671 180.097 66.1388Z" fill="#45556C"/>
<path d="M185.722 109.372C185.319 109.872 185.346 110.585 185.088 111.174C184.775 111.887 184.078 112.344 183.417 112.761L179.302 115.353C179.076 115.49 178.835 115.658 178.753 115.911C178.714 116.074 178.721 116.243 178.773 116.402C178.872 116.744 179.055 117.057 179.306 117.31C179.557 117.564 179.868 117.751 180.211 117.854C180.575 117.94 180.95 117.978 181.324 117.967L183.175 117.992C183.738 118.014 184.303 117.992 184.863 117.926C185.377 117.852 185.876 117.706 186.386 117.614C187.315 117.446 188.27 117.462 189.2 117.299C189.77 117.187 190.332 117.043 190.885 116.866C191.557 116.665 192.242 116.457 192.818 116.059C192.977 115.963 193.105 115.825 193.19 115.661C193.262 115.425 193.258 115.173 193.179 114.939L192.295 111.077C192.245 110.756 192.127 110.448 191.949 110.175C191.753 109.916 191.4 109.744 191.094 109.854C190.968 109.911 190.849 109.983 190.739 110.067C190.267 110.344 189.707 110.434 189.171 110.319C188.825 110.258 188.368 110.164 188.09 109.936C187.878 109.762 187.815 109.494 187.636 109.297C187.51 109.168 187.358 109.067 187.19 109.001C187.022 108.934 186.842 108.904 186.662 108.911C186.481 108.918 186.305 108.962 186.143 109.042C185.981 109.122 185.837 109.234 185.722 109.372H185.722Z" fill="#B17C5D"/>
<path d="M183.054 34.9867C185.791 34.9867 188.011 32.7792 188.011 30.0562C188.011 27.3332 185.791 25.1257 183.054 25.1257C180.316 25.1257 178.097 27.3332 178.097 30.0562C178.097 32.7792 180.316 34.9867 183.054 34.9867Z" fill="#ED9DA0"/>
<path d="M178.937 30.6182C179.412 30.3534 179.412 29.5906 179.898 29.3368C180.383 29.083 180.935 29.5238 181.246 29.9687C181.7 30.6202 182.015 31.3572 182.172 32.1343C182.19 32.3611 182.278 32.5768 182.425 32.7512C182.598 32.8811 182.809 32.9497 183.026 32.9463C183.652 33.0082 184.28 33.0645 184.908 33.1154C185.608 33.1714 186.346 33.2168 186.981 32.9175C187.232 32.8061 187.447 32.6287 187.604 32.4045C187.73 32.1892 187.819 31.9551 187.87 31.7112C188.198 30.4707 188.529 29.2154 188.556 27.9326C188.567 27.4032 188.52 26.8546 188.264 26.3906C188.114 26.1177 187.895 25.8803 187.833 25.58C187.8 25.4205 186.291 23.7707 184.562 23.1673C182.833 22.564 181.082 23.1706 180.916 23.1673C180.562 23.1606 180.197 23.0309 179.862 23.1482C179.91 23.2364 179.938 23.3342 179.945 23.4345C179.951 23.5349 179.934 23.6353 179.897 23.7287C179.859 23.822 179.802 23.906 179.728 23.9745C179.654 24.0431 179.566 24.0946 179.469 24.1253L179.635 24.4856C179.464 24.5195 179.306 24.6004 179.179 24.7191C179.052 24.8377 178.96 24.9895 178.915 25.1571C178.733 25.8735 178.778 26.8915 178.822 27.6284C178.844 27.9517 179.161 30.4968 178.937 30.6182Z" fill="#62748E"/>
<path d="M183.46 36.4112C180.97 39.1964 180.336 43.117 179.805 46.8084L179.023 52.2587C178.82 53.6725 178.611 55.0861 178.434 56.504C178.311 57.4742 178.196 58.4596 178.33 59.4283C178.436 60.1924 178.692 60.9294 178.906 61.6649C179.463 63.5943 179.74 65.5929 179.729 67.6002C179.895 67.1144 180.47 66.9179 180.975 66.8086C185.211 65.8944 189.631 66.3639 193.578 68.1474C194.271 66.2165 194.14 64.104 194.334 62.0625C194.608 59.1517 195.553 56.331 195.833 53.4258C195.936 52.3435 195.949 51.2559 195.959 50.1685C195.968 49.3702 195.976 48.5636 195.808 47.7817C195.621 46.9166 195.228 46.11 194.821 45.3254C193.694 43.1443 192.443 41.0293 191.073 38.9909C190.383 37.9651 189.664 36.9594 188.915 35.9738C188.535 35.4743 188.148 34.9803 187.753 34.4918C187.37 34.0183 187.204 33.6076 186.597 33.8914C185.447 34.4254 184.295 35.4765 183.46 36.4112Z" fill="#B17C5D"/>
<path d="M184.886 59.5933C184.279 59.6152 183.671 59.596 183.066 59.536C182.617 59.4924 182.159 59.4268 181.721 59.536C181.531 59.5837 181.353 59.6706 181.199 59.7912C181.141 59.8418 181.1 59.9079 181.08 59.9814C181.06 60.0549 181.062 60.1327 181.086 60.2051C181.11 60.2775 181.154 60.3414 181.214 60.3891C181.274 60.4368 181.346 60.4661 181.422 60.4735L181.891 60.5144C182.189 60.5403 182.499 60.5704 182.731 60.7873C182.826 60.8726 182.887 60.9896 182.901 61.1162C182.93 61.4341 182.653 61.6074 182.404 61.7398C182.051 61.9047 185.733 63.5644 186.64 63.1399C187.728 62.6377 188.473 61.557 188.773 60.4025C188.878 60.0658 188.897 59.7083 188.827 59.3627C188.625 58.5862 187.662 58.4075 187.043 58.7827C186.284 59.2617 185.844 59.5634 184.886 59.5933Z" fill="#ED9DA0"/>
<path opacity="0.1" d="M185.547 44.9818C186.291 46.1251 187.583 46.7691 188.692 47.572C188.962 47.7471 189.197 47.97 189.387 48.2298C189.666 48.6591 189.706 49.205 189.648 49.7105C189.552 50.3753 189.383 51.0277 189.147 51.6567L188.682 53.0368C188.387 53.9126 188.344 55.0419 187.784 55.778C187.64 55.9652 186.445 58.0459 186.451 58.2806C186.464 58.4163 186.51 58.5465 186.587 58.6592C186.95 59.2473 188.304 57.5476 188.981 57.6976C189.182 57.7485 189.392 57.7485 189.593 57.6976C189.872 57.5854 190.115 57.3996 190.295 57.1604C191.252 56.1101 192.209 55.0452 192.901 53.8123C193.576 52.6097 193.776 51.3978 194.148 50.0753C194.301 49.5882 194.408 49.0878 194.467 48.5808C194.52 47.6248 194.319 46.6718 193.884 45.8173C193.474 44.9574 193.113 44.0552 192.532 43.299C191.983 42.5562 191.373 41.86 190.708 41.2176C189.551 40.142 188.136 39.5097 186.588 40.1198C185.495 40.5513 185.085 41.4514 184.988 42.6041C184.904 43.4364 185.101 44.2726 185.547 44.9818Z" fill="#62748E"/>
<path d="M184.423 43.9452C185.383 45.4204 187.051 46.2515 188.48 47.2872C188.827 47.5154 189.13 47.8049 189.373 48.1415C189.733 48.6954 189.784 49.3984 189.71 50.0523C189.615 50.9133 189.338 51.7417 189.061 52.5632L188.462 54.3371C188.082 55.467 187.689 56.6187 186.966 57.5699C186.782 57.8114 186.566 58.0681 186.575 58.3723C186.59 58.547 186.65 58.7149 186.75 58.8594C186.981 59.2351 187.286 59.5608 187.646 59.817C188.006 60.0733 188.414 60.2549 188.847 60.351C189.106 60.4165 189.377 60.4165 189.637 60.351C190.007 60.2431 190.284 59.9416 190.543 59.6591C191.778 58.3026 193.013 56.9299 193.905 55.34C194.776 53.7884 194.18 42.7487 193.43 41.7728C192.719 40.8195 191.931 39.9263 191.072 39.1023C189.58 37.7157 187.754 36.8985 185.757 37.6872C184.346 38.244 183.819 39.4038 183.691 40.8927C183.59 41.9626 183.847 43.0356 184.422 43.9454L184.423 43.9452Z" fill="#E1E2CA"/>
<path d="M206.084 30.7927L205.745 30.6966C205.442 30.6103 205.185 30.4079 205.031 30.1339C204.877 29.8599 204.839 29.5366 204.925 29.2352L205.006 28.9527C205.156 28.3417 205.464 27.7805 205.9 27.3246C206.37 26.8852 206.884 26.4943 207.434 26.1578C207.792 25.9587 208.132 25.7279 208.448 25.4682C208.68 25.2626 208.847 24.9937 208.927 24.6948C209.127 23.9932 208.764 23.5216 207.817 23.253C207.29 23.1099 206.746 23.0395 206.2 23.0439C205.99 23.0439 205.783 22.9955 205.594 22.9025C205.406 22.8094 205.242 22.6743 205.115 22.5078C204.989 22.3413 204.902 22.1478 204.863 21.9427C204.825 21.7376 204.834 21.5264 204.891 21.3258L205.055 20.7543C205.124 20.5079 205.263 20.2869 205.457 20.1181C205.65 19.9492 205.888 19.8397 206.143 19.8029C207.141 19.6779 208.155 19.7625 209.12 20.0512C210.055 20.2998 210.932 20.733 211.696 21.3248C212.349 21.825 212.853 22.4911 213.156 23.2524C213.429 23.9683 213.458 24.7527 213.24 25.4861C213.049 26.2246 212.617 26.8789 212.011 27.3472C211.286 27.8685 210.506 28.3091 209.685 28.6611C209.181 28.8821 208.691 29.134 208.218 29.4152C207.912 29.5994 207.659 29.8586 207.483 30.168C207.363 30.42 207.156 30.6211 206.9 30.7355C206.643 30.8499 206.354 30.8702 206.084 30.7927Z" fill="#90A1B9"/>
<path d="M204.36 36.0918L204.315 36.0791C203.753 35.9195 203.276 35.5447 202.991 35.037C202.706 34.5293 202.636 33.9303 202.796 33.3719C202.955 32.8134 203.332 32.3411 203.842 32.059C204.353 31.7769 204.956 31.7081 205.518 31.8676L205.563 31.8803C206.125 32.0398 206.602 32.4146 206.887 32.9223C207.172 33.43 207.242 34.029 207.082 34.5875C206.923 35.146 206.546 35.6182 206.036 35.9003C205.525 36.1824 204.922 36.2513 204.36 36.0918Z" fill="#90A1B9"/>
</g>
<defs>
<clipPath id="clip0_1_272">
<rect width="187" height="122" fill="white" transform="translate(42.5)"/>
</clipPath>
<clipPath id="clip1_1_272">
<rect width="94" height="53" fill="white" transform="translate(57.5 4)"/>
</clipPath>
</defs>
</svg>
