<svg width="268" height="147" viewBox="0 0 268 147" fill="none" xmlns="http://www.w3.org/2000/svg">
<path d="M237 6.89453H31V96.8945H237V6.89453Z" fill="#F0F0F0" stroke="#CCCCCC" stroke-width="1.47"/>
<path d="M58.3159 16.3547H59.0885L60.9051 20.7919H60.9677L62.7844 16.3547H63.5569V21.7002H62.9514V17.6389H62.8992L61.2287 21.7002H60.6441L58.9736 17.6389H58.9214V21.7002H58.3159V16.3547ZM65.951 21.7942C65.697 21.7942 65.4664 21.7463 65.2594 21.6506C65.0523 21.5532 64.8879 21.4131 64.7661 21.2304C64.6443 21.0459 64.5834 20.8232 64.5834 20.5622C64.5834 20.3325 64.6286 20.1463 64.7191 20.0036C64.8096 19.8592 64.9305 19.7461 65.0819 19.6643C65.2333 19.5825 65.4003 19.5216 65.583 19.4816C65.7675 19.4399 65.9528 19.4068 66.139 19.3824C66.3826 19.3511 66.5801 19.3276 66.7315 19.312C66.8846 19.2946 66.9959 19.2659 67.0656 19.2258C67.1369 19.1858 67.1726 19.1162 67.1726 19.017V18.9961C67.1726 18.7386 67.1021 18.5385 66.9611 18.3958C66.8219 18.2531 66.6105 18.1818 66.3269 18.1818C66.0328 18.1818 65.8023 18.2462 65.6352 18.3749C65.4682 18.5037 65.3507 18.6412 65.2829 18.7873L64.6982 18.5785C64.8026 18.3349 64.9418 18.1453 65.1158 18.0095C65.2916 17.8721 65.483 17.7764 65.69 17.7224C65.8988 17.6667 66.1042 17.6389 66.306 17.6389C66.4348 17.6389 66.5827 17.6546 66.7497 17.6859C66.9185 17.7155 67.0812 17.7772 67.2378 17.8712C67.3962 17.9652 67.5275 18.107 67.6319 18.2966C67.7363 18.4863 67.7885 18.7404 67.7885 19.0588V21.7002H67.1726V21.1573H67.1412C67.0995 21.2443 67.0299 21.3374 66.9324 21.4366C66.835 21.5358 66.7054 21.6202 66.5435 21.6898C66.3817 21.7594 66.1842 21.7942 65.951 21.7942ZM66.045 21.2408C66.2886 21.2408 66.4939 21.193 66.661 21.0973C66.8298 21.0016 66.9568 20.878 67.0421 20.7266C67.1291 20.5752 67.1726 20.416 67.1726 20.249V19.6852C67.1465 19.7165 67.089 19.7452 67.0003 19.7713C66.9133 19.7957 66.8124 19.8175 66.6975 19.8366C66.5844 19.854 66.4739 19.8697 66.366 19.8836C66.2599 19.8958 66.1738 19.9062 66.1076 19.9149C65.9476 19.9358 65.7979 19.9697 65.6587 20.0167C65.5213 20.0619 65.4099 20.1307 65.3246 20.2229C65.2411 20.3134 65.1993 20.4369 65.1993 20.5935C65.1993 20.8075 65.2785 20.9694 65.4369 21.079C65.5969 21.1869 65.7997 21.2408 66.045 21.2408ZM68.9128 21.7002V17.6911H69.5288V21.7002H68.9128ZM69.226 17.0229C69.106 17.0229 69.0025 16.982 68.9154 16.9002C68.8302 16.8185 68.7876 16.7202 68.7876 16.6053C68.7876 16.4905 68.8302 16.3922 68.9154 16.3104C69.0025 16.2286 69.106 16.1877 69.226 16.1877C69.3461 16.1877 69.4488 16.2286 69.534 16.3104C69.621 16.3922 69.6645 16.4905 69.6645 16.6053C69.6645 16.7202 69.621 16.8185 69.534 16.9002C69.4488 16.982 69.3461 17.0229 69.226 17.0229ZM71.273 19.2885V21.7002H70.657V17.6911H71.2521V18.3175H71.3043C71.3983 18.1139 71.541 17.9504 71.7324 17.8268C71.9238 17.7015 72.1709 17.6389 72.4736 17.6389C72.7451 17.6389 72.9826 17.6946 73.1862 17.8059C73.3898 17.9156 73.5481 18.0826 73.6612 18.3071C73.7743 18.5298 73.8309 18.8117 73.8309 19.1528V21.7002H73.2149V19.1945C73.2149 18.8796 73.1331 18.6342 72.9696 18.4585C72.806 18.281 72.5815 18.1922 72.2962 18.1922C72.0995 18.1922 71.9238 18.2349 71.7689 18.3201C71.6158 18.4054 71.4949 18.5298 71.4061 18.6934C71.3174 18.8569 71.273 19.0553 71.273 19.2885ZM76.8149 16.929V16.3547H80.824V16.929H79.1431V21.7002H78.4958V16.929H76.8149ZM81.3231 21.7002V17.6911H81.9182V18.2966H81.96C82.0331 18.0983 82.1653 17.9373 82.3567 17.8138C82.5481 17.6902 82.7639 17.6285 83.004 17.6285C83.0493 17.6285 83.1058 17.6293 83.1737 17.6311C83.2416 17.6328 83.2929 17.6354 83.3277 17.6389V18.2653C83.3068 18.2601 83.259 18.2523 83.1841 18.2418C83.1111 18.2297 83.0336 18.2236 82.9518 18.2236C82.7569 18.2236 82.5829 18.2645 82.4298 18.3462C82.2784 18.4263 82.1584 18.5376 82.0696 18.6803C81.9826 18.8213 81.9391 18.9822 81.9391 19.1632V21.7002H81.3231ZM85.2376 21.7942C84.9836 21.7942 84.753 21.7463 84.5459 21.6506C84.3389 21.5532 84.1744 21.4131 84.0526 21.2304C83.9308 21.0459 83.8699 20.8232 83.8699 20.5622C83.8699 20.3325 83.9152 20.1463 84.0057 20.0036C84.0961 19.8592 84.2171 19.7461 84.3685 19.6643C84.5198 19.5825 84.6869 19.5216 84.8696 19.4816C85.054 19.4399 85.2394 19.4068 85.4255 19.3824C85.6692 19.3511 85.8666 19.3276 86.018 19.312C86.1712 19.2946 86.2825 19.2659 86.3521 19.2258C86.4235 19.1858 86.4591 19.1162 86.4591 19.017V18.9961C86.4591 18.7386 86.3887 18.5385 86.2477 18.3958C86.1085 18.2531 85.8971 18.1818 85.6135 18.1818C85.3194 18.1818 85.0888 18.2462 84.9218 18.3749C84.7548 18.5037 84.6373 18.6412 84.5694 18.7873L83.9848 18.5785C84.0892 18.3349 84.2284 18.1453 84.4024 18.0095C84.5781 17.8721 84.7695 17.7764 84.9766 17.7224C85.1854 17.6667 85.3907 17.6389 85.5926 17.6389C85.7214 17.6389 85.8693 17.6546 86.0363 17.6859C86.2051 17.7155 86.3678 17.7772 86.5244 17.8712C86.6827 17.9652 86.8141 18.107 86.9185 18.2966C87.0229 18.4863 87.0751 18.7404 87.0751 19.0588V21.7002H86.4591V21.1573H86.4278C86.3861 21.2443 86.3165 21.3374 86.219 21.4366C86.1216 21.5358 85.9919 21.6202 85.8301 21.6898C85.6683 21.7594 85.4708 21.7942 85.2376 21.7942ZM85.3316 21.2408C85.5752 21.2408 85.7805 21.193 85.9476 21.0973C86.1163 21.0016 86.2434 20.878 86.3286 20.7266C86.4156 20.5752 86.4591 20.416 86.4591 20.249V19.6852C86.433 19.7165 86.3756 19.7452 86.2869 19.7713C86.1999 19.7957 86.0989 19.8175 85.9841 19.8366C85.871 19.854 85.7605 19.8697 85.6526 19.8836C85.5465 19.8958 85.4603 19.9062 85.3942 19.9149C85.2341 19.9358 85.0845 19.9697 84.9453 20.0167C84.8078 20.0619 84.6965 20.1307 84.6112 20.2229C84.5277 20.3134 84.4859 20.4369 84.4859 20.5935C84.4859 20.8075 84.5651 20.9694 84.7234 21.079C84.8835 21.1869 85.0862 21.2408 85.3316 21.2408ZM89.7133 21.7837C89.3792 21.7837 89.0842 21.6993 88.8284 21.5305C88.5727 21.36 88.3725 21.1199 88.2281 20.8102C88.0837 20.4987 88.0115 20.1307 88.0115 19.7061C88.0115 19.285 88.0837 18.9196 88.2281 18.6099C88.3725 18.3001 88.5735 18.0609 88.8311 17.8921C89.0886 17.7233 89.3861 17.6389 89.7237 17.6389C89.9847 17.6389 90.1909 17.6824 90.3423 17.7694C90.4954 17.8547 90.612 17.9521 90.692 18.0617C90.7738 18.1696 90.8373 18.2584 90.8826 18.328H90.9348V16.3547H91.5508V21.7002H90.9557V21.0842H90.8826C90.8373 21.1573 90.773 21.2495 90.6894 21.3609C90.6059 21.4705 90.4867 21.5688 90.3319 21.6558C90.177 21.7411 89.9708 21.7837 89.7133 21.7837ZM89.7968 21.2304C90.0439 21.2304 90.2527 21.166 90.4232 21.0372C90.5937 20.9067 90.7234 20.7266 90.8121 20.4969C90.9009 20.2655 90.9452 19.9984 90.9452 19.6956C90.9452 19.3964 90.9017 19.1345 90.8147 18.91C90.7277 18.6838 90.599 18.5081 90.4284 18.3828C90.2579 18.2558 90.0474 18.1922 89.7968 18.1922C89.5358 18.1922 89.3183 18.2592 89.1443 18.3932C88.972 18.5255 88.8424 18.7056 88.7554 18.9335C88.6701 19.1597 88.6275 19.4138 88.6275 19.6956C88.6275 19.981 88.671 20.2403 88.758 20.4735C88.8467 20.7049 88.9772 20.8893 89.1495 21.0268C89.3235 21.1625 89.5393 21.2304 89.7968 21.2304ZM94.4453 21.7837C94.0591 21.7837 93.7258 21.6985 93.4457 21.5279C93.1673 21.3557 92.9524 21.1155 92.801 20.8075C92.6513 20.4978 92.5765 20.1376 92.5765 19.727C92.5765 19.3163 92.6513 18.9544 92.801 18.6412C92.9524 18.3262 93.1629 18.0809 93.4326 17.9051C93.7041 17.7276 94.0208 17.6389 94.3827 17.6389C94.5915 17.6389 94.7977 17.6737 95.0013 17.7433C95.2049 17.8129 95.3902 17.926 95.5572 18.0826C95.7243 18.2375 95.8574 18.4428 95.9566 18.6986C96.0558 18.9544 96.1054 19.2693 96.1054 19.6434V19.9045H93.015V19.372H95.4789C95.4789 19.1458 95.4337 18.9439 95.3432 18.7665C95.2545 18.589 95.1274 18.4489 94.9621 18.3462C94.7986 18.2436 94.6054 18.1922 94.3827 18.1922C94.1374 18.1922 93.9251 18.2531 93.7458 18.3749C93.5684 18.495 93.4318 18.6516 93.3361 18.8448C93.2404 19.0379 93.1925 19.245 93.1925 19.466V19.8209C93.1925 20.1237 93.2447 20.3804 93.3491 20.5909C93.4553 20.7997 93.6023 20.9589 93.7902 21.0686C93.9781 21.1764 94.1965 21.2304 94.4453 21.2304C94.6072 21.2304 94.7533 21.2078 94.8838 21.1625C95.0161 21.1155 95.1301 21.0459 95.2258 20.9537C95.3215 20.8597 95.3954 20.7432 95.4476 20.604L96.0427 20.771C95.9801 20.9729 95.8748 21.1503 95.7269 21.3035C95.579 21.4548 95.3963 21.5732 95.1788 21.6584C94.9613 21.742 94.7168 21.7837 94.4453 21.7837ZM99.1931 21.7002V16.3547H102.419V16.929H99.8404V18.7351H102.252V19.3094H99.8404V21.126H102.461V21.7002H99.1931ZM104.118 19.2885V21.7002H103.502V17.6911H104.097V18.3175H104.15C104.244 18.1139 104.386 17.9504 104.578 17.8268C104.769 17.7015 105.016 17.6389 105.319 17.6389C105.59 17.6389 105.828 17.6946 106.032 17.8059C106.235 17.9156 106.393 18.0826 106.507 18.3071C106.62 18.5298 106.676 18.8117 106.676 19.1528V21.7002H106.06V19.1945C106.06 18.8796 105.978 18.6342 105.815 18.4585C105.651 18.281 105.427 18.1922 105.141 18.1922C104.945 18.1922 104.769 18.2349 104.614 18.3201C104.461 18.4054 104.34 18.5298 104.251 18.6934C104.163 18.8569 104.118 19.0553 104.118 19.2885ZM109.545 17.6911V18.2131H107.468V17.6911H109.545ZM108.073 16.7306H108.689V20.5518C108.689 20.7258 108.714 20.8563 108.765 20.9433C108.817 21.0285 108.883 21.086 108.963 21.1155C109.045 21.1434 109.131 21.1573 109.222 21.1573C109.29 21.1573 109.345 21.1538 109.389 21.1469C109.432 21.1382 109.467 21.1312 109.493 21.126L109.618 21.6793C109.577 21.695 109.518 21.7106 109.444 21.7263C109.369 21.7437 109.274 21.7524 109.159 21.7524C108.985 21.7524 108.815 21.715 108.647 21.6402C108.482 21.5653 108.345 21.4514 108.235 21.2982C108.127 21.1451 108.073 20.952 108.073 20.7188V16.7306ZM110.472 21.7002V17.6911H111.067V18.2966H111.109C111.182 18.0983 111.314 17.9373 111.506 17.8138C111.697 17.6902 111.913 17.6285 112.153 17.6285C112.198 17.6285 112.255 17.6293 112.322 17.6311C112.39 17.6328 112.442 17.6354 112.476 17.6389V18.2653C112.456 18.2601 112.408 18.2523 112.333 18.2418C112.26 18.2297 112.182 18.2236 112.101 18.2236C111.906 18.2236 111.732 18.2645 111.579 18.3462C111.427 18.4263 111.307 18.5376 111.218 18.6803C111.131 18.8213 111.088 18.9822 111.088 19.1632V21.7002H110.472ZM113.725 23.2036C113.621 23.2036 113.528 23.1949 113.446 23.1775C113.364 23.1618 113.308 23.1462 113.276 23.1305L113.433 22.5876C113.583 22.6259 113.715 22.6398 113.83 22.6294C113.945 22.6189 114.046 22.5676 114.135 22.4754C114.226 22.3849 114.308 22.2379 114.383 22.0343L114.498 21.7211L113.015 17.6911H113.684L114.79 20.8858H114.832L115.939 17.6911H116.607L114.905 22.2849C114.829 22.4919 114.734 22.6633 114.621 22.799C114.508 22.9365 114.376 23.0383 114.227 23.1044C114.079 23.1705 113.912 23.2036 113.725 23.2036ZM119.571 21.7002V16.3547H122.776V16.929H120.218V18.7351H122.536V19.3094H120.218V21.7002H119.571ZM125.135 21.7837C124.773 21.7837 124.456 21.6976 124.183 21.5253C123.911 21.3531 123.699 21.1121 123.546 20.8023C123.394 20.4926 123.319 20.1307 123.319 19.7165C123.319 19.2989 123.394 18.9344 123.546 18.6229C123.699 18.3114 123.911 18.0696 124.183 17.8973C124.456 17.725 124.773 17.6389 125.135 17.6389C125.497 17.6389 125.814 17.725 126.085 17.8973C126.359 18.0696 126.571 18.3114 126.722 18.6229C126.875 18.9344 126.952 19.2989 126.952 19.7165C126.952 20.1307 126.875 20.4926 126.722 20.8023C126.571 21.1121 126.359 21.3531 126.085 21.5253C125.814 21.6976 125.497 21.7837 125.135 21.7837ZM125.135 21.2304C125.41 21.2304 125.637 21.1599 125.814 21.019C125.991 20.878 126.123 20.6927 126.208 20.463C126.293 20.2333 126.336 19.9845 126.336 19.7165C126.336 19.4486 126.293 19.1989 126.208 18.9674C126.123 18.736 125.991 18.549 125.814 18.4063C125.637 18.2636 125.41 18.1922 125.135 18.1922C124.86 18.1922 124.634 18.2636 124.457 18.4063C124.279 18.549 124.148 18.736 124.063 18.9674C123.977 19.1989 123.935 19.4486 123.935 19.7165C123.935 19.9845 123.977 20.2333 124.063 20.463C124.148 20.6927 124.279 20.878 124.457 21.019C124.634 21.1599 124.86 21.2304 125.135 21.2304ZM127.892 21.7002V17.6911H128.487V18.2966H128.529C128.602 18.0983 128.734 17.9373 128.926 17.8138C129.117 17.6902 129.333 17.6285 129.573 17.6285C129.618 17.6285 129.675 17.6293 129.743 17.6311C129.811 17.6328 129.862 17.6354 129.897 17.6389V18.2653C129.876 18.2601 129.828 18.2523 129.753 18.2418C129.68 18.2297 129.603 18.2236 129.521 18.2236C129.326 18.2236 129.152 18.2645 128.999 18.3462C128.848 18.4263 128.728 18.5376 128.639 18.6803C128.552 18.8213 128.508 18.9822 128.508 19.1632V21.7002H127.892ZM130.627 21.7002V17.6911H131.222V18.3175H131.274C131.358 18.1035 131.493 17.9373 131.679 17.819C131.865 17.6989 132.089 17.6389 132.35 17.6389C132.614 17.6389 132.834 17.6989 133.01 17.819C133.187 17.9373 133.326 18.1035 133.425 18.3175H133.467C133.569 18.1105 133.723 17.946 133.929 17.8242C134.134 17.7007 134.38 17.6389 134.667 17.6389C135.026 17.6389 135.319 17.7511 135.547 17.9756C135.775 18.1983 135.889 18.5455 135.889 19.017V21.7002H135.273V19.017C135.273 18.7212 135.192 18.5098 135.03 18.3828C134.868 18.2558 134.678 18.1922 134.459 18.1922C134.177 18.1922 133.958 18.2775 133.803 18.448C133.649 18.6168 133.571 18.8308 133.571 19.0901V21.7002H132.945V18.9544C132.945 18.7264 132.871 18.5429 132.723 18.4037C132.575 18.2627 132.384 18.1922 132.151 18.1922C131.991 18.1922 131.842 18.2349 131.702 18.3201C131.565 18.4054 131.454 18.5237 131.368 18.6751C131.285 18.8248 131.243 18.9979 131.243 19.1945V21.7002H130.627Z" fill="#999999"/>
<path d="M229.45 32.9805H38.4502V41.9805H229.45V32.9805Z" fill="white" stroke="#DDDDDD" stroke-width="0.735"/>
<path d="M229.45 45.9805H38.4502V53.9805H229.45V45.9805Z" fill="white" stroke="#DDDDDD" stroke-width="0.735"/>
<path d="M229 70.8945H38V78.8945H229V70.8945Z" fill="white" stroke="#DDDDDD" stroke-width="0.735"/>
<path d="M229 82.8945H38V90.8945H229V82.8945Z" fill="white" stroke="#DDDDDD" stroke-width="0.735"/>
<path d="M134.45 57.9805H38.4502V66.9805H134.45V57.9805Z" fill="white" stroke="#DDDDDD" stroke-width="0.735"/>
<path d="M229.45 57.9805H140.45V66.9805H229.45V57.9805Z" fill="white" stroke="#DDDDDD" stroke-width="0.735"/>
<path d="M237 96.8945H31V139.895H237V96.8945Z" fill="#6A81B2" fill-opacity="0.15" stroke="#6A81B2" stroke-width="1.47" stroke-dasharray="2.94 2.94"/>
<path d="M117.742 106.895V102.618H119.429C119.753 102.618 120.03 102.68 120.258 102.804C120.486 102.927 120.66 103.097 120.78 103.316C120.901 103.533 120.962 103.783 120.962 104.067C120.962 104.351 120.9 104.602 120.778 104.819C120.655 105.036 120.478 105.205 120.245 105.326C120.014 105.447 119.735 105.508 119.406 105.508H118.331V104.783H119.26C119.434 104.783 119.577 104.754 119.69 104.694C119.804 104.632 119.889 104.548 119.945 104.441C120.002 104.332 120.03 104.208 120.03 104.067C120.03 103.925 120.002 103.801 119.945 103.696C119.889 103.588 119.804 103.506 119.69 103.447C119.576 103.387 119.431 103.357 119.256 103.357H118.646V106.895H117.742ZM125.479 104.756C125.479 105.223 125.39 105.619 125.214 105.947C125.038 106.274 124.799 106.524 124.495 106.696C124.193 106.867 123.853 106.953 123.476 106.953C123.096 106.953 122.755 106.867 122.453 106.694C122.151 106.521 121.912 106.272 121.737 105.944C121.561 105.617 121.474 105.221 121.474 104.756C121.474 104.29 121.561 103.893 121.737 103.566C121.912 103.239 122.151 102.99 122.453 102.819C122.755 102.646 123.096 102.56 123.476 102.56C123.853 102.56 124.193 102.646 124.495 102.819C124.799 102.99 125.038 103.239 125.214 103.566C125.39 103.893 125.479 104.29 125.479 104.756ZM124.562 104.756C124.562 104.454 124.517 104.2 124.426 103.992C124.337 103.785 124.211 103.627 124.048 103.52C123.885 103.413 123.695 103.359 123.476 103.359C123.258 103.359 123.067 103.413 122.904 103.52C122.741 103.627 122.615 103.785 122.524 103.992C122.435 104.2 122.39 104.454 122.39 104.756C122.39 105.058 122.435 105.313 122.524 105.521C122.615 105.728 122.741 105.885 122.904 105.992C123.067 106.1 123.258 106.153 123.476 106.153C123.695 106.153 123.885 106.1 124.048 105.992C124.211 105.885 124.337 105.728 124.426 105.521C124.517 105.313 124.562 105.058 124.562 104.756ZM128.468 103.848C128.452 103.68 128.38 103.549 128.253 103.455C128.127 103.362 127.955 103.316 127.737 103.316C127.59 103.316 127.465 103.336 127.364 103.378C127.262 103.419 127.184 103.475 127.13 103.547C127.077 103.62 127.05 103.702 127.05 103.794C127.048 103.87 127.064 103.937 127.099 103.994C127.135 104.051 127.184 104.101 127.247 104.142C127.309 104.183 127.382 104.218 127.464 104.249C127.546 104.278 127.634 104.303 127.727 104.324L128.111 104.416C128.298 104.458 128.469 104.513 128.625 104.583C128.781 104.653 128.916 104.738 129.03 104.84C129.144 104.941 129.233 105.061 129.295 105.199C129.359 105.337 129.392 105.495 129.393 105.673C129.392 105.935 129.325 106.162 129.193 106.354C129.062 106.544 128.873 106.693 128.625 106.798C128.378 106.903 128.081 106.955 127.733 106.955C127.388 106.955 127.087 106.902 126.831 106.796C126.576 106.691 126.377 106.534 126.234 106.327C126.092 106.118 126.018 105.86 126.011 105.552H126.886C126.895 105.695 126.936 105.815 127.009 105.911C127.082 106.006 127.181 106.077 127.303 106.126C127.427 106.173 127.567 106.197 127.723 106.197C127.876 106.197 128.009 106.175 128.122 106.13C128.236 106.086 128.324 106.024 128.387 105.944C128.449 105.865 128.481 105.774 128.481 105.671C128.481 105.575 128.452 105.494 128.395 105.429C128.34 105.363 128.257 105.308 128.149 105.262C128.042 105.216 127.91 105.174 127.754 105.136L127.289 105.019C126.928 104.932 126.643 104.795 126.434 104.608C126.226 104.422 126.122 104.17 126.123 103.854C126.122 103.595 126.191 103.369 126.33 103.176C126.471 102.982 126.663 102.831 126.908 102.723C127.153 102.614 127.432 102.56 127.744 102.56C128.061 102.56 128.338 102.614 128.575 102.723C128.813 102.831 128.998 102.982 129.13 103.176C129.262 103.369 129.331 103.593 129.335 103.848H128.468ZM130.906 102.618V106.895H130.001V102.618H130.906ZM131.487 103.364V102.618H134.999V103.364H133.689V106.895H132.796V103.364H131.487ZM136.481 102.618V106.895H135.577V102.618H136.481ZM141.155 104.756C141.155 105.223 141.066 105.619 140.89 105.947C140.714 106.274 140.475 106.524 140.171 106.696C139.869 106.867 139.53 106.953 139.152 106.953C138.772 106.953 138.431 106.867 138.129 106.694C137.827 106.521 137.588 106.272 137.413 105.944C137.238 105.617 137.15 105.221 137.15 104.756C137.15 104.29 137.238 103.893 137.413 103.566C137.588 103.239 137.827 102.99 138.129 102.819C138.431 102.646 138.772 102.56 139.152 102.56C139.53 102.56 139.869 102.646 140.171 102.819C140.475 102.99 140.714 103.239 140.89 103.566C141.066 103.893 141.155 104.29 141.155 104.756ZM140.238 104.756C140.238 104.454 140.193 104.2 140.102 103.992C140.013 103.785 139.887 103.627 139.725 103.52C139.562 103.413 139.371 103.359 139.152 103.359C138.934 103.359 138.743 103.413 138.58 103.52C138.417 103.627 138.291 103.785 138.2 103.992C138.111 104.2 138.067 104.454 138.067 104.756C138.067 105.058 138.111 105.313 138.2 105.521C138.291 105.728 138.417 105.885 138.58 105.992C138.743 106.1 138.934 106.153 139.152 106.153C139.371 106.153 139.562 106.1 139.725 105.992C139.887 105.885 140.013 105.728 140.102 105.521C140.193 105.313 140.238 105.058 140.238 104.756ZM145.401 102.618V106.895H144.621L142.76 104.203H142.729V106.895H141.825V102.618H142.618L144.464 105.308H144.502V102.618H145.401ZM148.468 103.848C148.452 103.68 148.38 103.549 148.253 103.455C148.127 103.362 147.955 103.316 147.737 103.316C147.59 103.316 147.465 103.336 147.364 103.378C147.262 103.419 147.184 103.475 147.13 103.547C147.077 103.62 147.051 103.702 147.051 103.794C147.048 103.87 147.064 103.937 147.099 103.994C147.135 104.051 147.184 104.101 147.247 104.142C147.309 104.183 147.382 104.218 147.464 104.249C147.546 104.278 147.634 104.303 147.727 104.324L148.111 104.416C148.298 104.458 148.469 104.513 148.625 104.583C148.781 104.653 148.916 104.738 149.03 104.84C149.144 104.941 149.233 105.061 149.295 105.199C149.359 105.337 149.392 105.495 149.393 105.673C149.392 105.935 149.325 106.162 149.193 106.354C149.062 106.544 148.873 106.693 148.625 106.798C148.379 106.903 148.081 106.955 147.733 106.955C147.388 106.955 147.087 106.902 146.831 106.796C146.577 106.691 146.377 106.534 146.234 106.327C146.092 106.118 146.018 105.86 146.011 105.552H146.886C146.895 105.695 146.936 105.815 147.009 105.911C147.083 106.006 147.181 106.077 147.303 106.126C147.427 106.173 147.567 106.197 147.723 106.197C147.876 106.197 148.009 106.175 148.122 106.13C148.236 106.086 148.324 106.024 148.387 105.944C148.45 105.865 148.481 105.774 148.481 105.671C148.481 105.575 148.452 105.494 148.395 105.429C148.34 105.363 148.257 105.308 148.149 105.262C148.042 105.216 147.91 105.174 147.754 105.136L147.289 105.019C146.928 104.932 146.643 104.795 146.435 104.608C146.226 104.422 146.122 104.17 146.123 103.854C146.122 103.595 146.191 103.369 146.33 103.176C146.471 102.982 146.664 102.831 146.909 102.723C147.154 102.614 147.432 102.56 147.744 102.56C148.061 102.56 148.338 102.614 148.575 102.723C148.813 102.831 148.998 102.982 149.13 103.176C149.262 103.369 149.331 103.593 149.335 103.848H148.468Z" fill="#6A81B2"/>
<path d="M114.875 111.024C114.875 110.563 114.935 110.14 115.054 109.754C115.175 109.366 115.346 109.01 115.569 108.685H115.949C115.862 108.806 115.779 108.954 115.703 109.131C115.627 109.306 115.561 109.499 115.504 109.71C115.446 109.919 115.401 110.136 115.368 110.36C115.337 110.585 115.321 110.806 115.321 111.024C115.321 111.314 115.349 111.608 115.405 111.906C115.461 112.205 115.536 112.482 115.631 112.737C115.727 112.993 115.832 113.201 115.949 113.362H115.569C115.346 113.037 115.175 112.681 115.054 112.295C114.935 111.908 114.875 111.484 114.875 111.024ZM116.644 112.895V109.153H117.952C118.213 109.153 118.428 109.198 118.597 109.288C118.767 109.377 118.893 109.497 118.975 109.648C119.058 109.798 119.1 109.964 119.1 110.147C119.1 110.307 119.071 110.44 119.014 110.545C118.958 110.65 118.884 110.733 118.791 110.793C118.7 110.854 118.6 110.899 118.493 110.929V110.965C118.608 110.972 118.723 111.013 118.838 111.086C118.954 111.159 119.051 111.264 119.129 111.4C119.207 111.536 119.246 111.703 119.246 111.901C119.246 112.088 119.203 112.257 119.118 112.407C119.033 112.557 118.898 112.675 118.714 112.763C118.53 112.851 118.291 112.895 117.996 112.895H116.644ZM117.097 112.493H117.996C118.292 112.493 118.502 112.435 118.627 112.321C118.752 112.205 118.815 112.065 118.815 111.901C118.815 111.774 118.782 111.657 118.718 111.55C118.653 111.441 118.561 111.355 118.442 111.29C118.323 111.225 118.181 111.192 118.018 111.192H117.097V112.493ZM117.097 110.797H117.938C118.074 110.797 118.197 110.77 118.307 110.717C118.418 110.663 118.505 110.588 118.57 110.49C118.636 110.393 118.669 110.278 118.669 110.147C118.669 109.982 118.611 109.843 118.497 109.728C118.382 109.613 118.201 109.555 117.952 109.555H117.097V110.797ZM121.072 112.953C120.819 112.953 120.596 112.893 120.405 112.772C120.215 112.652 120.067 112.483 119.959 112.266C119.853 112.049 119.8 111.796 119.8 111.506C119.8 111.214 119.853 110.958 119.959 110.74C120.067 110.522 120.215 110.353 120.405 110.233C120.596 110.112 120.819 110.052 121.072 110.052C121.325 110.052 121.547 110.112 121.737 110.233C121.928 110.353 122.077 110.522 122.183 110.74C122.29 110.958 122.344 111.214 122.344 111.506C122.344 111.796 122.29 112.049 122.183 112.266C122.077 112.483 121.928 112.652 121.737 112.772C121.547 112.893 121.325 112.953 121.072 112.953ZM121.072 112.566C121.264 112.566 121.423 112.516 121.547 112.418C121.671 112.319 121.763 112.189 121.823 112.029C121.883 111.868 121.912 111.694 121.912 111.506C121.912 111.318 121.883 111.144 121.823 110.982C121.763 110.82 121.671 110.689 121.547 110.589C121.423 110.489 121.264 110.439 121.072 110.439C120.88 110.439 120.721 110.489 120.597 110.589C120.473 110.689 120.381 110.82 120.321 110.982C120.261 111.144 120.232 111.318 120.232 111.506C120.232 111.694 120.261 111.868 120.321 112.029C120.381 112.189 120.473 112.319 120.597 112.418C120.721 112.516 120.88 112.566 121.072 112.566ZM124.222 110.088V110.454H122.768V110.088H124.222ZM123.192 109.416H123.623V112.091C123.623 112.212 123.641 112.304 123.676 112.365C123.713 112.424 123.759 112.465 123.815 112.485C123.872 112.505 123.932 112.515 123.996 112.515C124.043 112.515 124.082 112.512 124.113 112.507C124.143 112.501 124.168 112.496 124.186 112.493L124.273 112.88C124.244 112.891 124.203 112.902 124.151 112.913C124.099 112.925 124.032 112.931 123.952 112.931C123.83 112.931 123.711 112.905 123.594 112.853C123.478 112.8 123.382 112.72 123.305 112.613C123.23 112.506 123.192 112.371 123.192 112.208V109.416ZM126.091 110.088V110.454H124.637V110.088H126.091ZM125.061 109.416H125.492V112.091C125.492 112.212 125.51 112.304 125.545 112.365C125.582 112.424 125.628 112.465 125.684 112.485C125.741 112.505 125.802 112.515 125.865 112.515C125.912 112.515 125.951 112.512 125.982 112.507C126.012 112.501 126.037 112.496 126.055 112.493L126.143 112.88C126.113 112.891 126.073 112.902 126.02 112.913C125.968 112.925 125.901 112.931 125.821 112.931C125.699 112.931 125.58 112.905 125.463 112.853C125.347 112.8 125.251 112.72 125.174 112.613C125.099 112.506 125.061 112.371 125.061 112.208V109.416ZM127.85 112.953C127.597 112.953 127.374 112.893 127.183 112.772C126.993 112.652 126.844 112.483 126.737 112.266C126.631 112.049 126.578 111.796 126.578 111.506C126.578 111.214 126.631 110.958 126.737 110.74C126.844 110.522 126.993 110.353 127.183 110.233C127.374 110.112 127.597 110.052 127.85 110.052C128.103 110.052 128.325 110.112 128.515 110.233C128.706 110.353 128.855 110.522 128.961 110.74C129.068 110.958 129.122 111.214 129.122 111.506C129.122 111.796 129.068 112.049 128.961 112.266C128.855 112.483 128.706 112.652 128.515 112.772C128.325 112.893 128.103 112.953 127.85 112.953ZM127.85 112.566C128.042 112.566 128.201 112.516 128.325 112.418C128.449 112.319 128.541 112.189 128.601 112.029C128.661 111.868 128.69 111.694 128.69 111.506C128.69 111.318 128.661 111.144 128.601 110.982C128.541 110.82 128.449 110.689 128.325 110.589C128.201 110.489 128.042 110.439 127.85 110.439C127.658 110.439 127.499 110.489 127.375 110.589C127.251 110.689 127.159 110.82 127.099 110.982C127.039 111.144 127.01 111.318 127.01 111.506C127.01 111.694 127.039 111.868 127.099 112.029C127.159 112.189 127.251 112.319 127.375 112.418C127.499 112.516 127.658 112.566 127.85 112.566ZM129.78 112.895V110.088H130.196V110.527H130.233C130.291 110.377 130.386 110.261 130.516 110.178C130.646 110.094 130.803 110.052 130.986 110.052C131.171 110.052 131.325 110.094 131.448 110.178C131.572 110.261 131.669 110.377 131.738 110.527H131.768C131.839 110.382 131.947 110.267 132.091 110.181C132.235 110.095 132.407 110.052 132.608 110.052C132.859 110.052 133.064 110.13 133.224 110.287C133.383 110.443 133.463 110.686 133.463 111.016V112.895H133.032V111.016C133.032 110.809 132.975 110.661 132.862 110.572C132.749 110.483 132.615 110.439 132.462 110.439C132.265 110.439 132.112 110.499 132.003 110.618C131.895 110.736 131.841 110.886 131.841 111.067V112.895H131.402V110.972C131.402 110.813 131.35 110.684 131.247 110.587C131.143 110.488 131.01 110.439 130.847 110.439C130.735 110.439 130.63 110.469 130.533 110.528C130.436 110.588 130.358 110.671 130.299 110.777C130.24 110.882 130.211 111.003 130.211 111.141V112.895H129.78ZM136.912 112.895H135.757V109.153H136.963C137.326 109.153 137.636 109.228 137.895 109.377C138.153 109.526 138.351 109.74 138.488 110.019C138.626 110.296 138.695 110.629 138.695 111.016C138.695 111.406 138.626 111.742 138.487 112.023C138.348 112.303 138.146 112.519 137.88 112.67C137.615 112.82 137.292 112.895 136.912 112.895ZM136.21 112.493H136.882C137.192 112.493 137.448 112.433 137.652 112.314C137.855 112.194 138.007 112.024 138.107 111.804C138.206 111.583 138.256 111.321 138.256 111.016C138.256 110.714 138.207 110.454 138.108 110.236C138.01 110.017 137.862 109.849 137.666 109.732C137.47 109.614 137.226 109.555 136.934 109.555H136.21V112.493ZM139.397 112.895V110.088H139.813V110.512H139.842C139.893 110.373 139.986 110.261 140.12 110.174C140.254 110.088 140.405 110.044 140.573 110.044C140.605 110.044 140.644 110.045 140.692 110.046C140.739 110.047 140.775 110.049 140.8 110.052V110.49C140.785 110.486 140.752 110.481 140.699 110.474C140.648 110.465 140.594 110.461 140.537 110.461C140.4 110.461 140.278 110.49 140.171 110.547C140.065 110.603 139.981 110.681 139.919 110.781C139.858 110.879 139.828 110.992 139.828 111.119V112.895H139.397ZM142.137 112.96C141.959 112.96 141.797 112.927 141.652 112.86C141.508 112.792 141.392 112.694 141.307 112.566C141.222 112.437 141.179 112.281 141.179 112.098C141.179 111.937 141.211 111.807 141.274 111.707C141.338 111.606 141.422 111.527 141.528 111.469C141.634 111.412 141.751 111.37 141.879 111.342C142.008 111.312 142.138 111.289 142.268 111.272C142.439 111.25 142.577 111.234 142.683 111.223C142.79 111.211 142.868 111.19 142.917 111.162C142.967 111.134 142.992 111.086 142.992 111.016V111.002C142.992 110.821 142.942 110.681 142.844 110.581C142.746 110.482 142.598 110.432 142.4 110.432C142.194 110.432 142.033 110.477 141.916 110.567C141.799 110.657 141.716 110.753 141.669 110.856L141.26 110.709C141.333 110.539 141.43 110.406 141.552 110.311C141.675 110.215 141.809 110.148 141.954 110.11C142.1 110.071 142.244 110.052 142.385 110.052C142.475 110.052 142.579 110.063 142.696 110.085C142.814 110.105 142.928 110.148 143.037 110.214C143.148 110.28 143.24 110.379 143.313 110.512C143.386 110.645 143.423 110.823 143.423 111.046V112.895H142.992V112.515H142.97C142.941 112.575 142.892 112.641 142.824 112.71C142.755 112.779 142.665 112.839 142.551 112.887C142.438 112.936 142.3 112.96 142.137 112.96ZM142.202 112.573C142.373 112.573 142.517 112.539 142.634 112.472C142.752 112.405 142.841 112.319 142.9 112.213C142.961 112.107 142.992 111.996 142.992 111.879V111.484C142.973 111.506 142.933 111.526 142.871 111.544C142.81 111.561 142.74 111.577 142.659 111.59C142.58 111.602 142.503 111.613 142.427 111.623C142.353 111.631 142.293 111.639 142.246 111.645C142.134 111.659 142.029 111.683 141.932 111.716C141.836 111.748 141.758 111.796 141.698 111.86C141.64 111.924 141.61 112.01 141.61 112.12C141.61 112.27 141.666 112.383 141.777 112.46C141.889 112.535 142.031 112.573 142.202 112.573ZM144.846 112.895L143.991 110.088H144.444L145.05 112.237H145.08L145.679 110.088H146.139L146.731 112.229H146.76L147.367 110.088H147.82L146.965 112.895H146.541L145.927 110.739H145.883L145.27 112.895H144.846ZM149.471 112.953C149.201 112.953 148.968 112.893 148.772 112.774C148.577 112.653 148.426 112.485 148.32 112.27C148.216 112.053 148.163 111.801 148.163 111.513C148.163 111.226 148.216 110.972 148.32 110.753C148.426 110.533 148.574 110.361 148.762 110.238C148.953 110.114 149.174 110.052 149.428 110.052C149.574 110.052 149.718 110.076 149.861 110.125C150.003 110.173 150.133 110.253 150.25 110.362C150.367 110.471 150.46 110.614 150.529 110.793C150.599 110.972 150.633 111.193 150.633 111.455V111.638H148.47V111.265H150.195C150.195 111.106 150.163 110.965 150.1 110.841C150.038 110.717 149.949 110.619 149.833 110.547C149.719 110.475 149.583 110.439 149.428 110.439C149.256 110.439 149.107 110.482 148.982 110.567C148.857 110.651 148.762 110.761 148.695 110.896C148.628 111.031 148.594 111.176 148.594 111.331V111.579C148.594 111.791 148.631 111.971 148.704 112.118C148.778 112.264 148.881 112.376 149.013 112.452C149.144 112.528 149.297 112.566 149.471 112.566C149.585 112.566 149.687 112.55 149.778 112.518C149.871 112.485 149.951 112.437 150.018 112.372C150.085 112.306 150.136 112.225 150.173 112.127L150.59 112.244C150.546 112.385 150.472 112.51 150.368 112.617C150.265 112.723 150.137 112.806 149.985 112.865C149.833 112.924 149.661 112.953 149.471 112.953ZM151.289 112.895V110.088H151.706V110.512H151.735C151.786 110.373 151.879 110.261 152.013 110.174C152.147 110.088 152.298 110.044 152.466 110.044C152.498 110.044 152.537 110.045 152.585 110.046C152.632 110.047 152.668 110.049 152.692 110.052V110.49C152.678 110.486 152.644 110.481 152.592 110.474C152.541 110.465 152.487 110.461 152.429 110.461C152.293 110.461 152.171 110.49 152.064 110.547C151.958 110.603 151.874 110.681 151.812 110.781C151.751 110.879 151.72 110.992 151.72 111.119V112.895H151.289ZM154.124 111.316C154.124 111.776 154.064 112.2 153.944 112.588C153.824 112.974 153.653 113.329 153.43 113.655H153.05C153.138 113.534 153.219 113.385 153.295 113.209C153.372 113.033 153.439 112.841 153.496 112.631C153.553 112.421 153.598 112.203 153.629 111.979C153.662 111.754 153.679 111.533 153.679 111.316C153.679 111.026 153.651 110.732 153.595 110.433C153.539 110.135 153.463 109.858 153.368 109.602C153.273 109.346 153.167 109.138 153.05 108.977H153.43C153.653 109.303 153.824 109.659 153.944 110.046C154.064 110.432 154.124 110.856 154.124 111.316Z" fill="#6A81B2"/>
<g clip-path="url(#clip0_1_522)">
<rect x="36" y="116.895" width="38" height="4" fill="#CAD5E2"/>
<rect x="85.2" y="116.895" width="18" height="4" fill="#CAD5E2"/>
<rect x="114.4" y="116.895" width="18" height="4" fill="#CAD5E2"/>
<rect x="143.6" y="116.895" width="38" height="4" fill="#CAD5E2"/>
<rect x="192.8" y="116.895" width="18" height="4" fill="#CAD5E2"/>
<rect x="222" y="116.895" width="14" height="4" fill="#CAD5E2"/>
<rect x="36" y="122.895" width="38" height="4" fill="#CAD5E2"/>
<rect x="85.2" y="122.895" width="18" height="4" fill="#CAD5E2"/>
<rect x="114.4" y="122.895" width="18" height="4" fill="#CAD5E2"/>
<rect x="143.6" y="122.895" width="38" height="4" fill="#CAD5E2"/>
<rect x="192.8" y="122.895" width="18" height="4" fill="#CAD5E2"/>
<rect x="222" y="122.895" width="14" height="4" fill="#CAD5E2"/>
<rect x="36" y="128.895" width="38" height="4" fill="#CAD5E2"/>
<rect x="85.2" y="128.895" width="18" height="4" fill="#CAD5E2"/>
<rect x="114.4" y="128.895" width="18" height="4" fill="#CAD5E2"/>
<rect x="143.6" y="128.895" width="38" height="4" fill="#CAD5E2"/>
<rect x="192.8" y="128.895" width="18" height="4" fill="#CAD5E2"/>
<rect x="222" y="128.895" width="14" height="4" fill="#CAD5E2"/>
</g>
<path d="M34 136.895H192H34Z" fill="black"/>
<path d="M34 136.895H192" stroke="#CAD5E2" stroke-width="1.47" stroke-linecap="round"/>
<g clip-path="url(#clip1_1_522)">
<path d="M168 111.895C170.761 111.895 173 109.656 173 106.895C173 104.133 170.761 101.895 168 101.895C165.239 101.895 163 104.133 163 106.895C163 109.656 165.239 111.895 168 111.895Z" fill="#ED9DA0"/>
<path d="M168.523 104.083L168.431 107.452H167.571L167.477 104.083H168.523ZM168.001 108.955C167.846 108.955 167.713 108.901 167.602 108.791C167.491 108.68 167.436 108.547 167.437 108.392C167.436 108.238 167.491 108.107 167.602 107.997C167.713 107.887 167.846 107.833 168.001 107.833C168.15 107.833 168.281 107.887 168.393 107.997C168.506 108.107 168.563 108.238 168.565 108.392C168.563 108.495 168.536 108.59 168.483 108.676C168.431 108.761 168.363 108.829 168.278 108.88C168.194 108.93 168.101 108.955 168.001 108.955Z" fill="white"/>
</g>
<defs>
<clipPath id="clip0_1_522">
<rect width="200" height="18" fill="white" transform="translate(36 116.895)"/>
</clipPath>
<clipPath id="clip1_1_522">
<rect width="10" height="10" fill="white" transform="translate(163 101.895)"/>
</clipPath>
</defs>
</svg>
