<svg width="32" height="32" viewBox="0 0 32 32" fill="none" xmlns="http://www.w3.org/2000/svg">
<path d="M16 6.66706C16.0016 6.13377 15.8965 5.60554 15.6909 5.11346C15.4854 4.62137 15.1835 4.17536 14.803 3.80165C14.4226 3.42795 13.9712 3.13409 13.4755 2.93737C12.9799 2.74064 12.4498 2.64503 11.9167 2.65614C11.3835 2.66726 10.8579 2.78487 10.3708 3.00208C9.88379 3.21929 9.44509 3.5317 9.08053 3.92093C8.71598 4.31017 8.43294 4.76837 8.24807 5.2686C8.06319 5.76882 7.98021 6.30096 8.004 6.83373C7.22027 7.03524 6.49267 7.41246 5.87631 7.93681C5.25994 8.46116 4.77098 9.11889 4.44646 9.86019C4.12193 10.6015 3.97034 11.4069 4.00318 12.2155C4.03602 13.024 4.25242 13.8145 4.636 14.5271C3.96157 15.075 3.43123 15.7794 3.09112 16.579C2.751 17.3786 2.61141 18.2492 2.68448 19.115C2.75756 19.9809 3.04109 20.8158 3.5104 21.5471C3.97972 22.2784 4.62062 22.8839 5.37733 23.3111C5.28389 24.034 5.33965 24.7685 5.54118 25.4691C5.74271 26.1697 6.08573 26.8215 6.54904 27.3843C7.01236 27.9472 7.58614 28.409 8.23496 28.7414C8.88377 29.0738 9.59383 29.2696 10.3213 29.3168C11.0488 29.364 11.7782 29.2616 12.4645 29.0159C13.1508 28.7701 13.7795 28.3863 14.3117 27.8881C14.8439 27.3898 15.2682 26.7878 15.5586 26.1191C15.849 25.4505 15.9992 24.7294 16 24.0004V6.66706Z" stroke="#F0EFE2" stroke-width="2" stroke-linecap="round" stroke-linejoin="round"/>
<path d="M16 6.66706C15.9984 6.13377 16.1035 5.60554 16.3091 5.11346C16.5147 4.62137 16.8165 4.17536 17.197 3.80165C17.5774 3.42795 18.0288 3.13409 18.5245 2.93737C19.0202 2.74064 19.5502 2.64503 20.0834 2.65614C20.6165 2.66726 21.1421 2.78487 21.6292 3.00208C22.1162 3.21929 22.5549 3.5317 22.9195 3.92093C23.284 4.31017 23.5671 4.76837 23.752 5.2686C23.9368 5.76882 24.0198 6.30096 23.996 6.83373C24.7797 7.03524 25.5073 7.41246 26.1237 7.93681C26.7401 8.46116 27.229 9.11889 27.5536 9.86019C27.8781 10.6015 28.0297 11.4069 27.9968 12.2155C27.964 13.024 27.7476 13.8145 27.364 14.5271C28.0384 15.075 28.5688 15.7794 28.9089 16.579C29.249 17.3786 29.3886 18.2492 29.3155 19.115C29.2425 19.9809 28.9589 20.8158 28.4896 21.5471C28.0203 22.2784 27.3794 22.8839 26.6227 23.3111C26.7161 24.034 26.6604 24.7685 26.4588 25.4691C26.2573 26.1697 25.9143 26.8215 25.451 27.3843C24.9877 27.9472 24.4139 28.409 23.7651 28.7414C23.1162 29.0738 22.4062 29.2696 21.6787 29.3168C20.9512 29.364 20.2218 29.2616 19.5355 29.0159C18.8492 28.7701 18.2205 28.3863 17.6883 27.8881C17.1562 27.3898 16.7318 26.7878 16.4414 26.1191C16.151 25.4505 16.0008 24.7294 16 24.0004V6.66706Z" stroke="#F0EFE2" stroke-width="2" stroke-linecap="round" stroke-linejoin="round"/>
<path d="M20 17.3333C18.8806 16.9395 17.9031 16.2227 17.1911 15.2733C16.4791 14.324 16.0646 13.1849 16 12C15.9354 13.1849 15.5209 14.324 14.8089 15.2733C14.0969 16.2227 13.1194 16.9395 12 17.3333" stroke="#F0EFE2" stroke-width="2" stroke-linecap="round" stroke-linejoin="round"/>
<path d="M23.4653 8.66634C23.788 8.10712 23.9706 7.4781 23.9973 6.83301" stroke="#F0EFE2" stroke-width="2" stroke-linecap="round" stroke-linejoin="round"/>
<path d="M8.00403 6.83301C8.03039 7.47799 8.21247 8.107 8.5347 8.66634" stroke="#F0EFE2" stroke-width="2" stroke-linecap="round" stroke-linejoin="round"/>
<path d="M4.63599 14.528C4.87991 14.3293 5.14092 14.1527 5.41599 14" stroke="#F0EFE2" stroke-width="2" stroke-linecap="round" stroke-linejoin="round"/>
<path d="M26.584 14C26.859 14.1527 27.1201 14.3293 27.364 14.528" stroke="#F0EFE2" stroke-width="2" stroke-linecap="round" stroke-linejoin="round"/>
<path d="M7.99999 23.9995C7.08109 24 6.17768 23.763 5.37732 23.3115" stroke="#F0EFE2" stroke-width="2" stroke-linecap="round" stroke-linejoin="round"/>
<path d="M26.6227 23.3115C25.8223 23.763 24.9189 24 24 23.9995" stroke="#F0EFE2" stroke-width="2" stroke-linecap="round" stroke-linejoin="round"/>
</svg>
