<svg width="46" height="12" viewBox="0 0 46 12" fill="none" xmlns="http://www.w3.org/2000/svg">
<path d="M0 3C0 1.34315 1.34315 0 3 0C4.65685 0 6 1.34315 6 3V9C6 10.6569 4.65685 12 3 12C1.34315 12 0 10.6569 0 9V3Z" fill="#D89396"/>
<path d="M10 3C10 1.34315 11.3431 0 13 0C14.6569 0 16 1.34315 16 3V9C16 10.6569 14.6569 12 13 12C11.3431 12 10 10.6569 10 9V3Z" fill="#D89396"/>
<path d="M20 3C20 1.34315 21.3431 0 23 0C24.6569 0 26 1.34315 26 3V9C26 10.6569 24.6569 12 23 12C21.3431 12 20 10.6569 20 9V3Z" fill="#E5E7EB"/>
<path d="M30 3C30 1.34315 31.3431 0 33 0C34.6569 0 36 1.34315 36 3V9C36 10.6569 34.6569 12 33 12C31.3431 12 30 10.6569 30 9V3Z" fill="#E5E7EB"/>
<path d="M40 3C40 1.34315 41.3431 0 43 0C44.6569 0 46 1.34315 46 3V9C46 10.6569 44.6569 12 43 12C41.3431 12 40 10.6569 40 9V3Z" fill="#E5E7EB"/>
</svg>
