<svg width="1024" height="606" viewBox="0 0 1024 606" fill="none" xmlns="http://www.w3.org/2000/svg">
<g clip-path="url(#clip0_1_12)">
<mask id="mask0_1_12" style="mask-type:luminance" maskUnits="userSpaceOnUse" x="608" y="361" width="182" height="134">
<path d="M789.795 366.088C789.795 363.327 787.557 361.088 784.795 361.088H613.066C610.305 361.088 608.066 363.327 608.066 366.088V489.765C608.066 492.527 610.305 494.765 613.066 494.765H784.795C787.557 494.765 789.795 492.527 789.795 489.765V366.088Z" fill="white"/>
</mask>
<g mask="url(#mask0_1_12)">
<path d="M789.795 366.088C789.795 363.327 787.557 361.088 784.795 361.088H613.066C610.305 361.088 608.066 363.327 608.066 366.088V489.765C608.066 492.527 610.305 494.765 613.066 494.765H784.795C787.557 494.765 789.795 492.527 789.795 489.765V366.088Z" fill="#6A81B2"/>
<path d="M786.548 361.088H611.313C610.452 361.088 609.626 361.381 609.017 361.901C608.408 362.421 608.066 363.128 608.066 363.864V491.99C608.066 492.726 608.408 493.431 609.017 493.952C609.626 494.472 610.452 494.765 611.313 494.765H786.548C787.41 494.765 788.235 494.472 788.844 493.952C789.453 493.431 789.795 492.726 789.795 491.99V363.864C789.795 363.128 789.453 362.421 788.844 361.901C788.235 361.381 787.41 361.088 786.548 361.088ZM788.497 491.99C788.497 492.206 788.447 492.423 788.349 492.626C788.25 492.828 788.107 493.013 787.926 493.166C787.745 493.321 787.53 493.443 787.293 493.527C787.057 493.612 786.805 493.654 786.548 493.654H611.313C611.057 493.654 610.804 493.612 610.568 493.527C610.331 493.443 610.116 493.321 609.936 493.166C609.754 493.013 609.611 492.828 609.512 492.626C609.416 492.423 609.364 492.206 609.364 491.99V363.864C609.364 363.421 609.57 362.998 609.936 362.685C610.301 362.375 610.796 362.198 611.313 362.198H786.548C787.065 362.198 787.561 362.375 787.926 362.685C788.291 362.998 788.497 363.421 788.497 363.864V491.99Z" fill="#E6E6E6"/>
<path d="M648.4 390.645C648.4 390.842 648.395 391.04 648.384 391.23C648.231 394.113 646.942 396.83 644.785 398.818C642.629 400.806 639.766 401.916 636.791 401.916C633.815 401.916 630.953 400.806 628.796 398.818C626.638 396.83 625.35 394.113 625.196 391.23C625.186 391.039 625.182 390.842 625.182 390.645C625.168 389.156 625.458 387.682 626.035 386.302C626.614 384.924 627.467 383.671 628.546 382.615C629.625 381.559 630.91 380.72 632.325 380.146C633.74 379.574 635.258 379.281 636.791 379.281C638.324 379.281 639.841 379.574 641.256 380.146C642.671 380.72 643.955 381.559 645.033 382.615C646.112 383.671 646.966 384.924 647.544 386.302C648.121 387.682 648.415 389.156 648.4 390.645Z" fill="#8094BD"/>
<path d="M719.2 383.236H656.657C656.307 383.236 655.969 383.433 655.72 383.787C655.472 384.138 655.331 384.616 655.331 385.115C655.331 385.613 655.472 386.09 655.72 386.444C655.969 386.794 656.307 386.992 656.657 386.992H719.2C719.551 386.992 719.889 386.794 720.138 386.444C720.386 386.09 720.525 385.613 720.525 385.115C720.525 384.616 720.386 384.138 720.138 383.787C719.889 383.433 719.551 383.236 719.2 383.236Z" fill="#8094BD"/>
<path d="M717.543 394.112H658.194C657.43 394.122 656.702 394.324 656.167 394.674C655.631 395.026 655.331 395.496 655.331 395.988C655.331 396.478 655.631 396.951 656.167 397.3C656.702 397.652 657.43 397.853 658.194 397.864H717.543C717.932 397.869 718.318 397.824 718.68 397.732C719.041 397.641 719.373 397.504 719.649 397.328C719.926 397.153 720.146 396.944 720.298 396.715C720.448 396.484 720.525 396.238 720.525 395.988C720.525 395.739 720.448 395.491 720.298 395.26C720.146 395.031 719.926 394.822 719.649 394.648C719.373 394.474 719.041 394.336 718.68 394.244C718.318 394.15 717.932 394.108 717.543 394.112Z" fill="#8094BD"/>
<path d="M719.2 404.983H656.657C656.307 404.983 655.969 405.182 655.72 405.534C655.472 405.884 655.331 406.364 655.331 406.862C655.331 407.359 655.472 407.838 655.72 408.19C655.969 408.542 656.307 408.74 656.657 408.74H719.2C719.551 408.74 719.889 408.542 720.138 408.19C720.386 407.838 720.525 407.359 720.525 406.862C720.525 406.364 720.386 405.884 720.138 405.534C719.889 405.182 719.551 404.983 719.2 404.983Z" fill="#8094BD"/>
<path d="M719.2 415.859H656.657C656.307 415.859 655.969 416.068 655.72 416.439C655.472 416.808 655.331 417.312 655.331 417.836C655.331 418.361 655.472 418.864 655.72 419.235C655.969 419.605 656.307 419.814 656.657 419.814H719.2C719.551 419.814 719.889 419.605 720.138 419.235C720.386 418.864 720.525 418.361 720.525 417.836C720.525 417.312 720.386 416.808 720.138 416.439C719.889 416.068 719.551 415.859 719.2 415.859Z" fill="#8094BD"/>
<path d="M719.2 426.933H656.657C656.307 426.933 655.969 427.131 655.72 427.484C655.472 427.834 655.331 428.314 655.331 428.811C655.331 429.309 655.472 429.788 655.72 430.139C655.969 430.492 656.307 430.69 656.657 430.69H719.2C719.551 430.69 719.889 430.492 720.138 430.139C720.386 429.788 720.525 429.309 720.525 428.811C720.525 428.314 720.386 427.834 720.138 427.484C719.889 427.131 719.551 426.933 719.2 426.933Z" fill="#8094BD"/>
<path d="M719.2 437.809H656.657C656.307 437.809 655.969 438.018 655.72 438.388C655.472 438.758 655.331 439.262 655.331 439.786C655.331 440.31 655.472 440.814 655.72 441.185C655.969 441.555 656.307 441.764 656.657 441.764H719.2C719.551 441.764 719.889 441.555 720.138 441.185C720.386 440.814 720.525 440.31 720.525 439.786C720.525 439.262 720.386 438.758 720.138 438.388C719.889 438.018 719.551 437.809 719.2 437.809Z" fill="#8094BD"/>
<path d="M719.2 448.883H656.657C656.307 448.883 655.969 449.092 655.72 449.462C655.472 449.832 655.331 450.336 655.331 450.859C655.331 451.384 655.472 451.888 655.72 452.259C655.969 452.63 656.307 452.838 656.657 452.838H719.2C719.551 452.838 719.889 452.63 720.138 452.259C720.386 451.888 720.525 451.384 720.525 450.859C720.525 450.336 720.386 449.832 720.138 449.462C719.889 449.092 719.551 448.883 719.2 448.883Z" fill="#8094BD"/>
<path d="M719.2 459.957H656.657C656.307 459.957 655.969 460.154 655.72 460.508C655.472 460.858 655.331 461.338 655.331 461.836C655.331 462.333 655.472 462.812 655.72 463.164C655.969 463.516 656.307 463.714 656.657 463.714H719.2C719.551 463.714 719.889 463.516 720.138 463.164C720.386 462.812 720.525 462.333 720.525 461.836C720.525 461.338 720.386 460.858 720.138 460.508C719.889 460.154 719.551 459.957 719.2 459.957Z" fill="#8094BD"/>
<path d="M719.2 470.833H656.657C656.307 470.833 655.969 471.031 655.72 471.383C655.472 471.737 655.331 472.214 655.331 472.712C655.331 473.209 655.472 473.688 655.72 474.039C655.969 474.393 656.307 474.59 656.657 474.59H719.2C719.551 474.59 719.889 474.393 720.138 474.039C720.386 473.688 720.525 473.209 720.525 472.712C720.525 472.214 720.386 471.737 720.138 471.383C719.889 471.031 719.551 470.833 719.2 470.833Z" fill="#8094BD"/>
</g>
<path d="M781.196 370.73H731.579V486.43H781.196V370.73Z" stroke="white" stroke-width="2" stroke-linecap="round" stroke-dasharray="4 4"/>
<mask id="mask1_1_12" style="mask-type:luminance" maskUnits="userSpaceOnUse" x="36" y="35" width="185" height="136">
<path d="M220.61 35H36.0135V170.39H220.61V35Z" fill="white"/>
</mask>
<g mask="url(#mask1_1_12)">
<path d="M213.775 35H42.8503C39.0743 35 36.0135 35.6735 36.0135 36.5043V168.885C36.0135 169.716 39.0743 170.39 42.8503 170.39H213.775C217.548 170.39 220.61 169.716 220.61 168.885V36.5043C220.61 35.6735 217.548 35 213.775 35Z" fill="#6A81B2"/>
<path d="M55.6092 157.227H79.2858C79.6351 157.227 79.9702 157.386 80.2172 157.669C80.4644 157.95 80.6006 158.333 80.6006 158.731V161.741C80.6006 162.138 80.4644 162.522 80.2172 162.803C79.9702 163.085 79.6351 163.246 79.2858 163.246H55.6092C55.2628 163.246 54.9277 163.085 54.6807 162.803C54.4334 162.522 54.2944 162.138 54.2944 161.741V158.731C54.2944 158.333 54.4334 157.95 54.6807 157.669C54.9277 157.386 55.2628 157.227 55.6092 157.227Z" fill="#8094BD"/>
<path d="M60.0594 40.6412H78.749C80.2372 40.6412 81.6629 40.879 82.7136 41.3022C83.7644 41.7253 84.355 42.2993 84.355 42.8977V44.4021C84.355 45.0005 83.7644 45.5745 82.7136 45.9977C81.6629 46.4209 80.2372 46.6586 78.749 46.6586H60.0594C58.5712 46.6586 57.1457 46.4209 56.0948 45.9977C55.0412 45.5745 54.4505 45.0005 54.4505 44.4021V42.8977C54.4505 42.2993 55.0412 41.7253 56.0948 41.3022C57.1457 40.879 58.5712 40.6412 60.0594 40.6412Z" fill="#8094BD"/>
<path d="M121.901 52.6758H61.9452C57.8074 52.6758 54.4505 54.0229 54.4505 55.6844C54.4505 57.3461 57.8074 58.6933 61.9452 58.6933H121.901C126.043 58.6933 129.397 57.3461 129.397 55.6844C129.397 54.0229 126.043 52.6758 121.901 52.6758Z" fill="#8094BD"/>
<path opacity="0.149" d="M71.7088 61.702H56.3704C55.311 61.702 54.4505 63.049 54.4505 64.7107C54.4505 66.3721 55.311 67.7192 56.3704 67.7192H71.7088C72.7654 67.7192 73.6257 66.3721 73.6257 64.7107C73.6257 63.049 72.7654 61.702 71.7088 61.702Z" fill="white"/>
<path opacity="0.149" d="M97.8587 61.702H82.5202C81.4609 61.702 80.6031 63.049 80.6031 64.7107C80.6031 66.3721 81.4609 67.7192 82.5202 67.7192H97.8587C98.9151 67.7192 99.7757 66.3721 99.7757 64.7107C99.7757 63.049 98.9151 61.702 97.8587 61.702Z" fill="white"/>
<path opacity="0.149" d="M124.01 61.702H108.671C107.611 61.702 106.754 63.049 106.754 64.7107C106.754 66.3721 107.611 67.7192 108.671 67.7192H124.01C125.066 67.7192 125.926 66.3721 125.926 64.7107C125.926 63.049 125.066 61.702 124.01 61.702Z" fill="white"/>
<path opacity="0.149" d="M150.159 61.702H134.821C133.76 61.702 132.903 63.049 132.903 64.7107C132.903 66.3721 133.76 67.7192 134.821 67.7192H150.159C151.215 67.7192 152.076 66.3721 152.076 64.7107C152.076 63.049 151.215 61.702 150.159 61.702Z" fill="white"/>
<path opacity="0.149" d="M71.7088 70.7279H56.3704C55.311 70.7279 54.4505 72.0749 54.4505 73.7365C54.4505 75.3981 55.311 76.7452 56.3704 76.7452H71.7088C72.7654 76.7452 73.6257 75.3981 73.6257 73.7365C73.6257 72.0749 72.7654 70.7279 71.7088 70.7279Z" fill="white"/>
<path opacity="0.149" d="M97.8587 70.7279H82.5202C81.4609 70.7279 80.6031 72.0749 80.6031 73.7365C80.6031 75.3981 81.4609 76.7452 82.5202 76.7452H97.8587C98.9151 76.7452 99.7757 75.3981 99.7757 73.7365C99.7757 72.0749 98.9151 70.7279 97.8587 70.7279Z" fill="white"/>
<path opacity="0.149" d="M124.01 70.7279H108.671C107.611 70.7279 106.754 72.0749 106.754 73.7365C106.754 75.3981 107.611 76.7452 108.671 76.7452H124.01C125.066 76.7452 125.926 75.3981 125.926 73.7365C125.926 72.0749 125.066 70.7279 124.01 70.7279Z" fill="white"/>
<path opacity="0.149" d="M150.159 70.7279H134.821C133.76 70.7279 132.903 72.0749 132.903 73.7365C132.903 75.3981 133.76 76.7452 134.821 76.7452H150.159C151.215 76.7452 152.076 75.3981 152.076 73.7365C152.076 72.0749 151.215 70.7279 150.159 70.7279Z" fill="white"/>
<path opacity="0.149" d="M71.7088 79.7539H56.3704C55.311 79.7539 54.4505 81.1011 54.4505 82.7625C54.4505 84.4241 55.311 85.7713 56.3704 85.7713H71.7088C72.7654 85.7713 73.6257 84.4241 73.6257 82.7625C73.6257 81.1011 72.7654 79.7539 71.7088 79.7539Z" fill="white"/>
<path opacity="0.149" d="M97.8587 79.7539H82.5202C81.4609 79.7539 80.6031 81.1011 80.6031 82.7625C80.6031 84.4241 81.4609 85.7713 82.5202 85.7713H97.8587C98.9151 85.7713 99.7757 84.4241 99.7757 82.7625C99.7757 81.1011 98.9151 79.7539 97.8587 79.7539Z" fill="white"/>
<path opacity="0.149" d="M124.01 79.7539H108.671C107.611 79.7539 106.754 81.1011 106.754 82.7625C106.754 84.4241 107.611 85.7713 108.671 85.7713H124.01C125.066 85.7713 125.926 84.4241 125.926 82.7625C125.926 81.1011 125.066 79.7539 124.01 79.7539Z" fill="white"/>
<path opacity="0.149" d="M150.159 79.7539H134.821C133.76 79.7539 132.903 81.1011 132.903 82.7625C132.903 84.4241 133.76 85.7713 134.821 85.7713H150.159C151.215 85.7713 152.076 84.4241 152.076 82.7625C152.076 81.1011 151.215 79.7539 150.159 79.7539Z" fill="white"/>
<path opacity="0.149" d="M71.7088 88.7799H56.3704C55.311 88.7799 54.4505 90.1272 54.4505 91.7888C54.4505 93.4502 55.311 94.7973 56.3704 94.7973H71.7088C72.7654 94.7973 73.6257 93.4502 73.6257 91.7888C73.6257 90.1272 72.7654 88.7799 71.7088 88.7799Z" fill="white"/>
<path opacity="0.149" d="M97.8587 88.7799H82.5202C81.4609 88.7799 80.6031 90.1272 80.6031 91.7888C80.6031 93.4502 81.4609 94.7973 82.5202 94.7973H97.8587C98.9151 94.7973 99.7757 93.4502 99.7757 91.7888C99.7757 90.1272 98.9151 88.7799 97.8587 88.7799Z" fill="white"/>
<path opacity="0.149" d="M124.01 88.7799H108.671C107.611 88.7799 106.754 90.1272 106.754 91.7888C106.754 93.4502 107.611 94.7973 108.671 94.7973H124.01C125.066 94.7973 125.926 93.4502 125.926 91.7888C125.926 90.1272 125.066 88.7799 124.01 88.7799Z" fill="white"/>
<path opacity="0.149" d="M150.159 88.7799H134.821C133.76 88.7799 132.903 90.1272 132.903 91.7888C132.903 93.4502 133.76 94.7973 134.821 94.7973H150.159C151.215 94.7973 152.076 93.4502 152.076 91.7888C152.076 90.1272 151.215 88.7799 150.159 88.7799Z" fill="white"/>
<path opacity="0.149" d="M71.7088 98.9343H56.3704C55.311 98.9343 54.4505 100.281 54.4505 101.943C54.4505 103.604 55.311 104.951 56.3704 104.951H71.7088C72.7654 104.951 73.6257 103.604 73.6257 101.943C73.6257 100.281 72.7654 98.9343 71.7088 98.9343Z" fill="white"/>
<path opacity="0.149" d="M97.8587 98.9343H82.5202C81.4609 98.9343 80.6031 100.281 80.6031 101.943C80.6031 103.604 81.4609 104.951 82.5202 104.951H97.8587C98.9151 104.951 99.7757 103.604 99.7757 101.943C99.7757 100.281 98.9151 98.9343 97.8587 98.9343Z" fill="white"/>
<path opacity="0.149" d="M124.01 98.9343H108.671C107.611 98.9343 106.754 100.281 106.754 101.943C106.754 103.604 107.611 104.951 108.671 104.951H124.01C125.066 104.951 125.926 103.604 125.926 101.943C125.926 100.281 125.066 98.9343 124.01 98.9343Z" fill="white"/>
<path opacity="0.149" d="M150.159 98.9343H134.821C133.76 98.9343 132.903 100.281 132.903 101.943C132.903 103.604 133.76 104.951 134.821 104.951H150.159C151.215 104.951 152.076 103.604 152.076 101.943C152.076 100.281 151.215 98.9343 150.159 98.9343Z" fill="white"/>
<path opacity="0.149" d="M71.7088 109.089H56.3704C55.311 109.089 54.4505 110.436 54.4505 112.097C54.4505 113.759 55.311 115.106 56.3704 115.106H71.7088C72.7654 115.106 73.6257 113.759 73.6257 112.097C73.6257 110.436 72.7654 109.089 71.7088 109.089Z" fill="white"/>
<path opacity="0.149" d="M97.8587 109.089H82.5202C81.4609 109.089 80.6031 110.436 80.6031 112.097C80.6031 113.759 81.4609 115.106 82.5202 115.106H97.8587C98.9151 115.106 99.7757 113.759 99.7757 112.097C99.7757 110.436 98.9151 109.089 97.8587 109.089Z" fill="white"/>
<path opacity="0.149" d="M124.01 109.089H108.671C107.611 109.089 106.754 110.436 106.754 112.097C106.754 113.759 107.611 115.106 108.671 115.106H124.01C125.066 115.106 125.926 113.759 125.926 112.097C125.926 110.436 125.066 109.089 124.01 109.089Z" fill="white"/>
<path opacity="0.149" d="M150.159 109.089H134.821C133.76 109.089 132.903 110.436 132.903 112.097C132.903 113.759 133.76 115.106 134.821 115.106H150.159C151.215 115.106 152.076 113.759 152.076 112.097C152.076 110.436 151.215 109.089 150.159 109.089Z" fill="white"/>
<path opacity="0.149" d="M71.7088 119.242H56.3704C55.311 119.242 54.4505 120.59 54.4505 122.251C54.4505 123.913 55.311 125.26 56.3704 125.26H71.7088C72.7654 125.26 73.6257 123.913 73.6257 122.251C73.6257 120.59 72.7654 119.242 71.7088 119.242Z" fill="white"/>
<path opacity="0.149" d="M97.8587 119.242H82.5202C81.4609 119.242 80.6031 120.59 80.6031 122.251C80.6031 123.913 81.4609 125.26 82.5202 125.26H97.8587C98.9151 125.26 99.7757 123.913 99.7757 122.251C99.7757 120.59 98.9151 119.242 97.8587 119.242Z" fill="white"/>
<path opacity="0.149" d="M124.01 119.242H108.671C107.611 119.242 106.754 120.59 106.754 122.251C106.754 123.913 107.611 125.26 108.671 125.26H124.01C125.066 125.26 125.926 123.913 125.926 122.251C125.926 120.59 125.066 119.242 124.01 119.242Z" fill="white"/>
<path opacity="0.149" d="M150.159 119.242H134.821C133.76 119.242 132.903 120.59 132.903 122.251C132.903 123.913 133.76 125.26 134.821 125.26H150.159C151.215 125.26 152.076 123.913 152.076 122.251C152.076 120.59 151.215 119.242 150.159 119.242Z" fill="white"/>
<path opacity="0.149" d="M71.7088 129.397H56.3704C55.311 129.397 54.4505 130.744 54.4505 132.406C54.4505 134.067 55.311 135.414 56.3704 135.414H71.7088C72.7654 135.414 73.6257 134.067 73.6257 132.406C73.6257 130.744 72.7654 129.397 71.7088 129.397Z" fill="white"/>
<path opacity="0.149" d="M97.8587 129.397H82.5202C81.4609 129.397 80.6031 130.744 80.6031 132.406C80.6031 134.067 81.4609 135.414 82.5202 135.414H97.8587C98.9151 135.414 99.7757 134.067 99.7757 132.406C99.7757 130.744 98.9151 129.397 97.8587 129.397Z" fill="white"/>
<path opacity="0.149" d="M124.01 129.397H108.671C107.611 129.397 106.754 130.744 106.754 132.406C106.754 134.067 107.611 135.414 108.671 135.414H124.01C125.066 135.414 125.926 134.067 125.926 132.406C125.926 130.744 125.066 129.397 124.01 129.397Z" fill="white"/>
<path opacity="0.149" d="M150.159 129.397H134.821C133.76 129.397 132.903 130.744 132.903 132.406C132.903 134.067 133.76 135.414 134.821 135.414H150.159C151.215 135.414 152.076 134.067 152.076 132.406C152.076 130.744 151.215 129.397 150.159 129.397Z" fill="white"/>
<path opacity="0.149" d="M71.7088 139.551H56.3704C55.311 139.551 54.4505 140.898 54.4505 142.56C54.4505 144.222 55.311 145.568 56.3704 145.568H71.7088C72.7654 145.568 73.6257 144.222 73.6257 142.56C73.6257 140.898 72.7654 139.551 71.7088 139.551Z" fill="white"/>
<path opacity="0.149" d="M97.8587 139.551H82.5202C81.4609 139.551 80.6031 140.898 80.6031 142.56C80.6031 144.222 81.4609 145.568 82.5202 145.568H97.8587C98.9151 145.568 99.7757 144.222 99.7757 142.56C99.7757 140.898 98.9151 139.551 97.8587 139.551Z" fill="white"/>
<path opacity="0.149" d="M124.01 139.551H108.671C107.611 139.551 106.754 140.898 106.754 142.56C106.754 144.222 107.611 145.568 108.671 145.568H124.01C125.066 145.568 125.926 144.222 125.926 142.56C125.926 140.898 125.066 139.551 124.01 139.551Z" fill="white"/>
<path opacity="0.149" d="M150.159 139.551H134.821C133.76 139.551 132.903 140.898 132.903 142.56C132.903 144.222 133.76 145.568 134.821 145.568H150.159C151.215 145.568 152.076 144.222 152.076 142.56C152.076 140.898 151.215 139.551 150.159 139.551Z" fill="white"/>
</g>
<path d="M210.078 47.8555H160.462V163.555H210.078V47.8555Z" stroke="white" stroke-width="2" stroke-linecap="round" stroke-dasharray="4 4"/>
<path d="M462.628 223.102C462.968 223.92 463.897 224.302 464.703 223.957C465.508 223.611 465.885 222.668 465.545 221.851L464.086 222.477L462.628 223.102ZM248.082 95.9208L264.81 103.415L262.842 84.9672L248.082 95.9208ZM464.086 222.477L465.545 221.851L464.006 218.158L462.548 218.784L461.089 219.409L462.628 223.102L464.086 222.477ZM462.548 218.784L464.006 218.158C429.922 136.349 348.386 86.388 262.141 92.7608L262.256 94.3634L262.371 95.9662C347.27 89.6928 427.536 138.876 461.089 219.409L462.548 218.784Z" fill="#BAC1CC"/>
<path d="M555.521 255C554.656 255.134 553.849 254.532 553.717 253.654C553.585 252.777 554.179 251.958 555.044 251.824L555.282 253.412L555.521 255ZM715.285 347.157L700.68 335.992L717.51 328.739L715.285 347.157ZM555.282 253.412L555.044 251.824L557.873 251.385L558.112 252.974L558.35 254.562L555.521 255L555.282 253.412ZM558.112 252.974L557.873 251.385C621.611 241.513 683.526 275.253 711.136 333.137L709.711 333.837L708.286 334.537C681.276 277.912 620.704 244.905 558.35 254.562L558.112 252.974Z" fill="#BAC1CC"/>
<path d="M925.452 170.461C924.106 181.682 922.635 192.888 921.04 204.077C920.393 208.621 919.707 213.224 917.905 217.435C916.675 220.309 914.952 222.935 913.238 225.544C911.213 228.625 909.155 231.746 906.405 234.182C903.654 236.618 900.082 238.327 896.441 238.041C906.101 231.448 912.591 220.293 913.616 208.529C914.098 202.999 913.438 197.44 913.311 191.89C913.184 186.342 913.641 180.598 916.165 175.673C918.689 170.748 923.676 166.805 929.147 166.944L925.452 170.461Z" fill="#856F61"/>
<path d="M827.567 409.806C819.707 416.271 810.048 417.4 805.993 412.327C801.937 407.255 805.018 397.901 812.878 391.436C816.318 388.605 820.104 386.799 823.613 386.086L857.252 359.115L869.393 375.395L834.942 400.257C833.531 403.593 831.007 406.975 827.567 409.806Z" fill="#CCA58E"/>
<path d="M941.097 340.542L890.912 356.133C899.314 358.533 902.831 410.466 895.012 412.08C895.012 412.08 978.187 418.081 973.649 412.08C968.116 404.765 975.536 356.155 979.074 356.133L941.097 340.542Z" fill="#CCA58E"/>
<path d="M1007.88 605.187L1003.49 551.488C1003.49 532.279 1002.26 514.926 1000.29 499.455C992.411 437.354 972.647 405.522 972.647 405.522H898.701C898.601 405.637 898.501 405.726 898.401 405.84L898.389 405.853C880.943 424.451 871.868 471.22 867.833 499.457C865.916 512.894 865.139 522.136 865.139 522.136L857.907 587.326L863.133 605.188H906.159L905.482 601.36L933.168 499.455L933.506 498.21L933.807 499.455L959.474 605.188L1007.88 605.187Z" fill="#90A1B9"/>
<path d="M833.921 373.191L884.045 324.948L889.058 321.134C889.058 321.134 917.83 292.7 925.281 292.049C928.437 291.774 931.593 292.571 934.251 294.323C938.546 297.149 940.77 301.798 940.77 306.485C940.77 310.401 939.215 314.337 936.032 317.234L890.143 359.021L870.622 376.794L846.343 398.907L843.876 393.808L835.53 376.529L833.921 373.191Z" fill="#E1E2CA"/>
<path d="M900.217 309.564L915.844 277.57L929.01 254.326L939.656 243.321H968.795L971.507 254.326L987.782 263.498L993.539 309.355L973.029 408.852C939.656 402 894.499 408.852 894.499 408.852L890.143 359.019L884.755 330.028L884.104 326.561L900.217 309.564Z" fill="#E1E2CA"/>
<path d="M953.134 297.892L993.548 338.591L923.153 345.904L906.793 369.244L1004.91 372.545C1013.77 375.742 1023.2 369.536 1023.92 360.033C1024.17 356.823 1004.01 275.402 991.808 267.843C977.506 258.983 953.134 297.892 953.134 297.892Z" fill="#E1E2CA"/>
<path d="M981.207 203.386C981.501 184.9 966.964 169.672 948.74 169.375C930.516 169.077 915.502 183.82 915.209 202.306C914.914 220.792 929.451 236.02 947.676 236.319C965.9 236.617 980.913 221.872 981.207 203.386Z" fill="#CCA58E"/>
<path d="M1020.65 307.151C1019.83 310.328 1013.39 311.968 1011.88 316.049C1007.09 318.82 1009.69 296.179 1007.76 294.691C1006.27 293.56 1005.87 296.293 1005.53 293.942C1004.25 285.119 995.89 287.09 989.698 285.666C988.996 284.28 988.458 282.933 988.106 281.623C987.48 279.258 984.623 278.432 982.93 280.173C982.166 279.488 981.615 277.059 981.075 274.631C980.687 272.864 980.299 271.097 979.848 269.978L975.536 260.113L976.927 267.461C974.107 266.432 971.262 267.499 969.62 263.965C967.514 259.427 966.675 254.113 968.204 249.346C969.595 245.023 971.939 236.366 974.583 229.196C971.588 231.395 967.992 232.997 963.817 233.798C965.296 230.95 966.801 228.052 967.427 224.886C968.041 221.721 967.665 218.199 965.685 215.682C964.056 213.611 961.649 214.131 959.619 212.466C958.04 211.169 956.674 207.851 955.721 206.033C959.782 219.724 962.852 234.268 957.689 247.337C954.117 256.388 946.597 263.749 937.573 267.093C942.374 263.609 947.061 259.897 950.657 255.168C954.505 250.096 957.013 243.688 956.247 237.332C955.045 227.352 936.796 195.787 934.553 189.584C935.781 195.647 935.305 200.376 932.071 202.982C931.232 194.185 921.782 194.986 916.63 191.465C916.63 191.465 912.645 168.619 921.995 168.48C926.507 168.417 931.232 157.662 935.33 155.742C941.872 152.678 945.883 154.763 953.139 154.992C960.383 155.208 967.339 158.373 971.763 164.183C974.082 167.221 974.935 164.806 978.418 166.701C981.727 168.493 983.959 166.827 987.705 166.942C995.213 167.145 1002.5 171.213 1006.71 177.506C1010.92 183.811 1013.51 183.226 1011.84 192.977C1011.82 193.092 1011.82 193.32 1011.84 193.664C1012.76 209.021 1010.42 224.416 1004.41 238.552C1002.56 242.9 1011.63 247.387 1011.62 252.816C1011.6 259.121 1001.59 264.868 1002.52 267.563C1005.18 280.543 1020.1 277.657 1016.58 299.383C1016.29 301.149 1021.21 305.027 1020.65 307.151Z" fill="#856F61"/>
<path d="M929.222 267.399C929.499 267.31 929.774 267.208 930.05 267.094C929.699 267.348 929.36 267.59 929.01 267.844L929.222 267.399Z" fill="#2F2E41"/>
<path d="M975.71 160.294C972.12 160.834 968.474 154.793 970.511 146.415C974.955 153.304 977.224 161.061 977.581 169.579L975.187 170.332L975.71 160.294Z" fill="#E1E2CA"/>
<path d="M994.054 152.473C991.604 161.278 979.161 167.172 976.963 164.107L976.712 169.359L975.174 167.351C979.637 160.621 985.719 155.457 994.054 152.473Z" fill="#E1E2CA"/>
<path d="M814.698 405.699H777.099V501.044H814.698V405.699Z" fill="white"/>
<path d="M813.447 502.392H778.007C777.766 502.391 777.536 501.85 777.364 500.89C777.195 499.93 777.1 498.627 777.099 497.27V409.548C777.1 408.191 777.195 406.889 777.364 405.929C777.536 404.969 777.766 404.428 778.007 404.427H813.447C813.688 404.428 813.918 404.969 814.088 405.929C814.259 406.889 814.354 408.191 814.354 409.548V497.27C814.354 498.627 814.259 499.93 814.088 500.89C813.918 501.85 813.688 502.391 813.447 502.392ZM778.007 406.224C777.85 406.225 777.701 406.575 777.59 407.198C777.48 407.822 777.417 408.666 777.417 409.547V497.27C777.417 498.151 777.48 498.996 777.59 499.62C777.701 500.243 777.85 500.594 778.007 500.594H813.447C813.604 500.594 813.754 500.243 813.865 499.62C813.974 498.996 814.036 498.151 814.037 497.27V409.548C814.036 408.668 813.974 407.822 813.865 407.199C813.754 406.576 813.604 406.226 813.447 406.225L778.007 406.224Z" fill="#856F61"/>
<path d="M785.202 413.004C785.085 413.004 784.972 413.154 784.889 413.422C784.805 413.69 784.759 414.054 784.759 414.432C784.759 414.811 784.805 415.175 784.889 415.443C784.972 415.711 785.085 415.861 785.202 415.861H806.094C806.212 415.861 806.324 415.711 806.407 415.443C806.491 415.175 806.537 414.811 806.537 414.432C806.537 414.054 806.491 413.69 806.407 413.422C806.324 413.154 806.212 413.004 806.094 413.004H785.202Z" fill="#90A1B9"/>
<path d="M785.087 420.864C785.001 420.864 784.917 420.977 784.855 421.178C784.794 421.378 784.759 421.652 784.759 421.936C784.759 422.221 784.794 422.493 784.855 422.693C784.917 422.895 785.001 423.007 785.087 423.007H800.589C800.676 423.007 800.759 422.895 800.821 422.693C800.883 422.493 800.917 422.221 800.917 421.936C800.917 421.652 800.883 421.378 800.821 421.178C800.759 420.977 800.676 420.864 800.589 420.864H785.087Z" fill="#90A1B9"/>
<path d="M785.202 428.01C785.085 428.01 784.972 428.161 784.889 428.43C784.805 428.696 784.759 429.06 784.759 429.44C784.759 429.819 784.805 430.182 784.889 430.45C784.972 430.718 785.085 430.869 785.202 430.869H806.094C806.212 430.869 806.324 430.718 806.407 430.45C806.491 430.182 806.537 429.819 806.537 429.44C806.537 429.06 806.491 428.696 806.407 428.43C806.324 428.161 806.212 428.01 806.094 428.01H785.202Z" fill="#90A1B9"/>
<path d="M785.2 435.871C785.083 435.871 784.971 436.021 784.888 436.29C784.805 436.558 784.759 436.922 784.759 437.3C784.759 437.679 784.805 438.043 784.888 438.311C784.971 438.579 785.083 438.729 785.2 438.729H794.153C794.27 438.729 794.381 438.579 794.466 438.311C794.548 438.043 794.594 437.679 794.594 437.3C794.594 436.922 794.548 436.558 794.466 436.29C794.381 436.021 794.27 435.871 794.153 435.871H785.2Z" fill="#90A1B9"/>
<path d="M785.202 443.731C785.085 443.731 784.972 443.883 784.889 444.15C784.805 444.418 784.759 444.782 784.759 445.16C784.759 445.54 784.805 445.904 784.889 446.171C784.972 446.439 785.085 446.59 785.202 446.59H806.094C806.212 446.59 806.324 446.439 806.407 446.171C806.491 445.904 806.537 445.54 806.537 445.16C806.537 444.782 806.491 444.418 806.407 444.15C806.324 443.883 806.212 443.731 806.094 443.731H785.202Z" fill="#90A1B9"/>
<path d="M785.087 451.593C785.001 451.593 784.917 451.743 784.855 452.011C784.794 452.28 784.759 452.643 784.759 453.022C784.759 453.401 784.794 453.765 784.855 454.033C784.917 454.3 785.001 454.45 785.087 454.45H800.589C800.676 454.45 800.759 454.3 800.821 454.033C800.883 453.765 800.917 453.401 800.917 453.022C800.917 452.643 800.883 452.28 800.821 452.011C800.759 451.743 800.676 451.593 800.589 451.593H785.087Z" fill="#90A1B9"/>
<path d="M785.202 459.453C785.085 459.453 784.972 459.603 784.889 459.871C784.805 460.14 784.759 460.503 784.759 460.882C784.759 461.261 784.805 461.625 784.889 461.893C784.972 462.162 785.085 462.313 785.202 462.313H806.094C806.212 462.313 806.324 462.162 806.407 461.893C806.491 461.625 806.537 461.261 806.537 460.882C806.537 460.503 806.491 460.14 806.407 459.871C806.324 459.603 806.212 459.453 806.094 459.453H785.202Z" fill="#90A1B9"/>
<path d="M785.087 467.313C785.001 467.313 784.917 467.464 784.855 467.733C784.794 468.001 784.759 468.365 784.759 468.744C784.759 469.123 784.794 469.486 784.855 469.755C784.917 470.022 785.001 470.173 785.087 470.173H800.589C800.676 470.173 800.759 470.022 800.821 469.755C800.883 469.486 800.917 469.123 800.917 468.744C800.917 468.365 800.883 468.001 800.821 467.733C800.759 467.464 800.676 467.313 800.589 467.313H785.087Z" fill="#90A1B9"/>
<path d="M785.087 475.176C785.001 475.176 784.917 475.327 784.855 475.593C784.794 475.861 784.759 476.226 784.759 476.604C784.759 476.983 784.794 477.346 784.855 477.615C784.917 477.883 785.001 478.033 785.087 478.033H800.589C800.676 478.033 800.759 477.883 800.821 477.615C800.883 477.346 800.917 476.983 800.917 476.604C800.917 476.226 800.883 475.861 800.821 475.593C800.759 475.327 800.676 475.176 800.589 475.176H785.087Z" fill="#90A1B9"/>
<path d="M785.087 483.036C785.001 483.036 784.917 483.187 784.855 483.455C784.794 483.724 784.759 484.087 784.759 484.466C784.759 484.844 784.794 485.208 784.855 485.475C784.917 485.743 785.001 485.894 785.087 485.894H800.589C800.676 485.894 800.759 485.743 800.821 485.475C800.883 485.208 800.917 484.844 800.917 484.466C800.917 484.087 800.883 483.724 800.821 483.455C800.759 483.187 800.676 483.036 800.589 483.036H785.087Z" fill="#90A1B9"/>
<path d="M785.202 490.897C785.085 490.897 784.972 491.047 784.889 491.315C784.805 491.584 784.759 491.947 784.759 492.326C784.759 492.704 784.805 493.068 784.889 493.336C784.972 493.605 785.085 493.755 785.202 493.755H806.094C806.212 493.755 806.324 493.605 806.407 493.336C806.491 493.068 806.537 492.704 806.537 492.326C806.537 491.947 806.491 491.584 806.407 491.315C806.324 491.047 806.212 490.897 806.094 490.897H785.202Z" fill="#90A1B9"/>
<path d="M218.702 138.638H176.09V231.793H218.702V138.638Z" fill="white"/>
<path d="M217.663 233.654H177.129C176.852 233.654 176.589 233.127 176.394 232.188C176.2 231.25 176.09 229.979 176.09 228.653V142.975C176.09 141.648 176.2 140.377 176.394 139.439C176.589 138.502 176.852 137.974 177.129 137.973H217.663C217.94 137.974 218.205 138.502 218.398 139.44C218.592 140.377 218.702 141.648 218.702 142.975V228.653C218.702 229.979 218.592 231.25 218.398 232.188C218.205 233.127 217.94 233.654 217.663 233.654ZM177.129 139.727C176.948 139.728 176.777 140.071 176.653 140.679C176.527 141.288 176.455 142.112 176.455 142.974V228.653C176.455 229.513 176.527 230.341 176.653 230.948C176.777 231.557 176.948 231.9 177.129 231.9H217.663C217.844 231.9 218.014 231.557 218.142 230.948C218.267 230.341 218.336 229.513 218.339 228.653V142.975C218.336 142.114 218.267 141.289 218.142 140.68C218.014 140.072 217.844 139.729 217.663 139.728L177.129 139.727Z" fill="#856F61"/>
<path d="M185.359 146.348C185.225 146.348 185.095 146.496 185.001 146.757C184.904 147.019 184.852 147.374 184.852 147.744C184.852 148.115 184.904 148.469 185.001 148.732C185.095 148.993 185.225 149.14 185.359 149.14H209.254C209.388 149.14 209.518 148.993 209.612 148.732C209.706 148.469 209.76 148.115 209.76 147.744C209.76 147.374 209.706 147.019 209.612 146.757C209.518 146.496 209.388 146.348 209.254 146.348H185.359Z" fill="#90A1B9"/>
<path d="M185.226 154.026C185.129 154.026 185.032 154.137 184.962 154.333C184.89 154.53 184.852 154.795 184.852 155.073C184.852 155.35 184.89 155.617 184.962 155.813C185.032 156.01 185.129 156.121 185.226 156.121H202.956C203.057 156.121 203.151 156.01 203.223 155.813C203.292 155.617 203.333 155.35 203.333 155.073C203.333 154.795 203.292 154.53 203.223 154.333C203.151 154.137 203.057 154.026 202.956 154.026H185.226Z" fill="#90A1B9"/>
<path d="M185.359 161.006C185.225 161.006 185.095 161.154 185.001 161.415C184.904 161.676 184.852 162.032 184.852 162.402C184.852 162.772 184.904 163.126 185.001 163.388C185.095 163.653 185.225 163.797 185.359 163.797H209.254C209.388 163.797 209.518 163.653 209.612 163.388C209.706 163.126 209.76 162.772 209.76 162.402C209.76 162.032 209.706 161.676 209.612 161.415C209.518 161.154 209.388 161.006 209.254 161.006H185.359Z" fill="#90A1B9"/>
<path d="M185.357 168.684C185.223 168.684 185.095 168.831 185.001 169.094C184.904 169.355 184.852 169.71 184.852 170.082C184.852 170.449 184.904 170.805 185.001 171.065C185.095 171.33 185.223 171.475 185.357 171.475H195.595C195.729 171.475 195.856 171.33 195.953 171.065C196.048 170.805 196.1 170.449 196.1 170.082C196.1 169.71 196.048 169.355 195.953 169.094C195.856 168.831 195.729 168.684 195.595 168.684H185.357Z" fill="#90A1B9"/>
<path d="M185.359 176.362C185.225 176.362 185.095 176.51 185.001 176.771C184.904 177.032 184.852 177.387 184.852 177.759C184.852 178.127 184.904 178.482 185.001 178.744C185.095 179.008 185.225 179.153 185.359 179.153H209.254C209.388 179.153 209.518 179.008 209.612 178.744C209.706 178.482 209.76 178.127 209.76 177.759C209.76 177.387 209.706 177.032 209.612 176.771C209.518 176.51 209.388 176.362 209.254 176.362H185.359Z" fill="#90A1B9"/>
<path d="M185.226 184.04C185.129 184.04 185.032 184.187 184.962 184.449C184.89 184.711 184.852 185.066 184.852 185.437C184.852 185.804 184.89 186.161 184.962 186.421C185.032 186.686 185.129 186.83 185.226 186.83H202.956C203.057 186.83 203.151 186.686 203.223 186.421C203.292 186.161 203.333 185.804 203.333 185.437C203.333 185.066 203.292 184.711 203.223 184.449C203.151 184.187 203.057 184.04 202.956 184.04H185.226Z" fill="#90A1B9"/>
<path d="M185.359 191.718C185.225 191.718 185.095 191.865 185.001 192.127C184.904 192.388 184.852 192.743 184.852 193.111C184.852 193.483 184.904 193.838 185.001 194.099C185.095 194.361 185.225 194.508 185.359 194.508H209.254C209.388 194.508 209.518 194.361 209.612 194.099C209.706 193.838 209.76 193.483 209.76 193.111C209.76 192.743 209.706 192.388 209.612 192.127C209.518 191.865 209.388 191.718 209.254 191.718H185.359Z" fill="#90A1B9"/>
<path d="M185.226 199.396C185.129 199.396 185.032 199.543 184.962 199.805C184.89 200.067 184.852 200.422 184.852 200.79C184.852 201.16 184.89 201.516 184.962 201.777C185.032 202.038 185.129 202.186 185.226 202.186H202.956C203.057 202.186 203.151 202.038 203.223 201.777C203.292 201.516 203.333 201.16 203.333 200.79C203.333 200.422 203.292 200.067 203.223 199.805C203.151 199.543 203.057 199.396 202.956 199.396H185.226Z" fill="#90A1B9"/>
<path d="M185.226 207.072C185.129 207.072 185.032 207.221 184.962 207.482C184.89 207.744 184.852 208.099 184.852 208.467C184.852 208.839 184.89 209.194 184.962 209.455C185.032 209.717 185.129 209.864 185.226 209.864H202.956C203.057 209.864 203.151 209.717 203.223 209.455C203.292 209.194 203.333 208.839 203.333 208.467C203.333 208.099 203.292 207.744 203.223 207.482C203.151 207.221 203.057 207.072 202.956 207.072H185.226Z" fill="#90A1B9"/>
<path d="M185.226 214.751C185.129 214.751 185.032 214.898 184.962 215.161C184.89 215.422 184.852 215.777 184.852 216.146C184.852 216.516 184.89 216.872 184.962 217.132C185.032 217.394 185.129 217.541 185.226 217.541H202.956C203.057 217.541 203.151 217.394 203.223 217.132C203.292 216.872 203.333 216.516 203.333 216.146C203.333 215.777 203.292 215.422 203.223 215.161C203.151 214.898 203.057 214.751 202.956 214.751H185.226Z" fill="#90A1B9"/>
<path d="M185.359 222.428C185.225 222.428 185.095 222.577 185.001 222.838C184.904 223.1 184.852 223.455 184.852 223.823C184.852 224.194 184.904 224.548 185.001 224.811C185.095 225.072 185.225 225.22 185.359 225.22H209.254C209.388 225.22 209.518 225.072 209.612 224.811C209.706 224.548 209.76 224.194 209.76 223.823C209.76 223.455 209.706 223.1 209.612 222.838C209.518 222.577 209.388 222.428 209.254 222.428H185.359Z" fill="#90A1B9"/>
<path d="M44.9985 493.073C44.0063 489.57 42.3074 486.581 40.2847 484.449L32.9356 450.467L16.917 454.448L26.0965 488.49C25.4928 491.369 25.6136 494.808 26.6057 498.311C28.8722 506.317 34.8269 511.635 39.9059 510.188C44.9849 508.741 47.265 501.08 44.9985 493.073Z" fill="#856F61"/>
<path d="M42.7825 270.167C42.7825 270.167 25.4806 269.562 15.4542 281.003C3.96691 295.237 -3.88514 351.008 2.00943 354.763L17.98 469.796L40.7535 466.621L34.9087 328.601L42.7825 270.167Z" fill="#495B73"/>
<path d="M159.585 464.066L155.439 604.462H95.9073L93.5009 550.343L82.923 604.462H19.1172L27.0756 511.429L35.2974 491.865L40.862 478.606L159.585 464.066Z" fill="#BAC1CC"/>
<path d="M112.3 247.234L70.9415 244.692L57.155 262.489C45.2483 265.075 34.4939 268.414 27.0757 273.931C28.8505 327.231 24.9518 396.535 40.862 409.957L26.734 511.104C26.734 511.104 32.4316 506.151 41.9489 507.899C45.2368 508.504 49.206 516.017 53.2461 516.472C84.2902 519.971 134.633 516.372 159.585 464.066L149.899 388.345L152.406 277.745C144.57 271.463 134.828 267.379 123.58 265.033L112.3 247.234Z" fill="#495B73"/>
<path d="M191.924 216.293C192.373 220.7 191.803 224.846 190.49 228.169L197.38 269.882L177.716 272.627L172.844 230.017C170.89 227.037 169.497 223.097 169.049 218.69C168.024 208.621 172.312 199.923 178.63 199.261C184.947 198.6 190.899 206.225 191.924 216.293Z" fill="#856F61"/>
<path d="M126.547 280.932C124.489 284.014 125.062 287.476 124.57 291.639C122.484 309.304 155.859 361.508 178.952 367.518C181.982 368.307 183.709 371.622 186.767 372.29C195.828 374.265 204.264 366.97 203.775 357.582L197.502 237.182L171.149 246.3L172.834 308.81C172.666 295.859 160.944 282.674 152.065 277.19C152.065 277.19 134.079 269.661 126.547 280.932Z" fill="#495B73"/>
<path d="M95.9131 241.402C116.033 241.402 132.344 224.858 132.344 204.45C132.344 184.041 116.033 167.497 95.9131 167.497C75.7929 167.497 59.4823 184.041 59.4823 204.45C59.4823 224.858 75.7929 241.402 95.9131 241.402Z" fill="#856F61"/>
<path d="M129.846 177.315C129.533 177.391 134.643 172.34 134.86 172.23C139.873 169.687 134.721 194.54 131.099 193.841C122.19 192.125 118.342 188.718 114.882 197.223C113.917 199.587 113.316 202.257 111.435 203.947C108.854 206.249 104.568 206.058 102.462 208.805C100.77 211.016 101.259 214.27 102.512 216.762C103.766 219.267 105.67 221.39 106.812 223.945C108.09 226.818 102.638 235.959 100.557 241.095V241.107L100.545 241.137C99.992 242.485 98.6783 238.604 97.2913 238.216C95.6317 237.753 93.1868 241.728 90.5433 241.006C90.5307 241.006 90.5182 240.993 90.5057 240.993C87.9865 240.28 85.1791 239.518 82.3967 238.755H82.3842C74.5511 236.594 72.5709 239.697 72.1949 239.607L67.332 234.446C65.6632 233.214 65.8519 229.234 64.675 228.165C63.7126 227.292 61.3134 229.311 60.6062 228.471C57.1392 224.353 56.3415 220.231 54.2977 212.097C52.4302 204.66 48.5575 182.399 56.5159 181.396C64.0233 180.442 58.5338 169.84 66.0913 170.234C65.6401 168.301 66.4798 166.229 67.8459 164.806C69.1994 163.369 71.0042 162.479 72.8215 161.717C81.7827 158.005 80.2912 154.814 89.7411 156.974C90.6811 155.64 102.735 152.16 104.439 152.605C104.565 152.63 101.811 158.055 108.541 156.974C108.29 158.538 111.959 155.148 112.301 160.788C119.479 156.418 123.342 166.877 123.58 168.416C123.893 170.336 121.036 169.356 122.941 169.649C124.07 169.827 125.998 172.154 125.811 173.311C126.626 172.192 127.44 171.085 128.267 169.967C128.418 169.98 128.555 170.005 128.706 170.03C132.516 170.767 128.148 183.402 128.305 179.463C128.593 172.23 133.644 176.463 129.846 177.315Z" fill="#59504A"/>
<path d="M529.519 276.506C532.414 259.176 520.299 242.845 502.461 240.033C484.624 237.22 467.816 248.991 464.922 266.32C462.028 283.653 474.143 299.981 491.979 302.796C509.817 305.608 526.623 293.838 529.519 276.506Z" fill="#62748E" fill-opacity="0.4"/>
<path d="M508.917 268.447H500.143V259.543C500.143 258.757 499.834 258.001 499.289 257.445C498.742 256.889 497.999 256.576 497.218 256.576C496.443 256.576 495.699 256.889 495.153 257.445C494.603 258.001 494.299 258.757 494.299 259.543V268.447H485.524C484.75 268.447 484 268.76 483.453 269.316C482.908 269.872 482.599 270.628 482.599 271.414C482.599 272.201 482.908 272.957 483.453 273.513C484 274.069 484.75 274.38 485.524 274.38H494.299V283.285C494.299 284.072 494.603 284.826 495.153 285.383C495.699 285.939 496.443 286.253 497.218 286.253C497.999 286.253 498.742 285.939 499.289 285.383C499.834 284.826 500.143 284.072 500.143 283.285V274.38H508.917C509.691 274.38 510.437 274.069 510.981 273.513C511.533 272.957 511.843 272.201 511.843 271.414C511.843 270.628 511.533 269.872 510.981 269.316C510.437 268.76 509.691 268.447 508.917 268.447Z" fill="white"/>
<path d="M898.344 367.44C888.228 367.148 880.177 361.621 880.36 355.092C880.542 348.563 888.89 343.506 899.004 343.797C903.432 343.925 907.464 345.055 910.583 346.836L953.427 348.614L952.175 368.99L910.073 365.074C906.86 366.671 902.77 367.568 898.344 367.44Z" fill="#CCA58E"/>
</g>
<defs>
<clipPath id="clip0_1_12">
<rect width="1024" height="571" fill="white" transform="translate(0 35)"/>
</clipPath>
</defs>
</svg>
