<svg width="268" height="147" viewBox="0 0 268 147" fill="none" xmlns="http://www.w3.org/2000/svg">
<path d="M163.4 7.3501H31.1V139.65H163.4V7.3501Z" fill="#F0F0F0" stroke="#CCCCCC" stroke-width="1.47"/>
<path d="M58.3159 16.3547H59.0885L60.9051 20.7919H60.9677L62.7844 16.3547H63.5569V21.7002H62.9514V17.6389H62.8992L61.2287 21.7002H60.6441L58.9736 17.6389H58.9214V21.7002H58.3159V16.3547ZM65.951 21.7942C65.697 21.7942 65.4664 21.7463 65.2594 21.6506C65.0523 21.5532 64.8879 21.4131 64.7661 21.2304C64.6443 21.0459 64.5834 20.8232 64.5834 20.5622C64.5834 20.3325 64.6286 20.1463 64.7191 20.0036C64.8096 19.8592 64.9305 19.7461 65.0819 19.6643C65.2333 19.5825 65.4003 19.5216 65.583 19.4816C65.7675 19.4399 65.9528 19.4068 66.139 19.3824C66.3826 19.3511 66.5801 19.3276 66.7315 19.312C66.8846 19.2946 66.9959 19.2659 67.0656 19.2258C67.1369 19.1858 67.1726 19.1162 67.1726 19.017V18.9961C67.1726 18.7386 67.1021 18.5385 66.9611 18.3958C66.8219 18.2531 66.6105 18.1818 66.3269 18.1818C66.0328 18.1818 65.8023 18.2462 65.6352 18.3749C65.4682 18.5037 65.3507 18.6412 65.2829 18.7873L64.6982 18.5785C64.8026 18.3349 64.9418 18.1453 65.1158 18.0095C65.2916 17.8721 65.483 17.7764 65.69 17.7224C65.8988 17.6667 66.1042 17.6389 66.306 17.6389C66.4348 17.6389 66.5827 17.6546 66.7497 17.6859C66.9185 17.7155 67.0812 17.7772 67.2378 17.8712C67.3962 17.9652 67.5275 18.107 67.6319 18.2966C67.7363 18.4863 67.7885 18.7404 67.7885 19.0588V21.7002H67.1726V21.1573H67.1412C67.0995 21.2443 67.0299 21.3374 66.9324 21.4366C66.835 21.5358 66.7054 21.6202 66.5435 21.6898C66.3817 21.7594 66.1842 21.7942 65.951 21.7942ZM66.045 21.2408C66.2886 21.2408 66.4939 21.193 66.661 21.0973C66.8298 21.0016 66.9568 20.878 67.0421 20.7266C67.1291 20.5752 67.1726 20.416 67.1726 20.249V19.6852C67.1465 19.7165 67.089 19.7452 67.0003 19.7713C66.9133 19.7957 66.8124 19.8175 66.6975 19.8366C66.5844 19.854 66.4739 19.8697 66.366 19.8836C66.2599 19.8958 66.1738 19.9062 66.1076 19.9149C65.9476 19.9358 65.7979 19.9697 65.6587 20.0167C65.5213 20.0619 65.4099 20.1307 65.3246 20.2229C65.2411 20.3134 65.1993 20.4369 65.1993 20.5935C65.1993 20.8075 65.2785 20.9694 65.4369 21.079C65.5969 21.1869 65.7997 21.2408 66.045 21.2408ZM68.9128 21.7002V17.6911H69.5288V21.7002H68.9128ZM69.226 17.0229C69.106 17.0229 69.0025 16.982 68.9154 16.9002C68.8302 16.8185 68.7876 16.7202 68.7876 16.6053C68.7876 16.4905 68.8302 16.3922 68.9154 16.3104C69.0025 16.2286 69.106 16.1877 69.226 16.1877C69.3461 16.1877 69.4488 16.2286 69.534 16.3104C69.621 16.3922 69.6645 16.4905 69.6645 16.6053C69.6645 16.7202 69.621 16.8185 69.534 16.9002C69.4488 16.982 69.3461 17.0229 69.226 17.0229ZM71.273 19.2885V21.7002H70.657V17.6911H71.2521V18.3175H71.3043C71.3983 18.1139 71.541 17.9504 71.7324 17.8268C71.9238 17.7015 72.1709 17.6389 72.4736 17.6389C72.7451 17.6389 72.9826 17.6946 73.1862 17.8059C73.3898 17.9156 73.5481 18.0826 73.6612 18.3071C73.7743 18.5298 73.8309 18.8117 73.8309 19.1528V21.7002H73.2149V19.1945C73.2149 18.8796 73.1331 18.6342 72.9696 18.4585C72.806 18.281 72.5815 18.1922 72.2962 18.1922C72.0995 18.1922 71.9238 18.2349 71.7689 18.3201C71.6158 18.4054 71.4949 18.5298 71.4061 18.6934C71.3174 18.8569 71.273 19.0553 71.273 19.2885ZM76.8149 16.929V16.3547H80.824V16.929H79.1431V21.7002H78.4958V16.929H76.8149ZM81.3231 21.7002V17.6911H81.9182V18.2966H81.96C82.0331 18.0983 82.1653 17.9373 82.3567 17.8138C82.5481 17.6902 82.7639 17.6285 83.004 17.6285C83.0493 17.6285 83.1058 17.6293 83.1737 17.6311C83.2416 17.6328 83.2929 17.6354 83.3277 17.6389V18.2653C83.3068 18.2601 83.259 18.2523 83.1841 18.2418C83.1111 18.2297 83.0336 18.2236 82.9518 18.2236C82.7569 18.2236 82.5829 18.2645 82.4298 18.3462C82.2784 18.4263 82.1584 18.5376 82.0696 18.6803C81.9826 18.8213 81.9391 18.9822 81.9391 19.1632V21.7002H81.3231ZM85.2376 21.7942C84.9836 21.7942 84.753 21.7463 84.5459 21.6506C84.3389 21.5532 84.1744 21.4131 84.0526 21.2304C83.9308 21.0459 83.8699 20.8232 83.8699 20.5622C83.8699 20.3325 83.9152 20.1463 84.0057 20.0036C84.0961 19.8592 84.2171 19.7461 84.3685 19.6643C84.5198 19.5825 84.6869 19.5216 84.8696 19.4816C85.054 19.4399 85.2394 19.4068 85.4255 19.3824C85.6692 19.3511 85.8666 19.3276 86.018 19.312C86.1712 19.2946 86.2825 19.2659 86.3521 19.2258C86.4235 19.1858 86.4591 19.1162 86.4591 19.017V18.9961C86.4591 18.7386 86.3887 18.5385 86.2477 18.3958C86.1085 18.2531 85.8971 18.1818 85.6135 18.1818C85.3194 18.1818 85.0888 18.2462 84.9218 18.3749C84.7548 18.5037 84.6373 18.6412 84.5694 18.7873L83.9848 18.5785C84.0892 18.3349 84.2284 18.1453 84.4024 18.0095C84.5781 17.8721 84.7695 17.7764 84.9766 17.7224C85.1854 17.6667 85.3907 17.6389 85.5926 17.6389C85.7214 17.6389 85.8693 17.6546 86.0363 17.6859C86.2051 17.7155 86.3678 17.7772 86.5244 17.8712C86.6827 17.9652 86.8141 18.107 86.9185 18.2966C87.0229 18.4863 87.0751 18.7404 87.0751 19.0588V21.7002H86.4591V21.1573H86.4278C86.3861 21.2443 86.3165 21.3374 86.219 21.4366C86.1216 21.5358 85.9919 21.6202 85.8301 21.6898C85.6683 21.7594 85.4708 21.7942 85.2376 21.7942ZM85.3316 21.2408C85.5752 21.2408 85.7805 21.193 85.9476 21.0973C86.1163 21.0016 86.2434 20.878 86.3286 20.7266C86.4156 20.5752 86.4591 20.416 86.4591 20.249V19.6852C86.433 19.7165 86.3756 19.7452 86.2869 19.7713C86.1999 19.7957 86.0989 19.8175 85.9841 19.8366C85.871 19.854 85.7605 19.8697 85.6526 19.8836C85.5465 19.8958 85.4603 19.9062 85.3942 19.9149C85.2341 19.9358 85.0845 19.9697 84.9453 20.0167C84.8078 20.0619 84.6965 20.1307 84.6112 20.2229C84.5277 20.3134 84.4859 20.4369 84.4859 20.5935C84.4859 20.8075 84.5651 20.9694 84.7234 21.079C84.8835 21.1869 85.0862 21.2408 85.3316 21.2408ZM89.7133 21.7837C89.3792 21.7837 89.0842 21.6993 88.8284 21.5305C88.5727 21.36 88.3725 21.1199 88.2281 20.8102C88.0837 20.4987 88.0115 20.1307 88.0115 19.7061C88.0115 19.285 88.0837 18.9196 88.2281 18.6099C88.3725 18.3001 88.5735 18.0609 88.8311 17.8921C89.0886 17.7233 89.3861 17.6389 89.7237 17.6389C89.9847 17.6389 90.1909 17.6824 90.3423 17.7694C90.4954 17.8547 90.612 17.9521 90.692 18.0617C90.7738 18.1696 90.8373 18.2584 90.8826 18.328H90.9348V16.3547H91.5508V21.7002H90.9557V21.0842H90.8826C90.8373 21.1573 90.773 21.2495 90.6894 21.3609C90.6059 21.4705 90.4867 21.5688 90.3319 21.6558C90.177 21.7411 89.9708 21.7837 89.7133 21.7837ZM89.7968 21.2304C90.0439 21.2304 90.2527 21.166 90.4232 21.0372C90.5937 20.9067 90.7234 20.7266 90.8121 20.4969C90.9009 20.2655 90.9452 19.9984 90.9452 19.6956C90.9452 19.3964 90.9017 19.1345 90.8147 18.91C90.7277 18.6838 90.599 18.5081 90.4284 18.3828C90.2579 18.2558 90.0474 18.1922 89.7968 18.1922C89.5358 18.1922 89.3183 18.2592 89.1443 18.3932C88.972 18.5255 88.8424 18.7056 88.7554 18.9335C88.6701 19.1597 88.6275 19.4138 88.6275 19.6956C88.6275 19.981 88.671 20.2403 88.758 20.4735C88.8467 20.7049 88.9772 20.8893 89.1495 21.0268C89.3235 21.1625 89.5393 21.2304 89.7968 21.2304ZM94.4453 21.7837C94.0591 21.7837 93.7258 21.6985 93.4457 21.5279C93.1673 21.3557 92.9524 21.1155 92.801 20.8075C92.6513 20.4978 92.5765 20.1376 92.5765 19.727C92.5765 19.3163 92.6513 18.9544 92.801 18.6412C92.9524 18.3262 93.1629 18.0809 93.4326 17.9051C93.7041 17.7276 94.0208 17.6389 94.3827 17.6389C94.5915 17.6389 94.7977 17.6737 95.0013 17.7433C95.2049 17.8129 95.3902 17.926 95.5572 18.0826C95.7243 18.2375 95.8574 18.4428 95.9566 18.6986C96.0558 18.9544 96.1054 19.2693 96.1054 19.6434V19.9045H93.015V19.372H95.4789C95.4789 19.1458 95.4337 18.9439 95.3432 18.7665C95.2545 18.589 95.1274 18.4489 94.9621 18.3462C94.7986 18.2436 94.6054 18.1922 94.3827 18.1922C94.1374 18.1922 93.9251 18.2531 93.7458 18.3749C93.5684 18.495 93.4318 18.6516 93.3361 18.8448C93.2404 19.0379 93.1925 19.245 93.1925 19.466V19.8209C93.1925 20.1237 93.2447 20.3804 93.3491 20.5909C93.4553 20.7997 93.6023 20.9589 93.7902 21.0686C93.9781 21.1764 94.1965 21.2304 94.4453 21.2304C94.6072 21.2304 94.7533 21.2078 94.8838 21.1625C95.0161 21.1155 95.1301 21.0459 95.2258 20.9537C95.3215 20.8597 95.3954 20.7432 95.4476 20.604L96.0427 20.771C95.9801 20.9729 95.8748 21.1503 95.7269 21.3035C95.579 21.4548 95.3963 21.5732 95.1788 21.6584C94.9613 21.742 94.7168 21.7837 94.4453 21.7837ZM99.1931 21.7002V16.3547H102.419V16.929H99.8404V18.7351H102.252V19.3094H99.8404V21.126H102.461V21.7002H99.1931ZM104.118 19.2885V21.7002H103.502V17.6911H104.097V18.3175H104.15C104.244 18.1139 104.386 17.9504 104.578 17.8268C104.769 17.7015 105.016 17.6389 105.319 17.6389C105.59 17.6389 105.828 17.6946 106.032 17.8059C106.235 17.9156 106.393 18.0826 106.507 18.3071C106.62 18.5298 106.676 18.8117 106.676 19.1528V21.7002H106.06V19.1945C106.06 18.8796 105.978 18.6342 105.815 18.4585C105.651 18.281 105.427 18.1922 105.141 18.1922C104.945 18.1922 104.769 18.2349 104.614 18.3201C104.461 18.4054 104.34 18.5298 104.251 18.6934C104.163 18.8569 104.118 19.0553 104.118 19.2885ZM109.545 17.6911V18.2131H107.468V17.6911H109.545ZM108.073 16.7306H108.689V20.5518C108.689 20.7258 108.714 20.8563 108.765 20.9433C108.817 21.0285 108.883 21.086 108.963 21.1155C109.045 21.1434 109.131 21.1573 109.222 21.1573C109.29 21.1573 109.345 21.1538 109.389 21.1469C109.432 21.1382 109.467 21.1312 109.493 21.126L109.618 21.6793C109.577 21.695 109.518 21.7106 109.444 21.7263C109.369 21.7437 109.274 21.7524 109.159 21.7524C108.985 21.7524 108.815 21.715 108.647 21.6402C108.482 21.5653 108.345 21.4514 108.235 21.2982C108.127 21.1451 108.073 20.952 108.073 20.7188V16.7306ZM110.472 21.7002V17.6911H111.067V18.2966H111.109C111.182 18.0983 111.314 17.9373 111.506 17.8138C111.697 17.6902 111.913 17.6285 112.153 17.6285C112.198 17.6285 112.255 17.6293 112.322 17.6311C112.39 17.6328 112.442 17.6354 112.476 17.6389V18.2653C112.456 18.2601 112.408 18.2523 112.333 18.2418C112.26 18.2297 112.182 18.2236 112.101 18.2236C111.906 18.2236 111.732 18.2645 111.579 18.3462C111.427 18.4263 111.307 18.5376 111.218 18.6803C111.131 18.8213 111.088 18.9822 111.088 19.1632V21.7002H110.472ZM113.725 23.2036C113.621 23.2036 113.528 23.1949 113.446 23.1775C113.364 23.1618 113.308 23.1462 113.276 23.1305L113.433 22.5876C113.583 22.6259 113.715 22.6398 113.83 22.6294C113.945 22.6189 114.046 22.5676 114.135 22.4754C114.226 22.3849 114.308 22.2379 114.383 22.0343L114.498 21.7211L113.015 17.6911H113.684L114.79 20.8858H114.832L115.939 17.6911H116.607L114.905 22.2849C114.829 22.4919 114.734 22.6633 114.621 22.799C114.508 22.9365 114.376 23.0383 114.227 23.1044C114.079 23.1705 113.912 23.2036 113.725 23.2036ZM119.571 21.7002V16.3547H122.776V16.929H120.218V18.7351H122.536V19.3094H120.218V21.7002H119.571ZM125.135 21.7837C124.773 21.7837 124.456 21.6976 124.183 21.5253C123.911 21.3531 123.699 21.1121 123.546 20.8023C123.394 20.4926 123.319 20.1307 123.319 19.7165C123.319 19.2989 123.394 18.9344 123.546 18.6229C123.699 18.3114 123.911 18.0696 124.183 17.8973C124.456 17.725 124.773 17.6389 125.135 17.6389C125.497 17.6389 125.814 17.725 126.085 17.8973C126.359 18.0696 126.571 18.3114 126.722 18.6229C126.875 18.9344 126.952 19.2989 126.952 19.7165C126.952 20.1307 126.875 20.4926 126.722 20.8023C126.571 21.1121 126.359 21.3531 126.085 21.5253C125.814 21.6976 125.497 21.7837 125.135 21.7837ZM125.135 21.2304C125.41 21.2304 125.637 21.1599 125.814 21.019C125.991 20.878 126.123 20.6927 126.208 20.463C126.293 20.2333 126.336 19.9845 126.336 19.7165C126.336 19.4486 126.293 19.1989 126.208 18.9674C126.123 18.736 125.991 18.549 125.814 18.4063C125.637 18.2636 125.41 18.1922 125.135 18.1922C124.86 18.1922 124.634 18.2636 124.457 18.4063C124.279 18.549 124.148 18.736 124.063 18.9674C123.977 19.1989 123.935 19.4486 123.935 19.7165C123.935 19.9845 123.977 20.2333 124.063 20.463C124.148 20.6927 124.279 20.878 124.457 21.019C124.634 21.1599 124.86 21.2304 125.135 21.2304ZM127.892 21.7002V17.6911H128.487V18.2966H128.529C128.602 18.0983 128.734 17.9373 128.926 17.8138C129.117 17.6902 129.333 17.6285 129.573 17.6285C129.618 17.6285 129.675 17.6293 129.743 17.6311C129.811 17.6328 129.862 17.6354 129.897 17.6389V18.2653C129.876 18.2601 129.828 18.2523 129.753 18.2418C129.68 18.2297 129.603 18.2236 129.521 18.2236C129.326 18.2236 129.152 18.2645 128.999 18.3462C128.848 18.4263 128.728 18.5376 128.639 18.6803C128.552 18.8213 128.508 18.9822 128.508 19.1632V21.7002H127.892ZM130.627 21.7002V17.6911H131.222V18.3175H131.274C131.358 18.1035 131.493 17.9373 131.679 17.819C131.865 17.6989 132.089 17.6389 132.35 17.6389C132.614 17.6389 132.834 17.6989 133.01 17.819C133.187 17.9373 133.326 18.1035 133.425 18.3175H133.467C133.569 18.1105 133.723 17.946 133.929 17.8242C134.134 17.7007 134.38 17.6389 134.667 17.6389C135.026 17.6389 135.319 17.7511 135.547 17.9756C135.775 18.1983 135.889 18.5455 135.889 19.017V21.7002H135.273V19.017C135.273 18.7212 135.192 18.5098 135.03 18.3828C134.868 18.2558 134.678 18.1922 134.459 18.1922C134.177 18.1922 133.958 18.2775 133.803 18.448C133.649 18.6168 133.571 18.8308 133.571 19.0901V21.7002H132.945V18.9544C132.945 18.7264 132.871 18.5429 132.723 18.4037C132.575 18.2627 132.384 18.1922 132.151 18.1922C131.991 18.1922 131.842 18.2349 131.702 18.3201C131.565 18.4054 131.454 18.5237 131.368 18.6751C131.285 18.8248 131.243 18.9979 131.243 19.1945V21.7002H130.627Z" fill="#999999"/>
<path d="M156.05 33.0752H38.45V41.8952H156.05V33.0752Z" fill="white" stroke="#DDDDDD" stroke-width="0.735"/>
<path d="M156.05 45.5698H38.45V54.3898H156.05V45.5698Z" fill="white" stroke="#DDDDDD" stroke-width="0.735"/>
<path d="M97.25 58.0649H38.45V66.8849H97.25V58.0649Z" fill="white" stroke="#DDDDDD" stroke-width="0.735"/>
<path d="M156.05 58.0649H100.925V66.8849H156.05V58.0649Z" fill="white" stroke="#DDDDDD" stroke-width="0.735"/>
<path d="M236.9 7.3501H170.75V139.65H236.9V7.3501Z" fill="#6A81B2" fill-opacity="0.15" stroke="#6A81B2" stroke-width="1.47" stroke-dasharray="2.94 2.94"/>
<path d="M188.397 22.1699V17.8936H190.084C190.408 17.8936 190.685 17.9555 190.913 18.0794C191.141 18.2019 191.315 18.3724 191.435 18.591C191.556 18.8081 191.617 19.0587 191.617 19.3427C191.617 19.6267 191.555 19.8772 191.433 20.0944C191.31 20.3115 191.133 20.4807 190.9 20.6018C190.669 20.7229 190.39 20.7834 190.061 20.7834H188.986V20.0589H189.915C190.089 20.0589 190.232 20.029 190.345 19.9691C190.459 19.9078 190.544 19.8236 190.6 19.7164C190.657 19.6079 190.685 19.4833 190.685 19.3427C190.685 19.2007 190.657 19.0768 190.6 18.971C190.544 18.8638 190.459 18.781 190.345 18.7225C190.231 18.6627 190.086 18.6327 189.911 18.6327H189.301V22.1699H188.397ZM196.134 20.0317C196.134 20.4981 196.045 20.8948 195.869 21.2219C195.693 21.5491 195.454 21.7989 195.15 21.9716C194.848 22.1428 194.509 22.2284 194.131 22.2284C193.751 22.2284 193.41 22.1421 193.108 21.9695C192.806 21.7969 192.567 21.547 192.392 21.2199C192.216 20.8927 192.129 20.4967 192.129 20.0317C192.129 19.5654 192.216 19.1687 192.392 18.8415C192.567 18.5144 192.806 18.2652 193.108 18.094C193.41 17.9214 193.751 17.8351 194.131 17.8351C194.509 17.8351 194.848 17.9214 195.15 18.094C195.454 18.2652 195.693 18.5144 195.869 18.8415C196.045 19.1687 196.134 19.5654 196.134 20.0317ZM195.217 20.0317C195.217 19.7297 195.172 19.4749 195.081 19.2675C194.992 19.0601 194.866 18.9028 194.703 18.7956C194.541 18.6884 194.35 18.6348 194.131 18.6348C193.913 18.6348 193.722 18.6884 193.559 18.7956C193.396 18.9028 193.27 19.0601 193.179 19.2675C193.09 19.4749 193.045 19.7297 193.045 20.0317C193.045 20.3338 193.09 20.5886 193.179 20.796C193.27 21.0034 193.396 21.1607 193.559 21.2679C193.722 21.3751 193.913 21.4287 194.131 21.4287C194.35 21.4287 194.541 21.3751 194.703 21.2679C194.866 21.1607 194.992 21.0034 195.081 20.796C195.172 20.5886 195.217 20.3338 195.217 20.0317ZM199.123 19.1234C199.107 18.955 199.035 18.8241 198.908 18.7309C198.782 18.6376 198.61 18.591 198.392 18.591C198.245 18.591 198.12 18.6119 198.019 18.6536C197.917 18.694 197.839 18.7504 197.785 18.8227C197.732 18.8951 197.706 18.9773 197.706 19.0691C197.703 19.1457 197.719 19.2125 197.754 19.2696C197.79 19.3267 197.839 19.3761 197.902 19.4178C197.964 19.4582 198.037 19.4937 198.119 19.5243C198.201 19.5536 198.289 19.5786 198.382 19.5995L198.766 19.6914C198.953 19.7331 199.124 19.7888 199.28 19.8584C199.436 19.928 199.571 20.0136 199.685 20.1153C199.799 20.2169 199.888 20.3366 199.95 20.4744C200.014 20.6122 200.047 20.7702 200.048 20.9484C200.047 21.2101 199.98 21.437 199.848 21.6291C199.717 21.8198 199.528 21.9681 199.28 22.0739C199.034 22.1783 198.736 22.2305 198.388 22.2305C198.043 22.2305 197.742 22.1776 197.486 22.0718C197.232 21.966 197.032 21.8094 196.889 21.602C196.747 21.3932 196.673 21.1349 196.666 20.8273H197.541C197.55 20.9707 197.591 21.0904 197.664 21.1864C197.738 21.2811 197.836 21.3528 197.958 21.4015C198.082 21.4488 198.222 21.4725 198.378 21.4725C198.531 21.4725 198.664 21.4502 198.777 21.4057C198.891 21.3611 198.979 21.2992 199.042 21.2199C199.105 21.1405 199.136 21.0493 199.136 20.9463C199.136 20.8503 199.107 20.7695 199.05 20.7041C198.995 20.6387 198.912 20.583 198.804 20.5371C198.697 20.4911 198.565 20.4494 198.409 20.4118L197.944 20.2948C197.583 20.2071 197.298 20.07 197.09 19.8835C196.881 19.697 196.777 19.4457 196.778 19.1297C196.777 18.8708 196.846 18.6446 196.985 18.4511C197.126 18.2576 197.319 18.1065 197.564 17.998C197.809 17.8894 198.087 17.8351 198.399 17.8351C198.716 17.8351 198.993 17.8894 199.23 17.998C199.468 18.1065 199.653 18.2576 199.785 18.4511C199.917 18.6446 199.986 18.8687 199.99 19.1234H199.123ZM201.561 17.8936V22.1699H200.656V17.8936H201.561ZM202.142 18.639V17.8936H205.654V18.639H204.345V22.1699H203.451V18.639H202.142ZM207.136 17.8936V22.1699H206.232V17.8936H207.136ZM211.81 20.0317C211.81 20.4981 211.721 20.8948 211.545 21.2219C211.369 21.5491 211.13 21.7989 210.826 21.9716C210.524 22.1428 210.185 22.2284 209.807 22.2284C209.427 22.2284 209.086 22.1421 208.784 21.9695C208.482 21.7969 208.243 21.547 208.068 21.2199C207.893 20.8927 207.805 20.4967 207.805 20.0317C207.805 19.5654 207.893 19.1687 208.068 18.8415C208.243 18.5144 208.482 18.2652 208.784 18.094C209.086 17.9214 209.427 17.8351 209.807 17.8351C210.185 17.8351 210.524 17.9214 210.826 18.094C211.13 18.2652 211.369 18.5144 211.545 18.8415C211.721 19.1687 211.81 19.5654 211.81 20.0317ZM210.893 20.0317C210.893 19.7297 210.848 19.4749 210.758 19.2675C210.668 19.0601 210.542 18.9028 210.38 18.7956C210.217 18.6884 210.026 18.6348 209.807 18.6348C209.589 18.6348 209.398 18.6884 209.235 18.7956C209.072 18.9028 208.946 19.0601 208.855 19.2675C208.766 19.4749 208.722 19.7297 208.722 20.0317C208.722 20.3338 208.766 20.5886 208.855 20.796C208.946 21.0034 209.072 21.1607 209.235 21.2679C209.398 21.3751 209.589 21.4287 209.807 21.4287C210.026 21.4287 210.217 21.3751 210.38 21.2679C210.542 21.1607 210.668 21.0034 210.758 20.796C210.848 20.5886 210.893 20.3338 210.893 20.0317ZM216.056 17.8936V22.1699H215.276L213.415 19.4784H213.384V22.1699H212.48V17.8936H213.273L215.119 20.583H215.157V17.8936H216.056ZM219.123 19.1234C219.107 18.955 219.035 18.8241 218.908 18.7309C218.782 18.6376 218.61 18.591 218.393 18.591C218.245 18.591 218.12 18.6119 218.019 18.6536C217.917 18.694 217.839 18.7504 217.785 18.8227C217.732 18.8951 217.706 18.9773 217.706 19.0691C217.703 19.1457 217.719 19.2125 217.754 19.2696C217.79 19.3267 217.839 19.3761 217.902 19.4178C217.964 19.4582 218.037 19.4937 218.119 19.5243C218.201 19.5536 218.289 19.5786 218.382 19.5995L218.766 19.6914C218.953 19.7331 219.124 19.7888 219.28 19.8584C219.436 19.928 219.571 20.0136 219.685 20.1153C219.799 20.2169 219.888 20.3366 219.95 20.4744C220.014 20.6122 220.047 20.7702 220.048 20.9484C220.047 21.2101 219.98 21.437 219.848 21.6291C219.717 21.8198 219.528 21.9681 219.28 22.0739C219.034 22.1783 218.736 22.2305 218.388 22.2305C218.043 22.2305 217.742 22.1776 217.486 22.0718C217.232 21.966 217.032 21.8094 216.889 21.602C216.747 21.3932 216.673 21.1349 216.666 20.8273H217.541C217.55 20.9707 217.591 21.0904 217.664 21.1864C217.738 21.2811 217.836 21.3528 217.958 21.4015C218.082 21.4488 218.222 21.4725 218.378 21.4725C218.531 21.4725 218.664 21.4502 218.777 21.4057C218.891 21.3611 218.979 21.2992 219.042 21.2199C219.105 21.1405 219.136 21.0493 219.136 20.9463C219.136 20.8503 219.107 20.7695 219.05 20.7041C218.995 20.6387 218.912 20.583 218.804 20.5371C218.697 20.4911 218.565 20.4494 218.409 20.4118L217.944 20.2948C217.583 20.2071 217.298 20.07 217.09 19.8835C216.881 19.697 216.777 19.4457 216.778 19.1297C216.777 18.8708 216.846 18.6446 216.985 18.4511C217.126 18.2576 217.319 18.1065 217.564 17.998C217.809 17.8894 218.087 17.8351 218.399 17.8351C218.716 17.8351 218.993 17.8894 219.23 17.998C219.468 18.1065 219.653 18.2576 219.785 18.4511C219.918 18.6446 219.986 18.8687 219.99 19.1234H219.123Z" fill="#6A81B2"/>
<path d="M193.266 28.8542C193.266 28.3938 193.326 27.9705 193.445 27.5844C193.566 27.197 193.738 26.8408 193.96 26.5156H194.34C194.253 26.6361 194.171 26.7847 194.094 26.9614C194.018 27.1368 193.952 27.3298 193.895 27.5405C193.837 27.75 193.792 27.9668 193.759 28.191C193.728 28.4151 193.712 28.6362 193.712 28.8542C193.712 29.1441 193.74 29.4382 193.796 29.7367C193.852 30.0351 193.928 30.3122 194.023 30.568C194.118 30.8238 194.224 31.032 194.34 31.1928H193.96C193.738 30.8676 193.566 30.5119 193.445 30.1258C193.326 29.7385 193.266 29.3146 193.266 28.8542ZM197.081 27.9187C197.06 27.7336 196.971 27.5899 196.815 27.4875C196.659 27.3852 196.468 27.3341 196.241 27.3341C196.075 27.3341 195.93 27.3609 195.806 27.4145C195.683 27.4681 195.587 27.5418 195.518 27.6355C195.449 27.7293 195.415 27.8359 195.415 27.9553C195.415 28.0552 195.439 28.141 195.486 28.2129C195.535 28.2835 195.597 28.3426 195.673 28.3901C195.748 28.4364 195.828 28.4748 195.91 28.5052C195.993 28.5345 196.069 28.5582 196.139 28.5765L196.519 28.6788C196.616 28.7044 196.725 28.7397 196.844 28.7848C196.965 28.8298 197.08 28.8913 197.189 28.9693C197.3 29.046 197.391 29.1447 197.463 29.2653C197.535 29.3859 197.571 29.5339 197.571 29.7093C197.571 29.9114 197.518 30.0942 197.412 30.2574C197.307 30.4206 197.154 30.5503 196.952 30.6465C196.751 30.7428 196.507 30.7909 196.219 30.7909C195.951 30.7909 195.719 30.7476 195.523 30.6612C195.328 30.5747 195.175 30.4541 195.063 30.2994C194.952 30.1447 194.889 29.965 194.874 29.7604H195.342C195.354 29.9017 195.402 30.0186 195.485 30.1112C195.569 30.2026 195.675 30.2708 195.803 30.3158C195.932 30.3597 196.071 30.3816 196.219 30.3816C196.392 30.3816 196.547 30.3536 196.685 30.2976C196.823 30.2403 196.932 30.1611 197.012 30.06C197.092 29.9577 197.133 29.8384 197.133 29.7019C197.133 29.5777 197.098 29.4766 197.028 29.3987C196.959 29.3207 196.868 29.2574 196.754 29.2086C196.641 29.1599 196.519 29.1173 196.387 29.0807L195.927 28.9492C195.634 28.8652 195.403 28.7452 195.232 28.5893C195.062 28.4334 194.977 28.2293 194.977 27.9772C194.977 27.7677 195.033 27.585 195.147 27.4291C195.261 27.272 195.415 27.1502 195.607 27.0637C195.801 26.976 196.017 26.9321 196.256 26.9321C196.497 26.9321 196.711 26.9754 196.899 27.0618C197.086 27.1471 197.235 27.264 197.345 27.4126C197.455 27.5612 197.514 27.7299 197.52 27.9187H197.081ZM198.258 30.7251V27.9187H198.689V30.7251H198.258ZM198.477 27.451C198.393 27.451 198.32 27.4224 198.259 27.3651C198.2 27.3079 198.17 27.2391 198.17 27.1587C198.17 27.0783 198.2 27.0095 198.259 26.9522C198.32 26.895 198.393 26.8663 198.477 26.8663C198.561 26.8663 198.633 26.895 198.692 26.9522C198.753 27.0095 198.784 27.0783 198.784 27.1587C198.784 27.2391 198.753 27.3079 198.692 27.3651C198.633 27.4224 198.561 27.451 198.477 27.451ZM200.538 30.7836C200.304 30.7836 200.098 30.7245 199.919 30.6063C199.74 30.487 199.6 30.3189 199.499 30.1021C199.398 29.884 199.347 29.6264 199.347 29.3292C199.347 29.0345 199.398 28.7787 199.499 28.5619C199.6 28.345 199.74 28.1776 199.921 28.0594C200.101 27.9413 200.309 27.8822 200.546 27.8822C200.728 27.8822 200.873 27.9126 200.979 27.9735C201.086 28.0332 201.167 28.1014 201.223 28.1782C201.281 28.2537 201.325 28.3158 201.357 28.3645H201.393V26.9833H201.825V30.7251H201.408V30.2939H201.357C201.325 30.3451 201.28 30.4096 201.222 30.4876C201.163 30.5643 201.08 30.6331 200.971 30.694C200.863 30.7537 200.719 30.7836 200.538 30.7836ZM200.597 30.3962C200.77 30.3962 200.916 30.3512 201.035 30.261C201.155 30.1697 201.245 30.0436 201.307 29.8828C201.37 29.7208 201.401 29.5339 201.401 29.3219C201.401 29.1124 201.37 28.9291 201.309 28.772C201.248 28.6136 201.158 28.4906 201.039 28.4029C200.92 28.314 200.772 28.2695 200.597 28.2695C200.414 28.2695 200.262 28.3164 200.14 28.4102C200.019 28.5028 199.929 28.6289 199.868 28.7884C199.808 28.9468 199.778 29.1246 199.778 29.3219C199.778 29.5217 199.809 29.7032 199.87 29.8664C199.932 30.0284 200.023 30.1575 200.144 30.2537C200.265 30.3487 200.416 30.3962 200.597 30.3962ZM203.851 30.7836C203.58 30.7836 203.347 30.7239 203.151 30.6045C202.956 30.4839 202.806 30.3158 202.7 30.1002C202.595 29.8834 202.543 29.6313 202.543 29.3438C202.543 29.0564 202.595 28.803 202.7 28.5838C202.806 28.3633 202.953 28.1916 203.142 28.0686C203.332 27.9443 203.554 27.8822 203.807 27.8822C203.953 27.8822 204.097 27.9066 204.24 27.9553C204.382 28.004 204.512 28.0832 204.629 28.1928C204.746 28.3012 204.839 28.4449 204.909 28.624C204.978 28.803 205.013 29.0235 205.013 29.2854V29.4681H202.85V29.0954H204.574C204.574 28.937 204.543 28.7957 204.479 28.6715C204.417 28.5472 204.328 28.4492 204.212 28.3773C204.098 28.3055 203.963 28.2695 203.807 28.2695C203.635 28.2695 203.487 28.3122 203.361 28.3974C203.237 28.4815 203.141 28.5911 203.074 28.7263C203.007 28.8615 202.974 29.0064 202.974 29.1611V29.4096C202.974 29.6216 203.01 29.8012 203.083 29.9486C203.158 30.0948 203.261 30.2062 203.392 30.2829C203.524 30.3585 203.677 30.3962 203.851 30.3962C203.964 30.3962 204.066 30.3804 204.158 30.3487C204.25 30.3158 204.33 30.2671 204.397 30.2026C204.464 30.1368 204.516 30.0552 204.552 29.9577L204.969 30.0747C204.925 30.216 204.851 30.3402 204.748 30.4474C204.644 30.5534 204.516 30.6362 204.364 30.6959C204.212 30.7543 204.041 30.7836 203.851 30.7836ZM205.727 30.7251V26.9833H206.158V28.3645H206.195C206.227 28.3158 206.27 28.2537 206.326 28.1782C206.384 28.1014 206.465 28.0332 206.571 27.9735C206.678 27.9126 206.823 27.8822 207.006 27.8822C207.242 27.8822 207.451 27.9413 207.631 28.0594C207.811 28.1776 207.952 28.345 208.053 28.5619C208.154 28.7787 208.205 29.0345 208.205 29.3292C208.205 29.6264 208.154 29.884 208.053 30.1021C207.952 30.3189 207.812 30.487 207.633 30.6063C207.454 30.7245 207.247 30.7836 207.013 30.7836C206.833 30.7836 206.689 30.7537 206.58 30.694C206.472 30.6331 206.389 30.5643 206.33 30.4876C206.272 30.4096 206.227 30.3451 206.195 30.2939H206.144V30.7251H205.727ZM206.151 29.3219C206.151 29.5339 206.182 29.7208 206.244 29.8828C206.306 30.0436 206.397 30.1697 206.516 30.261C206.636 30.3512 206.782 30.3962 206.955 30.3962C207.135 30.3962 207.286 30.3487 207.406 30.2537C207.528 30.1575 207.619 30.0284 207.68 29.8664C207.742 29.7032 207.773 29.5217 207.773 29.3219C207.773 29.1246 207.743 28.9468 207.682 28.7884C207.622 28.6289 207.532 28.5028 207.41 28.4102C207.289 28.3164 207.138 28.2695 206.955 28.2695C206.78 28.2695 206.632 28.314 206.513 28.4029C206.393 28.4906 206.303 28.6136 206.242 28.772C206.181 28.9291 206.151 29.1124 206.151 29.3219ZM209.69 30.7909C209.512 30.7909 209.351 30.7574 209.206 30.6904C209.061 30.6222 208.946 30.5241 208.861 30.3962C208.775 30.2671 208.733 30.1112 208.733 29.9285C208.733 29.7677 208.764 29.6374 208.828 29.5375C208.891 29.4364 208.976 29.3572 209.082 29.3C209.188 29.2427 209.305 29.2001 209.432 29.1721C209.562 29.1429 209.691 29.1197 209.822 29.1027C209.992 29.0807 210.13 29.0643 210.236 29.0533C210.343 29.0412 210.421 29.0211 210.47 28.993C210.52 28.965 210.545 28.9163 210.545 28.8469V28.8323C210.545 28.652 210.496 28.5119 210.397 28.412C210.3 28.3122 210.152 28.2622 209.953 28.2622C209.747 28.2622 209.586 28.3073 209.469 28.3974C209.352 28.4876 209.27 28.5838 209.222 28.6861L208.813 28.5399C208.886 28.3694 208.984 28.2366 209.105 28.1416C209.228 28.0454 209.362 27.9784 209.507 27.9407C209.653 27.9017 209.797 27.8822 209.938 27.8822C210.029 27.8822 210.132 27.8932 210.249 27.9151C210.367 27.9358 210.481 27.979 210.591 28.0448C210.702 28.1106 210.794 28.2098 210.867 28.3426C210.94 28.4754 210.976 28.6532 210.976 28.8761V30.7251H210.545V30.3451H210.523C210.494 30.406 210.445 30.4711 210.377 30.5406C210.309 30.61 210.218 30.6691 210.105 30.7178C209.991 30.7665 209.853 30.7909 209.69 30.7909ZM209.756 30.4035C209.926 30.4035 210.07 30.37 210.187 30.303C210.305 30.2361 210.394 30.1496 210.454 30.0436C210.515 29.9376 210.545 29.8262 210.545 29.7093V29.3146C210.527 29.3365 210.487 29.3566 210.424 29.3749C210.364 29.392 210.293 29.4072 210.213 29.4206C210.133 29.4328 210.056 29.4437 209.981 29.4535C209.906 29.462 209.846 29.4693 209.8 29.4754C209.688 29.49 209.583 29.5138 209.485 29.5466C209.389 29.5783 209.311 29.6264 209.252 29.691C209.193 29.7543 209.164 29.8408 209.164 29.9504C209.164 30.1002 209.219 30.2135 209.33 30.2903C209.442 30.3658 209.584 30.4035 209.756 30.4035ZM211.763 30.7251V27.9187H212.18V28.3426H212.209C212.26 28.2038 212.353 28.0911 212.487 28.0046C212.621 27.9181 212.772 27.8749 212.94 27.8749C212.972 27.8749 213.011 27.8755 213.059 27.8767C213.106 27.8779 213.142 27.8798 213.166 27.8822V28.3207C213.152 28.317 213.118 28.3116 213.066 28.3042C213.015 28.2957 212.961 28.2915 212.903 28.2915C212.767 28.2915 212.645 28.3201 212.538 28.3773C212.432 28.4334 212.348 28.5113 212.286 28.6112C212.225 28.7099 212.194 28.8225 212.194 28.9492V30.7251H211.763ZM214.598 29.1465C214.598 29.6069 214.538 30.0308 214.418 30.4182C214.298 30.8043 214.127 31.1599 213.904 31.4852H213.524C213.612 31.3646 213.693 31.216 213.769 31.0394C213.846 30.864 213.913 30.6715 213.97 30.462C214.027 30.2513 214.072 30.0339 214.103 29.8097C214.136 29.5844 214.153 29.3633 214.153 29.1465C214.153 28.8566 214.125 28.5625 214.069 28.264C214.013 27.9656 213.937 27.6885 213.842 27.4327C213.747 27.1769 213.641 26.9687 213.524 26.8079H213.904C214.127 27.1331 214.298 27.4894 214.418 27.8767C214.538 28.2628 214.598 28.6861 214.598 29.1465Z" fill="#6A81B2"/>
<path d="M234 35.8945V84.8945" stroke="#CAD5E2" stroke-width="2" stroke-linecap="round"/>
<g clip-path="url(#clip0_1_764)">
<path d="M203.5 69.8945C208.194 69.8945 212 66.0889 212 61.3945C212 56.7001 208.194 52.8945 203.5 52.8945C198.806 52.8945 195 56.7001 195 61.3945C195 66.0889 198.806 69.8945 203.5 69.8945Z" fill="#ED9DA0"/>
<path d="M204.389 56.6162L204.233 62.3428H202.771L202.612 56.6162H204.389ZM203.502 64.8986C203.238 64.8986 203.012 64.8054 202.823 64.619C202.634 64.43 202.541 64.2037 202.544 63.9402C202.541 63.6793 202.634 63.4556 202.823 63.2693C203.012 63.0829 203.238 62.9897 203.502 62.9897C203.755 62.9897 203.977 63.0829 204.169 63.2693C204.361 63.4556 204.458 63.6793 204.46 63.9402C204.458 64.1159 204.411 64.2769 204.321 64.4234C204.233 64.5671 204.117 64.6829 203.973 64.7708C203.83 64.856 203.672 64.8986 203.502 64.8986Z" fill="white"/>
</g>
<defs>
<clipPath id="clip0_1_764">
<rect width="17" height="17" fill="white" transform="translate(195 52.8945)"/>
</clipPath>
</defs>
</svg>
